M48
;DRILL file {KiCad 4.0.7-e2-6376~61~ubuntu18.04.1} date Mon Sep  3 13:04:38 2018
;FORMAT={-:-/ absolute / inch / decimal}
FMAT,2
INCH,TZ
T1C0.016
T2C0.024
T3C0.031
T4C0.039
T5C0.126
%
G90
G05
M72
T1
X5.7889Y-5.358
X7.6117Y-4.1932
X7.6405Y-4.8653
X7.6415Y-5.2902
T2
X5.8Y-3.025
X5.8Y-3.075
X5.8Y-3.125
X5.8Y-3.275
X5.8Y-3.325
X5.8Y-3.375
X5.8Y-3.575
X5.8Y-3.625
X5.8Y-3.675
X5.8Y-3.825
X5.8Y-3.875
X5.8Y-3.925
X5.8Y-4.125
X5.8Y-4.175
X5.8Y-4.225
X5.8Y-4.375
X5.8Y-4.425
X5.8Y-4.475
X5.8Y-4.675
X5.8Y-4.725
X5.8Y-4.775
X5.8Y-4.925
X5.8Y-4.975
X5.8Y-5.025
X5.8Y-5.2
X5.8Y-5.25
X5.8Y-5.3
X5.8Y-5.45
X5.8Y-5.5
X5.8Y-5.55
X5.8Y-5.75
X5.8Y-5.8
X5.8Y-5.85
X5.8Y-6.025
X5.8Y-6.075
X5.8Y-6.125
X6.625Y-3.025
X6.625Y-3.075
X6.625Y-3.125
X6.625Y-3.275
X6.625Y-3.325
X6.625Y-3.375
X6.625Y-3.575
X6.625Y-3.625
X6.625Y-3.675
X6.625Y-3.825
X6.625Y-3.875
X6.625Y-3.925
X6.625Y-5.2
X6.625Y-5.25
X6.625Y-5.3
X6.625Y-5.45
X6.625Y-5.5
X6.625Y-5.55
X6.625Y-5.75
X6.625Y-5.8
X6.625Y-5.85
X6.625Y-6.025
X6.625Y-6.075
X6.625Y-6.125
X6.65Y-4.125
X6.65Y-4.175
X6.65Y-4.225
X6.65Y-4.375
X6.65Y-4.425
X6.65Y-4.475
X6.65Y-4.675
X6.65Y-4.725
X6.65Y-4.775
X6.65Y-4.925
X6.65Y-4.975
X6.65Y-5.025
X7.425Y-3.025
X7.425Y-3.075
X7.425Y-3.125
X7.425Y-3.275
X7.425Y-3.325
X7.425Y-3.375
X7.425Y-3.575
X7.425Y-3.625
X7.425Y-3.675
X7.425Y-3.825
X7.425Y-3.875
X7.425Y-3.925
X7.425Y-4.125
X7.425Y-4.175
X7.425Y-4.225
X7.425Y-4.375
X7.425Y-4.425
X7.425Y-4.475
X7.425Y-4.675
X7.425Y-4.725
X7.425Y-4.775
X7.425Y-4.925
X7.425Y-4.975
X7.425Y-5.025
X7.425Y-5.2
X7.425Y-5.25
X7.425Y-5.3
X7.425Y-5.45
X7.425Y-5.5
X7.425Y-5.55
X7.425Y-5.75
X7.425Y-5.8
X7.425Y-5.85
X7.425Y-6.
X7.425Y-6.05
X7.425Y-6.1
X7.725Y-2.975
X7.775Y-2.975
X7.825Y-2.975
X7.975Y-2.975
X8.025Y-2.975
X8.075Y-2.975
T3
X4.525Y-3.775
X4.6234Y-3.775
X4.825Y-3.05
X4.825Y-3.225
X4.9766Y-3.775
X5.Y-3.3766
X5.Y-3.475
X5.075Y-3.775
X5.125Y-3.05
X5.125Y-3.225
X5.3Y-3.025
X5.3Y-3.2
X5.3Y-3.375
X5.3Y-3.575
X5.3Y-3.75
X5.3Y-3.925
X5.3Y-4.125
X5.3Y-4.3
X5.3Y-4.475
X5.3Y-4.675
X5.3Y-4.85
X5.3Y-5.025
X5.3Y-5.2
X5.3Y-5.375
X5.3Y-5.55
X5.3Y-5.75
X5.3Y-5.925
X5.3Y-6.125
X5.6Y-3.025
X5.6Y-3.2
X5.6Y-3.375
X5.6Y-3.575
X5.6Y-3.75
X5.6Y-3.925
X5.6Y-4.125
X5.6Y-4.3
X5.6Y-4.475
X5.6Y-4.675
X5.6Y-4.85
X5.6Y-5.025
X5.6Y-5.2
X5.6Y-5.375
X5.6Y-5.55
X5.6Y-5.75
X5.6Y-5.925
X5.6Y-6.125
X6.125Y-3.025
X6.125Y-3.2
X6.125Y-3.375
X6.125Y-3.575
X6.125Y-3.75
X6.125Y-3.925
X6.125Y-4.125
X6.125Y-4.3
X6.125Y-4.475
X6.125Y-4.675
X6.125Y-4.85
X6.125Y-5.025
X6.125Y-5.2
X6.125Y-5.375
X6.125Y-5.55
X6.125Y-5.75
X6.125Y-5.925
X6.125Y-6.125
X6.425Y-3.025
X6.425Y-3.2
X6.425Y-3.375
X6.425Y-3.575
X6.425Y-3.75
X6.425Y-3.925
X6.425Y-4.125
X6.425Y-4.3
X6.425Y-4.475
X6.425Y-4.675
X6.425Y-4.85
X6.425Y-5.025
X6.425Y-5.2
X6.425Y-5.375
X6.425Y-5.55
X6.425Y-5.75
X6.425Y-5.925
X6.425Y-6.125
X6.925Y-3.025
X6.925Y-3.2
X6.925Y-3.375
X6.925Y-3.575
X6.925Y-3.75
X6.925Y-3.925
X6.925Y-4.125
X6.925Y-4.3
X6.925Y-4.475
X6.925Y-4.675
X6.925Y-4.85
X6.925Y-5.025
X6.925Y-5.2
X6.925Y-5.375
X6.925Y-5.55
X6.925Y-5.75
X6.925Y-5.925
X6.925Y-6.1
X7.225Y-3.025
X7.225Y-3.2
X7.225Y-3.375
X7.225Y-3.575
X7.225Y-3.75
X7.225Y-3.925
X7.225Y-4.125
X7.225Y-4.3
X7.225Y-4.475
X7.225Y-4.675
X7.225Y-4.85
X7.225Y-5.025
X7.225Y-5.2
X7.225Y-5.375
X7.225Y-5.55
X7.225Y-5.75
X7.225Y-5.925
X7.225Y-6.1
X7.725Y-3.175
X7.725Y-3.475
X7.9Y-3.175
X7.9Y-3.475
X8.075Y-3.175
X8.075Y-3.475
T4
X4.5Y-4.2
X4.5Y-4.3
X4.5Y-4.4
X4.5Y-4.5
X4.5Y-4.6
X4.5Y-4.7
X4.5Y-4.8
X4.5Y-4.9
X4.5Y-5.
X4.5Y-5.1
X4.5Y-5.2
X4.5Y-5.3
X4.5Y-5.4
X4.5Y-5.5
X4.5Y-5.6
X4.525Y-3.45
X4.55Y-3.0516
X4.55Y-3.15
X4.625Y-3.45
X4.725Y-3.45
X4.875Y-2.725
X4.9734Y-2.725
X5.0719Y-2.725
X5.1Y-4.2
X5.1Y-4.3
X5.1Y-4.4
X5.1Y-4.5
X5.1Y-4.6
X5.1Y-4.7
X5.1Y-4.8
X5.1Y-4.9
X5.1Y-5.
X5.1Y-5.1
X5.1Y-5.2
X5.1Y-5.3
X5.1Y-5.4
X5.1Y-5.5
X5.1Y-5.6
X5.35Y-2.725
X5.4484Y-2.725
X5.5469Y-2.725
X7.9Y-3.7
X7.9Y-3.7984
X7.9Y-3.8969
X7.9Y-3.9953
X7.9Y-4.0937
X7.9Y-4.1921
X7.9Y-4.2906
X7.9Y-4.389
X7.9Y-4.4874
X7.9Y-4.5858
X7.9Y-4.85
X7.9Y-4.9484
X7.9Y-5.0469
X7.9Y-5.1453
X7.9Y-5.2437
X7.9Y-5.3421
X7.9Y-5.4406
X7.9Y-5.539
X7.9Y-5.6374
X7.9Y-5.7358
T5
X4.525Y-2.7
X4.525Y-6.025
X8.Y-2.7
X8.Y-6.025
T0
M30
