G04 #@! TF.FileFunction,Soldermask,Bot*
%FSLAX46Y46*%
G04 Gerber Fmt 4.6, Leading zero omitted, Abs format (unit mm)*
G04 Created by KiCad (PCBNEW 4.0.7-e2-6376~61~ubuntu18.04.1) date Mon Sep  3 13:06:04 2018*
%MOMM*%
%LPD*%
G01*
G04 APERTURE LIST*
%ADD10C,0.100000*%
%ADD11C,6.000000*%
%ADD12O,1.900000X1.300000*%
%ADD13R,1.900000X1.300000*%
%ADD14C,2.000000*%
%ADD15O,2.000000X2.000000*%
%ADD16C,1.924000*%
%ADD17R,2.000000X2.000000*%
%ADD18R,2.150000X2.150000*%
%ADD19C,2.150000*%
%ADD20R,2.200000X2.200000*%
%ADD21O,2.200000X2.200000*%
%ADD22O,1.300000X1.900000*%
%ADD23R,1.300000X1.900000*%
G04 APERTURE END LIST*
D10*
D11*
X203200000Y-68580000D03*
X203200000Y-153035000D03*
X114935000Y-153035000D03*
D12*
X188595000Y-78105000D03*
X188595000Y-79375000D03*
D13*
X188595000Y-76835000D03*
D14*
X142240000Y-85725000D03*
D15*
X134620000Y-85725000D03*
D14*
X134620000Y-76835000D03*
D15*
X142240000Y-76835000D03*
D14*
X134620000Y-95250000D03*
D15*
X142240000Y-95250000D03*
D14*
X134620000Y-90805000D03*
D15*
X142240000Y-90805000D03*
D14*
X134620000Y-109220000D03*
D15*
X142240000Y-109220000D03*
D14*
X134620000Y-104775000D03*
D15*
X142240000Y-104775000D03*
D14*
X134620000Y-123190000D03*
D15*
X142240000Y-123190000D03*
D14*
X134620000Y-118745000D03*
D15*
X142240000Y-118745000D03*
D14*
X163195000Y-99695000D03*
D15*
X155575000Y-99695000D03*
D14*
X155575000Y-95250000D03*
D15*
X163195000Y-95250000D03*
D14*
X155575000Y-90805000D03*
D15*
X163195000Y-90805000D03*
D14*
X163195000Y-113665000D03*
D15*
X155575000Y-113665000D03*
D14*
X155575000Y-109220000D03*
D15*
X163195000Y-109220000D03*
D14*
X155575000Y-104775000D03*
D15*
X163195000Y-104775000D03*
D14*
X163195000Y-127635000D03*
D15*
X155575000Y-127635000D03*
D14*
X155575000Y-123190000D03*
D15*
X163195000Y-123190000D03*
D14*
X155575000Y-118745000D03*
D15*
X163195000Y-118745000D03*
D14*
X163195000Y-140970000D03*
D15*
X155575000Y-140970000D03*
D14*
X155575000Y-132080000D03*
D15*
X163195000Y-132080000D03*
D16*
X114300000Y-121920000D03*
X114300000Y-119380000D03*
X114300000Y-116840000D03*
X114300000Y-114300000D03*
X114300000Y-111760000D03*
X114300000Y-109220000D03*
X114300000Y-106680000D03*
X114300000Y-124460000D03*
X114300000Y-127000000D03*
X114300000Y-129540000D03*
X114300000Y-132080000D03*
X114300000Y-134620000D03*
X114300000Y-137160000D03*
X114300000Y-139700000D03*
X114300000Y-142240000D03*
X129540000Y-142240000D03*
X129540000Y-139700000D03*
X129540000Y-137160000D03*
X129540000Y-134620000D03*
X129540000Y-132080000D03*
X129540000Y-129540000D03*
X129540000Y-127000000D03*
X129540000Y-124460000D03*
X129540000Y-121920000D03*
X129540000Y-119380000D03*
X129540000Y-116840000D03*
X129540000Y-114300000D03*
X129540000Y-111760000D03*
X129540000Y-109220000D03*
X129540000Y-106680000D03*
D14*
X134620000Y-99695000D03*
D15*
X142240000Y-99695000D03*
D14*
X142240000Y-113665000D03*
D15*
X134620000Y-113665000D03*
D14*
X142240000Y-127635000D03*
D15*
X134620000Y-127635000D03*
D14*
X142240000Y-140970000D03*
D15*
X134620000Y-140970000D03*
D14*
X134620000Y-136525000D03*
D15*
X142240000Y-136525000D03*
D14*
X134620000Y-132080000D03*
D15*
X142240000Y-132080000D03*
D14*
X142240000Y-155575000D03*
D15*
X134620000Y-155575000D03*
D14*
X134620000Y-150495000D03*
D15*
X142240000Y-150495000D03*
D14*
X134620000Y-146050000D03*
D15*
X142240000Y-146050000D03*
D14*
X163195000Y-85725000D03*
D15*
X155575000Y-85725000D03*
D14*
X155575000Y-81280000D03*
D15*
X163195000Y-81280000D03*
D14*
X155575000Y-76835000D03*
D15*
X163195000Y-76835000D03*
D14*
X155575000Y-136525000D03*
D15*
X163195000Y-136525000D03*
D14*
X163195000Y-155575000D03*
D15*
X155575000Y-155575000D03*
D14*
X155575000Y-150495000D03*
D15*
X163195000Y-150495000D03*
D14*
X155575000Y-146050000D03*
D15*
X163195000Y-146050000D03*
D14*
X183515000Y-85725000D03*
D15*
X175895000Y-85725000D03*
D14*
X175895000Y-81280000D03*
D15*
X183515000Y-81280000D03*
D14*
X175895000Y-76835000D03*
D15*
X183515000Y-76835000D03*
D17*
X114935000Y-95885000D03*
D14*
X117435000Y-95885000D03*
D17*
X128905000Y-95885000D03*
D14*
X126405000Y-95885000D03*
X127000000Y-88265000D03*
X127000000Y-85765000D03*
D18*
X115570000Y-80010000D03*
D19*
X115570000Y-77510000D03*
D20*
X114935000Y-87630000D03*
D21*
X117475000Y-87630000D03*
X120015000Y-87630000D03*
D18*
X123825000Y-69215000D03*
D19*
X126325000Y-69215000D03*
X128825000Y-69215000D03*
D18*
X135890000Y-69215000D03*
D19*
X138390000Y-69215000D03*
X140890000Y-69215000D03*
D14*
X130175000Y-77470000D03*
D15*
X122555000Y-77470000D03*
D14*
X122555000Y-81915000D03*
D15*
X130175000Y-81915000D03*
D18*
X200660000Y-93980000D03*
D19*
X200660000Y-96480000D03*
X200660000Y-98980000D03*
X200660000Y-101480000D03*
X200660000Y-103980000D03*
X200660000Y-106480000D03*
X200660000Y-108980000D03*
X200660000Y-111480000D03*
X200660000Y-113980000D03*
X200660000Y-116480000D03*
D18*
X200660000Y-123190000D03*
D19*
X200660000Y-125690000D03*
X200660000Y-128190000D03*
X200660000Y-130690000D03*
X200660000Y-133190000D03*
X200660000Y-135690000D03*
X200660000Y-138190000D03*
X200660000Y-140690000D03*
X200660000Y-143190000D03*
X200660000Y-145690000D03*
D14*
X183515000Y-99695000D03*
D15*
X175895000Y-99695000D03*
D14*
X175895000Y-95250000D03*
D15*
X183515000Y-95250000D03*
D14*
X175895000Y-90805000D03*
D15*
X183515000Y-90805000D03*
D14*
X183515000Y-113665000D03*
D15*
X175895000Y-113665000D03*
D14*
X175895000Y-109220000D03*
D15*
X183515000Y-109220000D03*
D14*
X175895000Y-104775000D03*
D15*
X183515000Y-104775000D03*
D14*
X183515000Y-127635000D03*
D15*
X175895000Y-127635000D03*
D14*
X175895000Y-123190000D03*
D15*
X183515000Y-123190000D03*
D14*
X175895000Y-118745000D03*
D15*
X183515000Y-118745000D03*
D14*
X183515000Y-140970000D03*
D15*
X175895000Y-140970000D03*
D14*
X175895000Y-136525000D03*
D15*
X183515000Y-136525000D03*
D14*
X175895000Y-132080000D03*
D15*
X183515000Y-132080000D03*
D14*
X183515000Y-154940000D03*
D15*
X175895000Y-154940000D03*
D14*
X175895000Y-150495000D03*
D15*
X183515000Y-150495000D03*
D14*
X175895000Y-146050000D03*
D15*
X183515000Y-146050000D03*
D14*
X205105000Y-80645000D03*
D15*
X205105000Y-88265000D03*
D14*
X200660000Y-88265000D03*
D15*
X200660000Y-80645000D03*
D14*
X196215000Y-88265000D03*
D15*
X196215000Y-80645000D03*
D12*
X147320000Y-98425000D03*
X147320000Y-99695000D03*
D13*
X147320000Y-97155000D03*
D12*
X147320000Y-112395000D03*
X147320000Y-113665000D03*
D13*
X147320000Y-111125000D03*
D12*
X147320000Y-106045000D03*
X147320000Y-107315000D03*
D13*
X147320000Y-104775000D03*
D12*
X147320000Y-126365000D03*
X147320000Y-127635000D03*
D13*
X147320000Y-125095000D03*
D12*
X147320000Y-120015000D03*
X147320000Y-121285000D03*
D13*
X147320000Y-118745000D03*
D12*
X147320000Y-139700000D03*
X147320000Y-140970000D03*
D13*
X147320000Y-138430000D03*
D12*
X147320000Y-133350000D03*
X147320000Y-134620000D03*
D13*
X147320000Y-132080000D03*
D12*
X147320000Y-154305000D03*
X147320000Y-155575000D03*
D13*
X147320000Y-153035000D03*
D12*
X147320000Y-147320000D03*
X147320000Y-148590000D03*
D13*
X147320000Y-146050000D03*
D12*
X168275000Y-84455000D03*
X168275000Y-85725000D03*
D13*
X168275000Y-83185000D03*
D12*
X168275000Y-78105000D03*
X168275000Y-79375000D03*
D13*
X168275000Y-76835000D03*
D12*
X168275000Y-98425000D03*
X168275000Y-99695000D03*
D13*
X168275000Y-97155000D03*
D12*
X168275000Y-92075000D03*
X168275000Y-93345000D03*
D13*
X168275000Y-90805000D03*
D12*
X168910000Y-112395000D03*
X168910000Y-113665000D03*
D13*
X168910000Y-111125000D03*
D12*
X168910000Y-106045000D03*
X168910000Y-107315000D03*
D13*
X168910000Y-104775000D03*
D12*
X168910000Y-126365000D03*
X168910000Y-127635000D03*
D13*
X168910000Y-125095000D03*
D12*
X168910000Y-120015000D03*
X168910000Y-121285000D03*
D13*
X168910000Y-118745000D03*
D12*
X168275000Y-139700000D03*
X168275000Y-140970000D03*
D13*
X168275000Y-138430000D03*
D12*
X168275000Y-133350000D03*
X168275000Y-134620000D03*
D13*
X168275000Y-132080000D03*
D12*
X168275000Y-154305000D03*
X168275000Y-155575000D03*
D13*
X168275000Y-153035000D03*
D12*
X168275000Y-147320000D03*
X168275000Y-148590000D03*
D13*
X168275000Y-146050000D03*
D12*
X188595000Y-84455000D03*
X188595000Y-85725000D03*
D13*
X188595000Y-83185000D03*
D12*
X188595000Y-98425000D03*
X188595000Y-99695000D03*
D13*
X188595000Y-97155000D03*
D12*
X188595000Y-92075000D03*
X188595000Y-93345000D03*
D13*
X188595000Y-90805000D03*
D12*
X188595000Y-112395000D03*
X188595000Y-113665000D03*
D13*
X188595000Y-111125000D03*
D12*
X188595000Y-106045000D03*
X188595000Y-107315000D03*
D13*
X188595000Y-104775000D03*
D12*
X188595000Y-126365000D03*
X188595000Y-127635000D03*
D13*
X188595000Y-125095000D03*
D12*
X188595000Y-120015000D03*
X188595000Y-121285000D03*
D13*
X188595000Y-118745000D03*
D12*
X188595000Y-139700000D03*
X188595000Y-140970000D03*
D13*
X188595000Y-138430000D03*
D12*
X188595000Y-133350000D03*
X188595000Y-134620000D03*
D13*
X188595000Y-132080000D03*
D12*
X188595000Y-153670000D03*
X188595000Y-154940000D03*
D13*
X188595000Y-152400000D03*
D12*
X188595000Y-147320000D03*
X188595000Y-148590000D03*
D13*
X188595000Y-146050000D03*
D22*
X203835000Y-75565000D03*
X205105000Y-75565000D03*
D23*
X202565000Y-75565000D03*
D22*
X197485000Y-75565000D03*
X198755000Y-75565000D03*
D23*
X196215000Y-75565000D03*
D12*
X147320000Y-92075000D03*
X147320000Y-93345000D03*
D13*
X147320000Y-90805000D03*
D12*
X147320000Y-84455000D03*
X147320000Y-85725000D03*
D13*
X147320000Y-83185000D03*
D12*
X147320000Y-78105000D03*
X147320000Y-79375000D03*
D13*
X147320000Y-76835000D03*
D14*
X134620000Y-81280000D03*
D15*
X142240000Y-81280000D03*
D11*
X114935000Y-68580000D03*
M02*
