M48
;DRILL file {KiCad 4.0.7-e2-6376~61~ubuntu18.04.1} date Mon Sep  3 21:09:37 2018
;FORMAT={-:-/ absolute / inch / decimal}
FMAT,2
INCH,TZ
T1C0.016
T2C0.024
T3C0.031
T4C0.039
T5C0.126
%
G90
G05
M72
T1
X5.1894Y-5.065
T2
X5.8098Y-2.9758
X5.8098Y-3.0258
X5.8098Y-3.0758
X5.8098Y-3.2258
X5.8098Y-3.2758
X5.8098Y-3.3258
X5.8098Y-3.5356
X5.8098Y-3.5856
X5.8098Y-3.6356
X5.8098Y-3.7856
X5.8098Y-3.8356
X5.8098Y-3.8856
X5.8098Y-4.0955
X5.8098Y-4.1455
X5.8098Y-4.1955
X5.8098Y-4.3455
X5.8098Y-4.3955
X5.8098Y-4.4455
X5.8098Y-4.6553
X5.8098Y-4.7053
X5.8098Y-4.7553
X5.8098Y-4.9053
X5.8098Y-4.9553
X5.8098Y-5.0053
X5.8098Y-5.1902
X5.8098Y-5.2402
X5.8098Y-5.2902
X5.8098Y-5.4402
X5.8098Y-5.4902
X5.8098Y-5.5402
X5.8098Y-5.75
X5.8098Y-5.8
X5.8098Y-5.85
X5.8098Y-6.025
X5.8098Y-6.075
X5.8098Y-6.125
X6.5463Y-2.9659
X6.5463Y-3.0159
X6.5463Y-3.0659
X6.5463Y-3.2159
X6.5463Y-3.2659
X6.5463Y-3.3159
X6.5463Y-3.5258
X6.5463Y-3.5758
X6.5463Y-3.6258
X6.5463Y-3.7758
X6.5463Y-3.8258
X6.5463Y-3.8758
X6.5463Y-5.1803
X6.5463Y-5.2303
X6.5463Y-5.2803
X6.5463Y-5.4303
X6.5463Y-5.4803
X6.5463Y-5.5303
X6.5463Y-5.7402
X6.5463Y-5.7902
X6.5463Y-5.8402
X6.5463Y-6.0152
X6.5463Y-6.0652
X6.5463Y-6.1152
X6.5713Y-4.0955
X6.5713Y-4.1455
X6.5713Y-4.1955
X6.5713Y-4.3455
X6.5713Y-4.3955
X6.5713Y-4.4455
X6.5713Y-4.6553
X6.5713Y-4.7053
X6.5713Y-4.7553
X6.5713Y-4.9053
X6.5713Y-4.9553
X6.5713Y-5.0053
X7.2872Y-2.9758
X7.2872Y-3.0258
X7.2872Y-3.0758
X7.2872Y-3.2258
X7.2872Y-3.2758
X7.2872Y-3.3258
X7.2872Y-3.5356
X7.2872Y-3.5856
X7.2872Y-3.6356
X7.2872Y-3.7856
X7.2872Y-3.8356
X7.2872Y-3.8856
X7.2872Y-4.0955
X7.2872Y-4.1455
X7.2872Y-4.1955
X7.2872Y-4.3455
X7.2872Y-4.3955
X7.2872Y-4.4455
X7.2872Y-4.6553
X7.2872Y-4.7053
X7.2872Y-4.7553
X7.2872Y-4.9053
X7.2872Y-4.9553
X7.2872Y-5.0053
X7.2872Y-5.1902
X7.2872Y-5.2402
X7.2872Y-5.2902
X7.2872Y-5.4402
X7.2872Y-5.4902
X7.2872Y-5.5402
X7.2872Y-5.75
X7.2872Y-5.8
X7.2872Y-5.85
X7.2872Y-6.
X7.2872Y-6.05
X7.2872Y-6.1
T3
X4.525Y-4.025
X4.6234Y-4.025
X4.825Y-3.3
X4.825Y-3.475
X4.9766Y-4.025
X5.Y-3.6266
X5.Y-3.725
X5.075Y-4.025
X5.125Y-3.3
X5.125Y-3.475
X5.3098Y-2.9758
X5.3098Y-3.1508
X5.3098Y-3.3258
X5.3098Y-3.5356
X5.3098Y-3.7106
X5.3098Y-3.8856
X5.3098Y-4.0955
X5.3098Y-4.2705
X5.3098Y-4.4455
X5.3098Y-4.6553
X5.3098Y-4.8303
X5.3098Y-5.0053
X5.3098Y-5.1902
X5.3098Y-5.3652
X5.3098Y-5.5402
X5.3098Y-5.75
X5.3098Y-5.925
X5.3098Y-6.125
X5.6098Y-2.9758
X5.6098Y-3.1508
X5.6098Y-3.3258
X5.6098Y-3.5356
X5.6098Y-3.7106
X5.6098Y-3.8856
X5.6098Y-4.0955
X5.6098Y-4.2705
X5.6098Y-4.4455
X5.6098Y-4.6553
X5.6098Y-4.8303
X5.6098Y-5.0053
X5.6098Y-5.1902
X5.6098Y-5.3652
X5.6098Y-5.5402
X5.6098Y-5.75
X5.6098Y-5.925
X5.6098Y-6.125
X6.0463Y-2.9659
X6.0463Y-3.1409
X6.0463Y-3.3159
X6.0463Y-3.5258
X6.0463Y-3.7008
X6.0463Y-3.8758
X6.0463Y-4.0856
X6.0463Y-4.2606
X6.0463Y-4.4356
X6.0463Y-4.6455
X6.0463Y-4.8205
X6.0463Y-4.9955
X6.0463Y-5.1803
X6.0463Y-5.3553
X6.0463Y-5.5303
X6.0463Y-5.7402
X6.0463Y-5.9152
X6.0463Y-6.1152
X6.3463Y-2.9659
X6.3463Y-3.1409
X6.3463Y-3.3159
X6.3463Y-3.5258
X6.3463Y-3.7008
X6.3463Y-3.8758
X6.3463Y-4.0856
X6.3463Y-4.2606
X6.3463Y-4.4356
X6.3463Y-4.6455
X6.3463Y-4.8205
X6.3463Y-4.9955
X6.3463Y-5.1803
X6.3463Y-5.3553
X6.3463Y-5.5303
X6.3463Y-5.7402
X6.3463Y-5.9152
X6.3463Y-6.1152
X6.7872Y-2.9758
X6.7872Y-3.1508
X6.7872Y-3.3258
X6.7872Y-3.5356
X6.7872Y-3.7106
X6.7872Y-3.8856
X6.7872Y-4.0955
X6.7872Y-4.2705
X6.7872Y-4.4455
X6.7872Y-4.6553
X6.7872Y-4.8303
X6.7872Y-5.0053
X6.7872Y-5.1902
X6.7872Y-5.3652
X6.7872Y-5.5402
X6.7872Y-5.75
X6.7872Y-5.925
X6.7872Y-6.1
X7.0872Y-2.9758
X7.0872Y-3.1508
X7.0872Y-3.3258
X7.0872Y-3.5356
X7.0872Y-3.7106
X7.0872Y-3.8856
X7.0872Y-4.0955
X7.0872Y-4.2705
X7.0872Y-4.4455
X7.0872Y-4.6553
X7.0872Y-4.8303
X7.0872Y-5.0053
X7.0872Y-5.1902
X7.0872Y-5.3652
X7.0872Y-5.5402
X7.0872Y-5.75
X7.0872Y-5.925
X7.0872Y-6.1
T4
X4.5Y-4.325
X4.5Y-4.425
X4.5Y-4.525
X4.5Y-4.625
X4.5Y-4.725
X4.5Y-4.825
X4.5Y-4.925
X4.5Y-5.025
X4.5Y-5.125
X4.5Y-5.225
X4.5Y-5.325
X4.5Y-5.425
X4.5Y-5.525
X4.5Y-5.625
X4.5Y-5.725
X4.525Y-3.7
X4.55Y-3.3016
X4.55Y-3.4
X4.625Y-3.7
X4.725Y-3.7
X4.7638Y-2.815
X4.7638Y-2.9134
X4.7638Y-3.0118
X5.0886Y-2.815
X5.0886Y-2.9134
X5.0886Y-3.0118
X5.1Y-4.325
X5.1Y-4.425
X5.1Y-4.525
X5.1Y-4.625
X5.1Y-4.725
X5.1Y-4.825
X5.1Y-4.925
X5.1Y-5.025
X5.1Y-5.125
X5.1Y-5.225
X5.1Y-5.325
X5.1Y-5.425
X5.1Y-5.525
X5.1Y-5.625
X5.1Y-5.725
X7.6673Y-3.2185
X7.6673Y-3.3169
X7.6673Y-3.4154
X7.6673Y-3.5138
X7.6673Y-3.6122
X7.6673Y-3.7106
X7.6673Y-4.065
X7.6673Y-4.1634
X7.6673Y-4.2618
X7.6673Y-4.3602
X7.6673Y-4.4587
X7.6673Y-4.5571
X7.6673Y-4.9016
X7.6673Y-5.
X7.6673Y-5.0984
X7.6673Y-5.1969
X7.6673Y-5.2953
X7.6673Y-5.3937
T5
X4.5079Y-2.815
X4.5079Y-6.0433
X7.7362Y-2.815
X7.7362Y-6.0433
T0
M30
