G04 #@! TF.FileFunction,Legend,Top*
%FSLAX46Y46*%
G04 Gerber Fmt 4.6, Leading zero omitted, Abs format (unit mm)*
G04 Created by KiCad (PCBNEW 4.0.7-e2-6376~61~ubuntu18.04.1) date Mon Sep  3 21:09:47 2018*
%MOMM*%
%LPD*%
G01*
G04 APERTURE LIST*
%ADD10C,0.100000*%
%ADD11C,0.300000*%
%ADD12C,0.120000*%
%ADD13C,0.150000*%
G04 APERTURE END LIST*
D10*
D11*
X198714286Y-137928571D02*
X197857143Y-137928571D01*
X198285715Y-137928571D02*
X198285715Y-136428571D01*
X198142858Y-136642857D01*
X198000000Y-136785714D01*
X197857143Y-136857143D01*
X199571429Y-137071429D02*
X199428571Y-137000000D01*
X199357143Y-136928571D01*
X199285714Y-136785714D01*
X199285714Y-136714286D01*
X199357143Y-136571429D01*
X199428571Y-136500000D01*
X199571429Y-136428571D01*
X199857143Y-136428571D01*
X200000000Y-136500000D01*
X200071429Y-136571429D01*
X200142857Y-136714286D01*
X200142857Y-136785714D01*
X200071429Y-136928571D01*
X200000000Y-137000000D01*
X199857143Y-137071429D01*
X199571429Y-137071429D01*
X199428571Y-137142857D01*
X199357143Y-137214286D01*
X199285714Y-137357143D01*
X199285714Y-137642857D01*
X199357143Y-137785714D01*
X199428571Y-137857143D01*
X199571429Y-137928571D01*
X199857143Y-137928571D01*
X200000000Y-137857143D01*
X200071429Y-137785714D01*
X200142857Y-137642857D01*
X200142857Y-137357143D01*
X200071429Y-137214286D01*
X200000000Y-137142857D01*
X199857143Y-137071429D01*
X198704286Y-135358571D02*
X197847143Y-135358571D01*
X198275715Y-135358571D02*
X198275715Y-133858571D01*
X198132858Y-134072857D01*
X197990000Y-134215714D01*
X197847143Y-134287143D01*
X199204286Y-133858571D02*
X200204286Y-133858571D01*
X199561429Y-135358571D01*
X198704286Y-132818571D02*
X197847143Y-132818571D01*
X198275715Y-132818571D02*
X198275715Y-131318571D01*
X198132858Y-131532857D01*
X197990000Y-131675714D01*
X197847143Y-131747143D01*
X199990000Y-131318571D02*
X199704286Y-131318571D01*
X199561429Y-131390000D01*
X199490000Y-131461429D01*
X199347143Y-131675714D01*
X199275714Y-131961429D01*
X199275714Y-132532857D01*
X199347143Y-132675714D01*
X199418571Y-132747143D01*
X199561429Y-132818571D01*
X199847143Y-132818571D01*
X199990000Y-132747143D01*
X200061429Y-132675714D01*
X200132857Y-132532857D01*
X200132857Y-132175714D01*
X200061429Y-132032857D01*
X199990000Y-131961429D01*
X199847143Y-131890000D01*
X199561429Y-131890000D01*
X199418571Y-131961429D01*
X199347143Y-132032857D01*
X199275714Y-132175714D01*
X198704286Y-130278571D02*
X197847143Y-130278571D01*
X198275715Y-130278571D02*
X198275715Y-128778571D01*
X198132858Y-128992857D01*
X197990000Y-129135714D01*
X197847143Y-129207143D01*
X200061429Y-128778571D02*
X199347143Y-128778571D01*
X199275714Y-129492857D01*
X199347143Y-129421429D01*
X199490000Y-129350000D01*
X199847143Y-129350000D01*
X199990000Y-129421429D01*
X200061429Y-129492857D01*
X200132857Y-129635714D01*
X200132857Y-129992857D01*
X200061429Y-130135714D01*
X199990000Y-130207143D01*
X199847143Y-130278571D01*
X199490000Y-130278571D01*
X199347143Y-130207143D01*
X199275714Y-130135714D01*
X198704286Y-127738571D02*
X197847143Y-127738571D01*
X198275715Y-127738571D02*
X198275715Y-126238571D01*
X198132858Y-126452857D01*
X197990000Y-126595714D01*
X197847143Y-126667143D01*
X199990000Y-126738571D02*
X199990000Y-127738571D01*
X199632857Y-126167143D02*
X199275714Y-127238571D01*
X200204286Y-127238571D01*
X198704286Y-125198571D02*
X197847143Y-125198571D01*
X198275715Y-125198571D02*
X198275715Y-123698571D01*
X198132858Y-123912857D01*
X197990000Y-124055714D01*
X197847143Y-124127143D01*
X199204286Y-123698571D02*
X200132857Y-123698571D01*
X199632857Y-124270000D01*
X199847143Y-124270000D01*
X199990000Y-124341429D01*
X200061429Y-124412857D01*
X200132857Y-124555714D01*
X200132857Y-124912857D01*
X200061429Y-125055714D01*
X199990000Y-125127143D01*
X199847143Y-125198571D01*
X199418571Y-125198571D01*
X199275714Y-125127143D01*
X199204286Y-125055714D01*
X198714286Y-116428571D02*
X197857143Y-116428571D01*
X198285715Y-116428571D02*
X198285715Y-114928571D01*
X198142858Y-115142857D01*
X198000000Y-115285714D01*
X197857143Y-115357143D01*
X199285714Y-115071429D02*
X199357143Y-115000000D01*
X199500000Y-114928571D01*
X199857143Y-114928571D01*
X200000000Y-115000000D01*
X200071429Y-115071429D01*
X200142857Y-115214286D01*
X200142857Y-115357143D01*
X200071429Y-115571429D01*
X199214286Y-116428571D01*
X200142857Y-116428571D01*
X198704286Y-114118571D02*
X197847143Y-114118571D01*
X198275715Y-114118571D02*
X198275715Y-112618571D01*
X198132858Y-112832857D01*
X197990000Y-112975714D01*
X197847143Y-113047143D01*
X200132857Y-114118571D02*
X199275714Y-114118571D01*
X199704286Y-114118571D02*
X199704286Y-112618571D01*
X199561429Y-112832857D01*
X199418571Y-112975714D01*
X199275714Y-113047143D01*
X198704286Y-111633571D02*
X197847143Y-111633571D01*
X198275715Y-111633571D02*
X198275715Y-110133571D01*
X198132858Y-110347857D01*
X197990000Y-110490714D01*
X197847143Y-110562143D01*
X199632857Y-110133571D02*
X199775714Y-110133571D01*
X199918571Y-110205000D01*
X199990000Y-110276429D01*
X200061429Y-110419286D01*
X200132857Y-110705000D01*
X200132857Y-111062143D01*
X200061429Y-111347857D01*
X199990000Y-111490714D01*
X199918571Y-111562143D01*
X199775714Y-111633571D01*
X199632857Y-111633571D01*
X199490000Y-111562143D01*
X199418571Y-111490714D01*
X199347143Y-111347857D01*
X199275714Y-111062143D01*
X199275714Y-110705000D01*
X199347143Y-110419286D01*
X199418571Y-110276429D01*
X199490000Y-110205000D01*
X199632857Y-110133571D01*
X198704286Y-109093571D02*
X198990001Y-109093571D01*
X199132858Y-109022143D01*
X199204286Y-108950714D01*
X199347144Y-108736429D01*
X199418572Y-108450714D01*
X199418572Y-107879286D01*
X199347144Y-107736429D01*
X199275715Y-107665000D01*
X199132858Y-107593571D01*
X198847144Y-107593571D01*
X198704286Y-107665000D01*
X198632858Y-107736429D01*
X198561429Y-107879286D01*
X198561429Y-108236429D01*
X198632858Y-108379286D01*
X198704286Y-108450714D01*
X198847144Y-108522143D01*
X199132858Y-108522143D01*
X199275715Y-108450714D01*
X199347144Y-108379286D01*
X199418572Y-108236429D01*
X198847144Y-105696429D02*
X198704286Y-105625000D01*
X198632858Y-105553571D01*
X198561429Y-105410714D01*
X198561429Y-105339286D01*
X198632858Y-105196429D01*
X198704286Y-105125000D01*
X198847144Y-105053571D01*
X199132858Y-105053571D01*
X199275715Y-105125000D01*
X199347144Y-105196429D01*
X199418572Y-105339286D01*
X199418572Y-105410714D01*
X199347144Y-105553571D01*
X199275715Y-105625000D01*
X199132858Y-105696429D01*
X198847144Y-105696429D01*
X198704286Y-105767857D01*
X198632858Y-105839286D01*
X198561429Y-105982143D01*
X198561429Y-106267857D01*
X198632858Y-106410714D01*
X198704286Y-106482143D01*
X198847144Y-106553571D01*
X199132858Y-106553571D01*
X199275715Y-106482143D01*
X199347144Y-106410714D01*
X199418572Y-106267857D01*
X199418572Y-105982143D01*
X199347144Y-105839286D01*
X199275715Y-105767857D01*
X199132858Y-105696429D01*
X198490001Y-102513571D02*
X199490001Y-102513571D01*
X198847144Y-104013571D01*
X199285715Y-93428571D02*
X199000001Y-93428571D01*
X198857144Y-93500000D01*
X198785715Y-93571429D01*
X198642858Y-93785714D01*
X198571429Y-94071429D01*
X198571429Y-94642857D01*
X198642858Y-94785714D01*
X198714286Y-94857143D01*
X198857144Y-94928571D01*
X199142858Y-94928571D01*
X199285715Y-94857143D01*
X199357144Y-94785714D01*
X199428572Y-94642857D01*
X199428572Y-94285714D01*
X199357144Y-94142857D01*
X199285715Y-94071429D01*
X199142858Y-94000000D01*
X198857144Y-94000000D01*
X198714286Y-94071429D01*
X198642858Y-94142857D01*
X198571429Y-94285714D01*
X199357144Y-90928571D02*
X198642858Y-90928571D01*
X198571429Y-91642857D01*
X198642858Y-91571429D01*
X198785715Y-91500000D01*
X199142858Y-91500000D01*
X199285715Y-91571429D01*
X199357144Y-91642857D01*
X199428572Y-91785714D01*
X199428572Y-92142857D01*
X199357144Y-92285714D01*
X199285715Y-92357143D01*
X199142858Y-92428571D01*
X198785715Y-92428571D01*
X198642858Y-92357143D01*
X198571429Y-92285714D01*
X199285715Y-88928571D02*
X199285715Y-89928571D01*
X198928572Y-88357143D02*
X198571429Y-89428571D01*
X199500001Y-89428571D01*
X198500001Y-85928571D02*
X199428572Y-85928571D01*
X198928572Y-86500000D01*
X199142858Y-86500000D01*
X199285715Y-86571429D01*
X199357144Y-86642857D01*
X199428572Y-86785714D01*
X199428572Y-87142857D01*
X199357144Y-87285714D01*
X199285715Y-87357143D01*
X199142858Y-87428571D01*
X198714286Y-87428571D01*
X198571429Y-87357143D01*
X198500001Y-87285714D01*
X198571429Y-83571429D02*
X198642858Y-83500000D01*
X198785715Y-83428571D01*
X199142858Y-83428571D01*
X199285715Y-83500000D01*
X199357144Y-83571429D01*
X199428572Y-83714286D01*
X199428572Y-83857143D01*
X199357144Y-84071429D01*
X198500001Y-84928571D01*
X199428572Y-84928571D01*
X199428572Y-82428571D02*
X198571429Y-82428571D01*
X199000001Y-82428571D02*
X199000001Y-80928571D01*
X198857144Y-81142857D01*
X198714286Y-81285714D01*
X198571429Y-81357143D01*
X193714286Y-77607143D02*
X193928572Y-77678571D01*
X194285715Y-77678571D01*
X194428572Y-77607143D01*
X194500001Y-77535714D01*
X194571429Y-77392857D01*
X194571429Y-77250000D01*
X194500001Y-77107143D01*
X194428572Y-77035714D01*
X194285715Y-76964286D01*
X194000001Y-76892857D01*
X193857143Y-76821429D01*
X193785715Y-76750000D01*
X193714286Y-76607143D01*
X193714286Y-76464286D01*
X193785715Y-76321429D01*
X193857143Y-76250000D01*
X194000001Y-76178571D01*
X194357143Y-76178571D01*
X194571429Y-76250000D01*
X195000000Y-76678571D02*
X195571429Y-76678571D01*
X195214286Y-76178571D02*
X195214286Y-77464286D01*
X195285714Y-77607143D01*
X195428572Y-77678571D01*
X195571429Y-77678571D01*
X196642857Y-77607143D02*
X196500000Y-77678571D01*
X196214286Y-77678571D01*
X196071429Y-77607143D01*
X196000000Y-77464286D01*
X196000000Y-76892857D01*
X196071429Y-76750000D01*
X196214286Y-76678571D01*
X196500000Y-76678571D01*
X196642857Y-76750000D01*
X196714286Y-76892857D01*
X196714286Y-77035714D01*
X196000000Y-77178571D01*
X197357143Y-76678571D02*
X197357143Y-78178571D01*
X197357143Y-76750000D02*
X197500000Y-76678571D01*
X197785714Y-76678571D01*
X197928571Y-76750000D01*
X198000000Y-76821429D01*
X198071429Y-76964286D01*
X198071429Y-77392857D01*
X198000000Y-77535714D01*
X197928571Y-77607143D01*
X197785714Y-77678571D01*
X197500000Y-77678571D01*
X197357143Y-77607143D01*
X198714286Y-77535714D02*
X198785714Y-77607143D01*
X198714286Y-77678571D01*
X198642857Y-77607143D01*
X198714286Y-77535714D01*
X198714286Y-77678571D01*
X198714286Y-76750000D02*
X198785714Y-76821429D01*
X198714286Y-76892857D01*
X198642857Y-76821429D01*
X198714286Y-76750000D01*
X198714286Y-76892857D01*
D12*
X183245000Y-75055000D02*
X183245000Y-78655000D01*
X183256522Y-75016522D02*
G75*
G02X187695000Y-76855000I1838478J-1838478D01*
G01*
X183256522Y-78693478D02*
G75*
G03X187695000Y-76855000I1838478J1838478D01*
G01*
X141890000Y-85455000D02*
X141890000Y-85785000D01*
X141890000Y-85785000D02*
X135470000Y-85785000D01*
X135470000Y-85785000D02*
X135470000Y-85455000D01*
X141890000Y-83495000D02*
X141890000Y-83165000D01*
X141890000Y-83165000D02*
X135470000Y-83165000D01*
X135470000Y-83165000D02*
X135470000Y-83495000D01*
X135470000Y-74605000D02*
X135470000Y-74275000D01*
X135470000Y-74275000D02*
X141890000Y-74275000D01*
X141890000Y-74275000D02*
X141890000Y-74605000D01*
X135470000Y-76565000D02*
X135470000Y-76895000D01*
X135470000Y-76895000D02*
X141890000Y-76895000D01*
X141890000Y-76895000D02*
X141890000Y-76565000D01*
X135470000Y-93270000D02*
X135470000Y-92940000D01*
X135470000Y-92940000D02*
X141890000Y-92940000D01*
X141890000Y-92940000D02*
X141890000Y-93270000D01*
X135470000Y-95230000D02*
X135470000Y-95560000D01*
X135470000Y-95560000D02*
X141890000Y-95560000D01*
X141890000Y-95560000D02*
X141890000Y-95230000D01*
X135470000Y-88825000D02*
X135470000Y-88495000D01*
X135470000Y-88495000D02*
X141890000Y-88495000D01*
X141890000Y-88495000D02*
X141890000Y-88825000D01*
X135470000Y-90785000D02*
X135470000Y-91115000D01*
X135470000Y-91115000D02*
X141890000Y-91115000D01*
X141890000Y-91115000D02*
X141890000Y-90785000D01*
X135470000Y-107490000D02*
X135470000Y-107160000D01*
X135470000Y-107160000D02*
X141890000Y-107160000D01*
X141890000Y-107160000D02*
X141890000Y-107490000D01*
X135470000Y-109450000D02*
X135470000Y-109780000D01*
X135470000Y-109780000D02*
X141890000Y-109780000D01*
X141890000Y-109780000D02*
X141890000Y-109450000D01*
X135470000Y-103045000D02*
X135470000Y-102715000D01*
X135470000Y-102715000D02*
X141890000Y-102715000D01*
X141890000Y-102715000D02*
X141890000Y-103045000D01*
X135470000Y-105005000D02*
X135470000Y-105335000D01*
X135470000Y-105335000D02*
X141890000Y-105335000D01*
X141890000Y-105335000D02*
X141890000Y-105005000D01*
X135470000Y-121710000D02*
X135470000Y-121380000D01*
X135470000Y-121380000D02*
X141890000Y-121380000D01*
X141890000Y-121380000D02*
X141890000Y-121710000D01*
X135470000Y-123670000D02*
X135470000Y-124000000D01*
X135470000Y-124000000D02*
X141890000Y-124000000D01*
X141890000Y-124000000D02*
X141890000Y-123670000D01*
X135470000Y-117265000D02*
X135470000Y-116935000D01*
X135470000Y-116935000D02*
X141890000Y-116935000D01*
X141890000Y-116935000D02*
X141890000Y-117265000D01*
X135470000Y-119225000D02*
X135470000Y-119555000D01*
X135470000Y-119555000D02*
X141890000Y-119555000D01*
X141890000Y-119555000D02*
X141890000Y-119225000D01*
X160595000Y-99425000D02*
X160595000Y-99755000D01*
X160595000Y-99755000D02*
X154175000Y-99755000D01*
X154175000Y-99755000D02*
X154175000Y-99425000D01*
X160595000Y-97465000D02*
X160595000Y-97135000D01*
X160595000Y-97135000D02*
X154175000Y-97135000D01*
X154175000Y-97135000D02*
X154175000Y-97465000D01*
X154175000Y-93020000D02*
X154175000Y-92690000D01*
X154175000Y-92690000D02*
X160595000Y-92690000D01*
X160595000Y-92690000D02*
X160595000Y-93020000D01*
X154175000Y-94980000D02*
X154175000Y-95310000D01*
X154175000Y-95310000D02*
X160595000Y-95310000D01*
X160595000Y-95310000D02*
X160595000Y-94980000D01*
X154175000Y-88575000D02*
X154175000Y-88245000D01*
X154175000Y-88245000D02*
X160595000Y-88245000D01*
X160595000Y-88245000D02*
X160595000Y-88575000D01*
X154175000Y-90535000D02*
X154175000Y-90865000D01*
X154175000Y-90865000D02*
X160595000Y-90865000D01*
X160595000Y-90865000D02*
X160595000Y-90535000D01*
X160595000Y-113645000D02*
X160595000Y-113975000D01*
X160595000Y-113975000D02*
X154175000Y-113975000D01*
X154175000Y-113975000D02*
X154175000Y-113645000D01*
X160595000Y-111685000D02*
X160595000Y-111355000D01*
X160595000Y-111355000D02*
X154175000Y-111355000D01*
X154175000Y-111355000D02*
X154175000Y-111685000D01*
X154175000Y-107240000D02*
X154175000Y-106910000D01*
X154175000Y-106910000D02*
X160595000Y-106910000D01*
X160595000Y-106910000D02*
X160595000Y-107240000D01*
X154175000Y-109200000D02*
X154175000Y-109530000D01*
X154175000Y-109530000D02*
X160595000Y-109530000D01*
X160595000Y-109530000D02*
X160595000Y-109200000D01*
X154175000Y-102795000D02*
X154175000Y-102465000D01*
X154175000Y-102465000D02*
X160595000Y-102465000D01*
X160595000Y-102465000D02*
X160595000Y-102795000D01*
X154175000Y-104755000D02*
X154175000Y-105085000D01*
X154175000Y-105085000D02*
X160595000Y-105085000D01*
X160595000Y-105085000D02*
X160595000Y-104755000D01*
X160595000Y-127865000D02*
X160595000Y-128195000D01*
X160595000Y-128195000D02*
X154175000Y-128195000D01*
X154175000Y-128195000D02*
X154175000Y-127865000D01*
X160595000Y-125905000D02*
X160595000Y-125575000D01*
X160595000Y-125575000D02*
X154175000Y-125575000D01*
X154175000Y-125575000D02*
X154175000Y-125905000D01*
X154175000Y-121460000D02*
X154175000Y-121130000D01*
X154175000Y-121130000D02*
X160595000Y-121130000D01*
X160595000Y-121130000D02*
X160595000Y-121460000D01*
X154175000Y-123420000D02*
X154175000Y-123750000D01*
X154175000Y-123750000D02*
X160595000Y-123750000D01*
X160595000Y-123750000D02*
X160595000Y-123420000D01*
X154175000Y-117015000D02*
X154175000Y-116685000D01*
X154175000Y-116685000D02*
X160595000Y-116685000D01*
X160595000Y-116685000D02*
X160595000Y-117015000D01*
X154175000Y-118975000D02*
X154175000Y-119305000D01*
X154175000Y-119305000D02*
X160595000Y-119305000D01*
X160595000Y-119305000D02*
X160595000Y-118975000D01*
X160595000Y-141450000D02*
X160595000Y-141780000D01*
X160595000Y-141780000D02*
X154175000Y-141780000D01*
X154175000Y-141780000D02*
X154175000Y-141450000D01*
X160595000Y-139490000D02*
X160595000Y-139160000D01*
X160595000Y-139160000D02*
X154175000Y-139160000D01*
X154175000Y-139160000D02*
X154175000Y-139490000D01*
X154175000Y-130600000D02*
X154175000Y-130270000D01*
X154175000Y-130270000D02*
X160595000Y-130270000D01*
X160595000Y-130270000D02*
X160595000Y-130600000D01*
X154175000Y-132560000D02*
X154175000Y-132890000D01*
X154175000Y-132890000D02*
X160595000Y-132890000D01*
X160595000Y-132890000D02*
X160595000Y-132560000D01*
D13*
X111760000Y-107315000D02*
X132080000Y-107315000D01*
X132080000Y-107315000D02*
X132080000Y-147955000D01*
X132080000Y-147955000D02*
X113030000Y-147955000D01*
X113030000Y-147955000D02*
X111760000Y-147955000D01*
X111760000Y-147955000D02*
X111760000Y-108585000D01*
X111760000Y-108585000D02*
X111760000Y-107315000D01*
D12*
X135470000Y-97715000D02*
X135470000Y-97385000D01*
X135470000Y-97385000D02*
X141890000Y-97385000D01*
X141890000Y-97385000D02*
X141890000Y-97715000D01*
X135470000Y-99675000D02*
X135470000Y-100005000D01*
X135470000Y-100005000D02*
X141890000Y-100005000D01*
X141890000Y-100005000D02*
X141890000Y-99675000D01*
X141890000Y-113895000D02*
X141890000Y-114225000D01*
X141890000Y-114225000D02*
X135470000Y-114225000D01*
X135470000Y-114225000D02*
X135470000Y-113895000D01*
X141890000Y-111935000D02*
X141890000Y-111605000D01*
X141890000Y-111605000D02*
X135470000Y-111605000D01*
X135470000Y-111605000D02*
X135470000Y-111935000D01*
X141890000Y-128115000D02*
X141890000Y-128445000D01*
X141890000Y-128445000D02*
X135470000Y-128445000D01*
X135470000Y-128445000D02*
X135470000Y-128115000D01*
X141890000Y-126155000D02*
X141890000Y-125825000D01*
X141890000Y-125825000D02*
X135470000Y-125825000D01*
X135470000Y-125825000D02*
X135470000Y-126155000D01*
X141890000Y-141700000D02*
X141890000Y-142030000D01*
X141890000Y-142030000D02*
X135470000Y-142030000D01*
X135470000Y-142030000D02*
X135470000Y-141700000D01*
X141890000Y-139740000D02*
X141890000Y-139410000D01*
X141890000Y-139410000D02*
X135470000Y-139410000D01*
X135470000Y-139410000D02*
X135470000Y-139740000D01*
X135470000Y-135295000D02*
X135470000Y-134965000D01*
X135470000Y-134965000D02*
X141890000Y-134965000D01*
X141890000Y-134965000D02*
X141890000Y-135295000D01*
X135470000Y-137255000D02*
X135470000Y-137585000D01*
X135470000Y-137585000D02*
X141890000Y-137585000D01*
X141890000Y-137585000D02*
X141890000Y-137255000D01*
X135470000Y-130850000D02*
X135470000Y-130520000D01*
X135470000Y-130520000D02*
X141890000Y-130520000D01*
X141890000Y-130520000D02*
X141890000Y-130850000D01*
X135470000Y-132810000D02*
X135470000Y-133140000D01*
X135470000Y-133140000D02*
X141890000Y-133140000D01*
X141890000Y-133140000D02*
X141890000Y-132810000D01*
X141890000Y-156555000D02*
X141890000Y-156885000D01*
X141890000Y-156885000D02*
X135470000Y-156885000D01*
X135470000Y-156885000D02*
X135470000Y-156555000D01*
X141890000Y-154595000D02*
X141890000Y-154265000D01*
X141890000Y-154265000D02*
X135470000Y-154265000D01*
X135470000Y-154265000D02*
X135470000Y-154595000D01*
X135470000Y-149515000D02*
X135470000Y-149185000D01*
X135470000Y-149185000D02*
X141890000Y-149185000D01*
X141890000Y-149185000D02*
X141890000Y-149515000D01*
X135470000Y-151475000D02*
X135470000Y-151805000D01*
X135470000Y-151805000D02*
X141890000Y-151805000D01*
X141890000Y-151805000D02*
X141890000Y-151475000D01*
X135470000Y-145070000D02*
X135470000Y-144740000D01*
X135470000Y-144740000D02*
X141890000Y-144740000D01*
X141890000Y-144740000D02*
X141890000Y-145070000D01*
X135470000Y-147030000D02*
X135470000Y-147360000D01*
X135470000Y-147360000D02*
X141890000Y-147360000D01*
X141890000Y-147360000D02*
X141890000Y-147030000D01*
X160595000Y-85205000D02*
X160595000Y-85535000D01*
X160595000Y-85535000D02*
X154175000Y-85535000D01*
X154175000Y-85535000D02*
X154175000Y-85205000D01*
X160595000Y-83245000D02*
X160595000Y-82915000D01*
X160595000Y-82915000D02*
X154175000Y-82915000D01*
X154175000Y-82915000D02*
X154175000Y-83245000D01*
X154175000Y-78800000D02*
X154175000Y-78470000D01*
X154175000Y-78470000D02*
X160595000Y-78470000D01*
X160595000Y-78470000D02*
X160595000Y-78800000D01*
X154175000Y-80760000D02*
X154175000Y-81090000D01*
X154175000Y-81090000D02*
X160595000Y-81090000D01*
X160595000Y-81090000D02*
X160595000Y-80760000D01*
X154175000Y-74355000D02*
X154175000Y-74025000D01*
X154175000Y-74025000D02*
X160595000Y-74025000D01*
X160595000Y-74025000D02*
X160595000Y-74355000D01*
X154175000Y-76315000D02*
X154175000Y-76645000D01*
X154175000Y-76645000D02*
X160595000Y-76645000D01*
X160595000Y-76645000D02*
X160595000Y-76315000D01*
X154175000Y-135045000D02*
X154175000Y-134715000D01*
X154175000Y-134715000D02*
X160595000Y-134715000D01*
X160595000Y-134715000D02*
X160595000Y-135045000D01*
X154175000Y-137005000D02*
X154175000Y-137335000D01*
X154175000Y-137335000D02*
X160595000Y-137335000D01*
X160595000Y-137335000D02*
X160595000Y-137005000D01*
X160595000Y-156305000D02*
X160595000Y-156635000D01*
X160595000Y-156635000D02*
X154175000Y-156635000D01*
X154175000Y-156635000D02*
X154175000Y-156305000D01*
X160595000Y-154345000D02*
X160595000Y-154015000D01*
X160595000Y-154015000D02*
X154175000Y-154015000D01*
X154175000Y-154015000D02*
X154175000Y-154345000D01*
X154175000Y-149265000D02*
X154175000Y-148935000D01*
X154175000Y-148935000D02*
X160595000Y-148935000D01*
X160595000Y-148935000D02*
X160595000Y-149265000D01*
X154175000Y-151225000D02*
X154175000Y-151555000D01*
X154175000Y-151555000D02*
X160595000Y-151555000D01*
X160595000Y-151555000D02*
X160595000Y-151225000D01*
X154175000Y-144820000D02*
X154175000Y-144490000D01*
X154175000Y-144490000D02*
X160595000Y-144490000D01*
X160595000Y-144490000D02*
X160595000Y-144820000D01*
X154175000Y-146780000D02*
X154175000Y-147110000D01*
X154175000Y-147110000D02*
X160595000Y-147110000D01*
X160595000Y-147110000D02*
X160595000Y-146780000D01*
X179415000Y-85455000D02*
X179415000Y-85785000D01*
X179415000Y-85785000D02*
X172995000Y-85785000D01*
X172995000Y-85785000D02*
X172995000Y-85455000D01*
X179415000Y-83495000D02*
X179415000Y-83165000D01*
X179415000Y-83165000D02*
X172995000Y-83165000D01*
X172995000Y-83165000D02*
X172995000Y-83495000D01*
X172995000Y-79050000D02*
X172995000Y-78720000D01*
X172995000Y-78720000D02*
X179415000Y-78720000D01*
X179415000Y-78720000D02*
X179415000Y-79050000D01*
X172995000Y-81010000D02*
X172995000Y-81340000D01*
X172995000Y-81340000D02*
X179415000Y-81340000D01*
X179415000Y-81340000D02*
X179415000Y-81010000D01*
X172995000Y-74605000D02*
X172995000Y-74275000D01*
X172995000Y-74275000D02*
X179415000Y-74275000D01*
X179415000Y-74275000D02*
X179415000Y-74605000D01*
X172995000Y-76565000D02*
X172995000Y-76895000D01*
X172995000Y-76895000D02*
X179415000Y-76895000D01*
X179415000Y-76895000D02*
X179415000Y-76565000D01*
X120025000Y-102235000D02*
G75*
G03X120025000Y-102235000I-3840000J0D01*
G01*
X116185000Y-98435000D02*
X116185000Y-106035000D01*
X116225000Y-98435000D02*
X116225000Y-106035000D01*
X116265000Y-98435000D02*
X116265000Y-106035000D01*
X116305000Y-98436000D02*
X116305000Y-106034000D01*
X116345000Y-98438000D02*
X116345000Y-106032000D01*
X116385000Y-98440000D02*
X116385000Y-106030000D01*
X116425000Y-98442000D02*
X116425000Y-106028000D01*
X116465000Y-98445000D02*
X116465000Y-101255000D01*
X116465000Y-103215000D02*
X116465000Y-106025000D01*
X116505000Y-98448000D02*
X116505000Y-101255000D01*
X116505000Y-103215000D02*
X116505000Y-106022000D01*
X116545000Y-98451000D02*
X116545000Y-101255000D01*
X116545000Y-103215000D02*
X116545000Y-106019000D01*
X116585000Y-98455000D02*
X116585000Y-101255000D01*
X116585000Y-103215000D02*
X116585000Y-106015000D01*
X116625000Y-98460000D02*
X116625000Y-101255000D01*
X116625000Y-103215000D02*
X116625000Y-106010000D01*
X116665000Y-98465000D02*
X116665000Y-101255000D01*
X116665000Y-103215000D02*
X116665000Y-106005000D01*
X116705000Y-98470000D02*
X116705000Y-101255000D01*
X116705000Y-103215000D02*
X116705000Y-106000000D01*
X116745000Y-98476000D02*
X116745000Y-101255000D01*
X116745000Y-103215000D02*
X116745000Y-105994000D01*
X116785000Y-98482000D02*
X116785000Y-101255000D01*
X116785000Y-103215000D02*
X116785000Y-105988000D01*
X116825000Y-98488000D02*
X116825000Y-101255000D01*
X116825000Y-103215000D02*
X116825000Y-105982000D01*
X116865000Y-98495000D02*
X116865000Y-101255000D01*
X116865000Y-103215000D02*
X116865000Y-105975000D01*
X116906000Y-98503000D02*
X116906000Y-101255000D01*
X116906000Y-103215000D02*
X116906000Y-105967000D01*
X116946000Y-98510000D02*
X116946000Y-101255000D01*
X116946000Y-103215000D02*
X116946000Y-105960000D01*
X116986000Y-98519000D02*
X116986000Y-101255000D01*
X116986000Y-103215000D02*
X116986000Y-105951000D01*
X117026000Y-98528000D02*
X117026000Y-101255000D01*
X117026000Y-103215000D02*
X117026000Y-105942000D01*
X117066000Y-98537000D02*
X117066000Y-101255000D01*
X117066000Y-103215000D02*
X117066000Y-105933000D01*
X117106000Y-98546000D02*
X117106000Y-101255000D01*
X117106000Y-103215000D02*
X117106000Y-105924000D01*
X117146000Y-98556000D02*
X117146000Y-101255000D01*
X117146000Y-103215000D02*
X117146000Y-105914000D01*
X117186000Y-98567000D02*
X117186000Y-101255000D01*
X117186000Y-103215000D02*
X117186000Y-105903000D01*
X117226000Y-98578000D02*
X117226000Y-101255000D01*
X117226000Y-103215000D02*
X117226000Y-105892000D01*
X117266000Y-98590000D02*
X117266000Y-101255000D01*
X117266000Y-103215000D02*
X117266000Y-105880000D01*
X117306000Y-98601000D02*
X117306000Y-101255000D01*
X117306000Y-103215000D02*
X117306000Y-105869000D01*
X117346000Y-98614000D02*
X117346000Y-101255000D01*
X117346000Y-103215000D02*
X117346000Y-105856000D01*
X117386000Y-98627000D02*
X117386000Y-101255000D01*
X117386000Y-103215000D02*
X117386000Y-105843000D01*
X117426000Y-98640000D02*
X117426000Y-101255000D01*
X117426000Y-103215000D02*
X117426000Y-105830000D01*
X117466000Y-98654000D02*
X117466000Y-101255000D01*
X117466000Y-103215000D02*
X117466000Y-105816000D01*
X117506000Y-98669000D02*
X117506000Y-101255000D01*
X117506000Y-103215000D02*
X117506000Y-105801000D01*
X117546000Y-98683000D02*
X117546000Y-101255000D01*
X117546000Y-103215000D02*
X117546000Y-105787000D01*
X117586000Y-98699000D02*
X117586000Y-101255000D01*
X117586000Y-103215000D02*
X117586000Y-105771000D01*
X117626000Y-98715000D02*
X117626000Y-101255000D01*
X117626000Y-103215000D02*
X117626000Y-105755000D01*
X117666000Y-98731000D02*
X117666000Y-101255000D01*
X117666000Y-103215000D02*
X117666000Y-105739000D01*
X117706000Y-98748000D02*
X117706000Y-101255000D01*
X117706000Y-103215000D02*
X117706000Y-105722000D01*
X117746000Y-98766000D02*
X117746000Y-101255000D01*
X117746000Y-103215000D02*
X117746000Y-105704000D01*
X117786000Y-98784000D02*
X117786000Y-101255000D01*
X117786000Y-103215000D02*
X117786000Y-105686000D01*
X117826000Y-98802000D02*
X117826000Y-101255000D01*
X117826000Y-103215000D02*
X117826000Y-105668000D01*
X117866000Y-98822000D02*
X117866000Y-101255000D01*
X117866000Y-103215000D02*
X117866000Y-105648000D01*
X117906000Y-98841000D02*
X117906000Y-101255000D01*
X117906000Y-103215000D02*
X117906000Y-105629000D01*
X117946000Y-98862000D02*
X117946000Y-101255000D01*
X117946000Y-103215000D02*
X117946000Y-105608000D01*
X117986000Y-98883000D02*
X117986000Y-101255000D01*
X117986000Y-103215000D02*
X117986000Y-105587000D01*
X118026000Y-98904000D02*
X118026000Y-101255000D01*
X118026000Y-103215000D02*
X118026000Y-105566000D01*
X118066000Y-98926000D02*
X118066000Y-101255000D01*
X118066000Y-103215000D02*
X118066000Y-105544000D01*
X118106000Y-98949000D02*
X118106000Y-101255000D01*
X118106000Y-103215000D02*
X118106000Y-105521000D01*
X118146000Y-98972000D02*
X118146000Y-101255000D01*
X118146000Y-103215000D02*
X118146000Y-105498000D01*
X118186000Y-98996000D02*
X118186000Y-101255000D01*
X118186000Y-103215000D02*
X118186000Y-105474000D01*
X118226000Y-99021000D02*
X118226000Y-101255000D01*
X118226000Y-103215000D02*
X118226000Y-105449000D01*
X118266000Y-99047000D02*
X118266000Y-101255000D01*
X118266000Y-103215000D02*
X118266000Y-105423000D01*
X118306000Y-99073000D02*
X118306000Y-101255000D01*
X118306000Y-103215000D02*
X118306000Y-105397000D01*
X118346000Y-99100000D02*
X118346000Y-101255000D01*
X118346000Y-103215000D02*
X118346000Y-105370000D01*
X118386000Y-99127000D02*
X118386000Y-101255000D01*
X118386000Y-103215000D02*
X118386000Y-105343000D01*
X118426000Y-99156000D02*
X118426000Y-105314000D01*
X118466000Y-99185000D02*
X118466000Y-105285000D01*
X118506000Y-99215000D02*
X118506000Y-105255000D01*
X118546000Y-99245000D02*
X118546000Y-105225000D01*
X118586000Y-99277000D02*
X118586000Y-105193000D01*
X118626000Y-99309000D02*
X118626000Y-105161000D01*
X118666000Y-99343000D02*
X118666000Y-105127000D01*
X118706000Y-99377000D02*
X118706000Y-105093000D01*
X118746000Y-99412000D02*
X118746000Y-105058000D01*
X118786000Y-99449000D02*
X118786000Y-105021000D01*
X118826000Y-99486000D02*
X118826000Y-104984000D01*
X118866000Y-99524000D02*
X118866000Y-104946000D01*
X118906000Y-99564000D02*
X118906000Y-104906000D01*
X118946000Y-99605000D02*
X118946000Y-104865000D01*
X118986000Y-99647000D02*
X118986000Y-104823000D01*
X119026000Y-99690000D02*
X119026000Y-104780000D01*
X119066000Y-99735000D02*
X119066000Y-104735000D01*
X119106000Y-99781000D02*
X119106000Y-104689000D01*
X119146000Y-99828000D02*
X119146000Y-104642000D01*
X119186000Y-99878000D02*
X119186000Y-104592000D01*
X119226000Y-99928000D02*
X119226000Y-104542000D01*
X119266000Y-99981000D02*
X119266000Y-104489000D01*
X119306000Y-100036000D02*
X119306000Y-104434000D01*
X119346000Y-100093000D02*
X119346000Y-104377000D01*
X119386000Y-100152000D02*
X119386000Y-104318000D01*
X119426000Y-100213000D02*
X119426000Y-104257000D01*
X119466000Y-100278000D02*
X119466000Y-104192000D01*
X119506000Y-100345000D02*
X119506000Y-104125000D01*
X119546000Y-100415000D02*
X119546000Y-104055000D01*
X119586000Y-100490000D02*
X119586000Y-103980000D01*
X119626000Y-100568000D02*
X119626000Y-103902000D01*
X119666000Y-100651000D02*
X119666000Y-103819000D01*
X119706000Y-100740000D02*
X119706000Y-103730000D01*
X119746000Y-100835000D02*
X119746000Y-103635000D01*
X119786000Y-100938000D02*
X119786000Y-103532000D01*
X119826000Y-101051000D02*
X119826000Y-103419000D01*
X119866000Y-101178000D02*
X119866000Y-103292000D01*
X119906000Y-101322000D02*
X119906000Y-103148000D01*
X119946000Y-101495000D02*
X119946000Y-102975000D01*
X119986000Y-101722000D02*
X119986000Y-102748000D01*
X112735000Y-102235000D02*
X113935000Y-102235000D01*
X113335000Y-101585000D02*
X113335000Y-102885000D01*
X131495000Y-102235000D02*
G75*
G03X131495000Y-102235000I-3840000J0D01*
G01*
X127655000Y-106035000D02*
X127655000Y-98435000D01*
X127615000Y-106035000D02*
X127615000Y-98435000D01*
X127575000Y-106035000D02*
X127575000Y-98435000D01*
X127535000Y-106034000D02*
X127535000Y-98436000D01*
X127495000Y-106032000D02*
X127495000Y-98438000D01*
X127455000Y-106030000D02*
X127455000Y-98440000D01*
X127415000Y-106028000D02*
X127415000Y-98442000D01*
X127375000Y-106025000D02*
X127375000Y-103215000D01*
X127375000Y-101255000D02*
X127375000Y-98445000D01*
X127335000Y-106022000D02*
X127335000Y-103215000D01*
X127335000Y-101255000D02*
X127335000Y-98448000D01*
X127295000Y-106019000D02*
X127295000Y-103215000D01*
X127295000Y-101255000D02*
X127295000Y-98451000D01*
X127255000Y-106015000D02*
X127255000Y-103215000D01*
X127255000Y-101255000D02*
X127255000Y-98455000D01*
X127215000Y-106010000D02*
X127215000Y-103215000D01*
X127215000Y-101255000D02*
X127215000Y-98460000D01*
X127175000Y-106005000D02*
X127175000Y-103215000D01*
X127175000Y-101255000D02*
X127175000Y-98465000D01*
X127135000Y-106000000D02*
X127135000Y-103215000D01*
X127135000Y-101255000D02*
X127135000Y-98470000D01*
X127095000Y-105994000D02*
X127095000Y-103215000D01*
X127095000Y-101255000D02*
X127095000Y-98476000D01*
X127055000Y-105988000D02*
X127055000Y-103215000D01*
X127055000Y-101255000D02*
X127055000Y-98482000D01*
X127015000Y-105982000D02*
X127015000Y-103215000D01*
X127015000Y-101255000D02*
X127015000Y-98488000D01*
X126975000Y-105975000D02*
X126975000Y-103215000D01*
X126975000Y-101255000D02*
X126975000Y-98495000D01*
X126934000Y-105967000D02*
X126934000Y-103215000D01*
X126934000Y-101255000D02*
X126934000Y-98503000D01*
X126894000Y-105960000D02*
X126894000Y-103215000D01*
X126894000Y-101255000D02*
X126894000Y-98510000D01*
X126854000Y-105951000D02*
X126854000Y-103215000D01*
X126854000Y-101255000D02*
X126854000Y-98519000D01*
X126814000Y-105942000D02*
X126814000Y-103215000D01*
X126814000Y-101255000D02*
X126814000Y-98528000D01*
X126774000Y-105933000D02*
X126774000Y-103215000D01*
X126774000Y-101255000D02*
X126774000Y-98537000D01*
X126734000Y-105924000D02*
X126734000Y-103215000D01*
X126734000Y-101255000D02*
X126734000Y-98546000D01*
X126694000Y-105914000D02*
X126694000Y-103215000D01*
X126694000Y-101255000D02*
X126694000Y-98556000D01*
X126654000Y-105903000D02*
X126654000Y-103215000D01*
X126654000Y-101255000D02*
X126654000Y-98567000D01*
X126614000Y-105892000D02*
X126614000Y-103215000D01*
X126614000Y-101255000D02*
X126614000Y-98578000D01*
X126574000Y-105880000D02*
X126574000Y-103215000D01*
X126574000Y-101255000D02*
X126574000Y-98590000D01*
X126534000Y-105869000D02*
X126534000Y-103215000D01*
X126534000Y-101255000D02*
X126534000Y-98601000D01*
X126494000Y-105856000D02*
X126494000Y-103215000D01*
X126494000Y-101255000D02*
X126494000Y-98614000D01*
X126454000Y-105843000D02*
X126454000Y-103215000D01*
X126454000Y-101255000D02*
X126454000Y-98627000D01*
X126414000Y-105830000D02*
X126414000Y-103215000D01*
X126414000Y-101255000D02*
X126414000Y-98640000D01*
X126374000Y-105816000D02*
X126374000Y-103215000D01*
X126374000Y-101255000D02*
X126374000Y-98654000D01*
X126334000Y-105801000D02*
X126334000Y-103215000D01*
X126334000Y-101255000D02*
X126334000Y-98669000D01*
X126294000Y-105787000D02*
X126294000Y-103215000D01*
X126294000Y-101255000D02*
X126294000Y-98683000D01*
X126254000Y-105771000D02*
X126254000Y-103215000D01*
X126254000Y-101255000D02*
X126254000Y-98699000D01*
X126214000Y-105755000D02*
X126214000Y-103215000D01*
X126214000Y-101255000D02*
X126214000Y-98715000D01*
X126174000Y-105739000D02*
X126174000Y-103215000D01*
X126174000Y-101255000D02*
X126174000Y-98731000D01*
X126134000Y-105722000D02*
X126134000Y-103215000D01*
X126134000Y-101255000D02*
X126134000Y-98748000D01*
X126094000Y-105704000D02*
X126094000Y-103215000D01*
X126094000Y-101255000D02*
X126094000Y-98766000D01*
X126054000Y-105686000D02*
X126054000Y-103215000D01*
X126054000Y-101255000D02*
X126054000Y-98784000D01*
X126014000Y-105668000D02*
X126014000Y-103215000D01*
X126014000Y-101255000D02*
X126014000Y-98802000D01*
X125974000Y-105648000D02*
X125974000Y-103215000D01*
X125974000Y-101255000D02*
X125974000Y-98822000D01*
X125934000Y-105629000D02*
X125934000Y-103215000D01*
X125934000Y-101255000D02*
X125934000Y-98841000D01*
X125894000Y-105608000D02*
X125894000Y-103215000D01*
X125894000Y-101255000D02*
X125894000Y-98862000D01*
X125854000Y-105587000D02*
X125854000Y-103215000D01*
X125854000Y-101255000D02*
X125854000Y-98883000D01*
X125814000Y-105566000D02*
X125814000Y-103215000D01*
X125814000Y-101255000D02*
X125814000Y-98904000D01*
X125774000Y-105544000D02*
X125774000Y-103215000D01*
X125774000Y-101255000D02*
X125774000Y-98926000D01*
X125734000Y-105521000D02*
X125734000Y-103215000D01*
X125734000Y-101255000D02*
X125734000Y-98949000D01*
X125694000Y-105498000D02*
X125694000Y-103215000D01*
X125694000Y-101255000D02*
X125694000Y-98972000D01*
X125654000Y-105474000D02*
X125654000Y-103215000D01*
X125654000Y-101255000D02*
X125654000Y-98996000D01*
X125614000Y-105449000D02*
X125614000Y-103215000D01*
X125614000Y-101255000D02*
X125614000Y-99021000D01*
X125574000Y-105423000D02*
X125574000Y-103215000D01*
X125574000Y-101255000D02*
X125574000Y-99047000D01*
X125534000Y-105397000D02*
X125534000Y-103215000D01*
X125534000Y-101255000D02*
X125534000Y-99073000D01*
X125494000Y-105370000D02*
X125494000Y-103215000D01*
X125494000Y-101255000D02*
X125494000Y-99100000D01*
X125454000Y-105343000D02*
X125454000Y-103215000D01*
X125454000Y-101255000D02*
X125454000Y-99127000D01*
X125414000Y-105314000D02*
X125414000Y-99156000D01*
X125374000Y-105285000D02*
X125374000Y-99185000D01*
X125334000Y-105255000D02*
X125334000Y-99215000D01*
X125294000Y-105225000D02*
X125294000Y-99245000D01*
X125254000Y-105193000D02*
X125254000Y-99277000D01*
X125214000Y-105161000D02*
X125214000Y-99309000D01*
X125174000Y-105127000D02*
X125174000Y-99343000D01*
X125134000Y-105093000D02*
X125134000Y-99377000D01*
X125094000Y-105058000D02*
X125094000Y-99412000D01*
X125054000Y-105021000D02*
X125054000Y-99449000D01*
X125014000Y-104984000D02*
X125014000Y-99486000D01*
X124974000Y-104946000D02*
X124974000Y-99524000D01*
X124934000Y-104906000D02*
X124934000Y-99564000D01*
X124894000Y-104865000D02*
X124894000Y-99605000D01*
X124854000Y-104823000D02*
X124854000Y-99647000D01*
X124814000Y-104780000D02*
X124814000Y-99690000D01*
X124774000Y-104735000D02*
X124774000Y-99735000D01*
X124734000Y-104689000D02*
X124734000Y-99781000D01*
X124694000Y-104642000D02*
X124694000Y-99828000D01*
X124654000Y-104592000D02*
X124654000Y-99878000D01*
X124614000Y-104542000D02*
X124614000Y-99928000D01*
X124574000Y-104489000D02*
X124574000Y-99981000D01*
X124534000Y-104434000D02*
X124534000Y-100036000D01*
X124494000Y-104377000D02*
X124494000Y-100093000D01*
X124454000Y-104318000D02*
X124454000Y-100152000D01*
X124414000Y-104257000D02*
X124414000Y-100213000D01*
X124374000Y-104192000D02*
X124374000Y-100278000D01*
X124334000Y-104125000D02*
X124334000Y-100345000D01*
X124294000Y-104055000D02*
X124294000Y-100415000D01*
X124254000Y-103980000D02*
X124254000Y-100490000D01*
X124214000Y-103902000D02*
X124214000Y-100568000D01*
X124174000Y-103819000D02*
X124174000Y-100651000D01*
X124134000Y-103730000D02*
X124134000Y-100740000D01*
X124094000Y-103635000D02*
X124094000Y-100835000D01*
X124054000Y-103532000D02*
X124054000Y-100938000D01*
X124014000Y-103419000D02*
X124014000Y-101051000D01*
X123974000Y-103292000D02*
X123974000Y-101178000D01*
X123934000Y-103148000D02*
X123934000Y-101322000D01*
X123894000Y-102975000D02*
X123894000Y-101495000D01*
X123854000Y-102748000D02*
X123854000Y-101722000D01*
X131105000Y-102235000D02*
X129905000Y-102235000D01*
X130505000Y-102885000D02*
X130505000Y-101585000D01*
X125640000Y-95325000D02*
X125640000Y-91405000D01*
X128360000Y-95325000D02*
X128360000Y-91405000D01*
X125640000Y-95325000D02*
X126250000Y-95325000D01*
X127750000Y-95325000D02*
X128360000Y-95325000D01*
X125640000Y-91405000D02*
X126250000Y-91405000D01*
X127750000Y-91405000D02*
X128360000Y-91405000D01*
X113120000Y-88910000D02*
X119070000Y-88910000D01*
X119070000Y-88910000D02*
X119070000Y-81310000D01*
X119070000Y-81310000D02*
X113120000Y-81310000D01*
X113120000Y-81310000D02*
X113120000Y-88910000D01*
X113120000Y-85610000D02*
X113870000Y-85610000D01*
X113870000Y-85610000D02*
X113870000Y-84610000D01*
X113870000Y-84610000D02*
X113120000Y-84610000D01*
X113120000Y-84610000D02*
X113120000Y-85610000D01*
X113120000Y-88910000D02*
X113870000Y-88910000D01*
X113870000Y-88910000D02*
X113870000Y-87110000D01*
X113870000Y-87110000D02*
X113120000Y-87110000D01*
X113120000Y-87110000D02*
X113120000Y-88910000D01*
X113120000Y-83110000D02*
X113870000Y-83110000D01*
X113870000Y-83110000D02*
X113870000Y-81310000D01*
X113870000Y-81310000D02*
X113120000Y-81310000D01*
X113120000Y-81310000D02*
X113120000Y-83110000D01*
X115370000Y-88910000D02*
X115370000Y-88160000D01*
X115370000Y-88160000D02*
X118320000Y-88160000D01*
X118320000Y-88160000D02*
X118320000Y-85110000D01*
X115370000Y-81310000D02*
X115370000Y-82060000D01*
X115370000Y-82060000D02*
X118320000Y-82060000D01*
X118320000Y-82060000D02*
X118320000Y-85110000D01*
X112820000Y-86710000D02*
X112820000Y-89210000D01*
X112820000Y-89210000D02*
X115320000Y-89210000D01*
X112355000Y-91360000D02*
X122595000Y-91360000D01*
X112355000Y-96001000D02*
X122595000Y-96001000D01*
X112355000Y-91360000D02*
X112355000Y-96001000D01*
X122595000Y-91360000D02*
X122595000Y-96001000D01*
X112355000Y-92870000D02*
X122595000Y-92870000D01*
X115625000Y-91360000D02*
X115625000Y-92870000D01*
X119326000Y-91360000D02*
X119326000Y-92870000D01*
X118550000Y-79050000D02*
X124500000Y-79050000D01*
X124500000Y-79050000D02*
X124500000Y-68950000D01*
X124500000Y-68950000D02*
X118550000Y-68950000D01*
X118550000Y-68950000D02*
X118550000Y-79050000D01*
X118550000Y-75750000D02*
X119300000Y-75750000D01*
X119300000Y-75750000D02*
X119300000Y-72250000D01*
X119300000Y-72250000D02*
X118550000Y-72250000D01*
X118550000Y-72250000D02*
X118550000Y-75750000D01*
X118550000Y-79050000D02*
X119300000Y-79050000D01*
X119300000Y-79050000D02*
X119300000Y-77250000D01*
X119300000Y-77250000D02*
X118550000Y-77250000D01*
X118550000Y-77250000D02*
X118550000Y-79050000D01*
X118550000Y-70750000D02*
X119300000Y-70750000D01*
X119300000Y-70750000D02*
X119300000Y-68950000D01*
X119300000Y-68950000D02*
X118550000Y-68950000D01*
X118550000Y-68950000D02*
X118550000Y-70750000D01*
X120800000Y-79050000D02*
X120800000Y-78300000D01*
X120800000Y-78300000D02*
X123750000Y-78300000D01*
X123750000Y-78300000D02*
X123750000Y-74000000D01*
X120800000Y-68950000D02*
X120800000Y-69700000D01*
X120800000Y-69700000D02*
X123750000Y-69700000D01*
X123750000Y-69700000D02*
X123750000Y-74000000D01*
X118250000Y-76850000D02*
X118250000Y-79350000D01*
X118250000Y-79350000D02*
X120750000Y-79350000D01*
X126800000Y-79050000D02*
X132750000Y-79050000D01*
X132750000Y-79050000D02*
X132750000Y-68950000D01*
X132750000Y-68950000D02*
X126800000Y-68950000D01*
X126800000Y-68950000D02*
X126800000Y-79050000D01*
X126800000Y-75750000D02*
X127550000Y-75750000D01*
X127550000Y-75750000D02*
X127550000Y-72250000D01*
X127550000Y-72250000D02*
X126800000Y-72250000D01*
X126800000Y-72250000D02*
X126800000Y-75750000D01*
X126800000Y-79050000D02*
X127550000Y-79050000D01*
X127550000Y-79050000D02*
X127550000Y-77250000D01*
X127550000Y-77250000D02*
X126800000Y-77250000D01*
X126800000Y-77250000D02*
X126800000Y-79050000D01*
X126800000Y-70750000D02*
X127550000Y-70750000D01*
X127550000Y-70750000D02*
X127550000Y-68950000D01*
X127550000Y-68950000D02*
X126800000Y-68950000D01*
X126800000Y-68950000D02*
X126800000Y-70750000D01*
X129050000Y-79050000D02*
X129050000Y-78300000D01*
X129050000Y-78300000D02*
X132000000Y-78300000D01*
X132000000Y-78300000D02*
X132000000Y-74000000D01*
X129050000Y-68950000D02*
X129050000Y-69700000D01*
X129050000Y-69700000D02*
X132000000Y-69700000D01*
X132000000Y-69700000D02*
X132000000Y-74000000D01*
X126500000Y-76850000D02*
X126500000Y-79350000D01*
X126500000Y-79350000D02*
X129000000Y-79350000D01*
X129575000Y-84800000D02*
X129575000Y-85130000D01*
X129575000Y-85130000D02*
X123155000Y-85130000D01*
X123155000Y-85130000D02*
X123155000Y-84800000D01*
X129575000Y-82840000D02*
X129575000Y-82510000D01*
X129575000Y-82510000D02*
X123155000Y-82510000D01*
X123155000Y-82510000D02*
X123155000Y-82840000D01*
X123155000Y-87285000D02*
X123155000Y-86955000D01*
X123155000Y-86955000D02*
X129575000Y-86955000D01*
X129575000Y-86955000D02*
X129575000Y-87285000D01*
X123155000Y-89245000D02*
X123155000Y-89575000D01*
X123155000Y-89575000D02*
X129575000Y-89575000D01*
X129575000Y-89575000D02*
X129575000Y-89245000D01*
X179415000Y-99675000D02*
X179415000Y-100005000D01*
X179415000Y-100005000D02*
X172995000Y-100005000D01*
X172995000Y-100005000D02*
X172995000Y-99675000D01*
X179415000Y-97715000D02*
X179415000Y-97385000D01*
X179415000Y-97385000D02*
X172995000Y-97385000D01*
X172995000Y-97385000D02*
X172995000Y-97715000D01*
X172995000Y-93270000D02*
X172995000Y-92940000D01*
X172995000Y-92940000D02*
X179415000Y-92940000D01*
X179415000Y-92940000D02*
X179415000Y-93270000D01*
X172995000Y-95230000D02*
X172995000Y-95560000D01*
X172995000Y-95560000D02*
X179415000Y-95560000D01*
X179415000Y-95560000D02*
X179415000Y-95230000D01*
X172995000Y-88825000D02*
X172995000Y-88495000D01*
X172995000Y-88495000D02*
X179415000Y-88495000D01*
X179415000Y-88495000D02*
X179415000Y-88825000D01*
X172995000Y-90785000D02*
X172995000Y-91115000D01*
X172995000Y-91115000D02*
X179415000Y-91115000D01*
X179415000Y-91115000D02*
X179415000Y-90785000D01*
X179415000Y-113895000D02*
X179415000Y-114225000D01*
X179415000Y-114225000D02*
X172995000Y-114225000D01*
X172995000Y-114225000D02*
X172995000Y-113895000D01*
X179415000Y-111935000D02*
X179415000Y-111605000D01*
X179415000Y-111605000D02*
X172995000Y-111605000D01*
X172995000Y-111605000D02*
X172995000Y-111935000D01*
X172995000Y-107490000D02*
X172995000Y-107160000D01*
X172995000Y-107160000D02*
X179415000Y-107160000D01*
X179415000Y-107160000D02*
X179415000Y-107490000D01*
X172995000Y-109450000D02*
X172995000Y-109780000D01*
X172995000Y-109780000D02*
X179415000Y-109780000D01*
X179415000Y-109780000D02*
X179415000Y-109450000D01*
X172995000Y-103045000D02*
X172995000Y-102715000D01*
X172995000Y-102715000D02*
X179415000Y-102715000D01*
X179415000Y-102715000D02*
X179415000Y-103045000D01*
X172995000Y-105005000D02*
X172995000Y-105335000D01*
X172995000Y-105335000D02*
X179415000Y-105335000D01*
X179415000Y-105335000D02*
X179415000Y-105005000D01*
X179415000Y-128115000D02*
X179415000Y-128445000D01*
X179415000Y-128445000D02*
X172995000Y-128445000D01*
X172995000Y-128445000D02*
X172995000Y-128115000D01*
X179415000Y-126155000D02*
X179415000Y-125825000D01*
X179415000Y-125825000D02*
X172995000Y-125825000D01*
X172995000Y-125825000D02*
X172995000Y-126155000D01*
X172995000Y-121710000D02*
X172995000Y-121380000D01*
X172995000Y-121380000D02*
X179415000Y-121380000D01*
X179415000Y-121380000D02*
X179415000Y-121710000D01*
X172995000Y-123670000D02*
X172995000Y-124000000D01*
X172995000Y-124000000D02*
X179415000Y-124000000D01*
X179415000Y-124000000D02*
X179415000Y-123670000D01*
X172995000Y-117265000D02*
X172995000Y-116935000D01*
X172995000Y-116935000D02*
X179415000Y-116935000D01*
X179415000Y-116935000D02*
X179415000Y-117265000D01*
X172995000Y-119225000D02*
X172995000Y-119555000D01*
X172995000Y-119555000D02*
X179415000Y-119555000D01*
X179415000Y-119555000D02*
X179415000Y-119225000D01*
X179415000Y-141700000D02*
X179415000Y-142030000D01*
X179415000Y-142030000D02*
X172995000Y-142030000D01*
X172995000Y-142030000D02*
X172995000Y-141700000D01*
X179415000Y-139740000D02*
X179415000Y-139410000D01*
X179415000Y-139410000D02*
X172995000Y-139410000D01*
X172995000Y-139410000D02*
X172995000Y-139740000D01*
X172995000Y-135295000D02*
X172995000Y-134965000D01*
X172995000Y-134965000D02*
X179415000Y-134965000D01*
X179415000Y-134965000D02*
X179415000Y-135295000D01*
X172995000Y-137255000D02*
X172995000Y-137585000D01*
X172995000Y-137585000D02*
X179415000Y-137585000D01*
X179415000Y-137585000D02*
X179415000Y-137255000D01*
X172995000Y-130850000D02*
X172995000Y-130520000D01*
X172995000Y-130520000D02*
X179415000Y-130520000D01*
X179415000Y-130520000D02*
X179415000Y-130850000D01*
X172995000Y-132810000D02*
X172995000Y-133140000D01*
X172995000Y-133140000D02*
X179415000Y-133140000D01*
X179415000Y-133140000D02*
X179415000Y-132810000D01*
X179415000Y-155920000D02*
X179415000Y-156250000D01*
X179415000Y-156250000D02*
X172995000Y-156250000D01*
X172995000Y-156250000D02*
X172995000Y-155920000D01*
X179415000Y-153960000D02*
X179415000Y-153630000D01*
X179415000Y-153630000D02*
X172995000Y-153630000D01*
X172995000Y-153630000D02*
X172995000Y-153960000D01*
X172995000Y-149515000D02*
X172995000Y-149185000D01*
X172995000Y-149185000D02*
X179415000Y-149185000D01*
X179415000Y-149185000D02*
X179415000Y-149515000D01*
X172995000Y-151475000D02*
X172995000Y-151805000D01*
X172995000Y-151805000D02*
X179415000Y-151805000D01*
X179415000Y-151805000D02*
X179415000Y-151475000D01*
X172995000Y-145070000D02*
X172995000Y-144740000D01*
X172995000Y-144740000D02*
X179415000Y-144740000D01*
X179415000Y-144740000D02*
X179415000Y-145070000D01*
X172995000Y-147030000D02*
X172995000Y-147360000D01*
X172995000Y-147360000D02*
X179415000Y-147360000D01*
X179415000Y-147360000D02*
X179415000Y-147030000D01*
X145720000Y-95625000D02*
X145720000Y-99225000D01*
X145731522Y-95586522D02*
G75*
G02X150170000Y-97425000I1838478J-1838478D01*
G01*
X145731522Y-99263478D02*
G75*
G03X150170000Y-97425000I1838478J1838478D01*
G01*
X145720000Y-109845000D02*
X145720000Y-113445000D01*
X145731522Y-109806522D02*
G75*
G02X150170000Y-111645000I1838478J-1838478D01*
G01*
X145731522Y-113483478D02*
G75*
G03X150170000Y-111645000I1838478J1838478D01*
G01*
X145720000Y-103495000D02*
X145720000Y-107095000D01*
X145731522Y-103456522D02*
G75*
G02X150170000Y-105295000I1838478J-1838478D01*
G01*
X145731522Y-107133478D02*
G75*
G03X150170000Y-105295000I1838478J1838478D01*
G01*
X145720000Y-124065000D02*
X145720000Y-127665000D01*
X145731522Y-124026522D02*
G75*
G02X150170000Y-125865000I1838478J-1838478D01*
G01*
X145731522Y-127703478D02*
G75*
G03X150170000Y-125865000I1838478J1838478D01*
G01*
X145720000Y-117715000D02*
X145720000Y-121315000D01*
X145731522Y-117676522D02*
G75*
G02X150170000Y-119515000I1838478J-1838478D01*
G01*
X145731522Y-121353478D02*
G75*
G03X150170000Y-119515000I1838478J1838478D01*
G01*
X145720000Y-137650000D02*
X145720000Y-141250000D01*
X145731522Y-137611522D02*
G75*
G02X150170000Y-139450000I1838478J-1838478D01*
G01*
X145731522Y-141288478D02*
G75*
G03X150170000Y-139450000I1838478J1838478D01*
G01*
X145720000Y-131300000D02*
X145720000Y-134900000D01*
X145731522Y-131261522D02*
G75*
G02X150170000Y-133100000I1838478J-1838478D01*
G01*
X145731522Y-134938478D02*
G75*
G03X150170000Y-133100000I1838478J1838478D01*
G01*
X145720000Y-152505000D02*
X145720000Y-156105000D01*
X145731522Y-152466522D02*
G75*
G02X150170000Y-154305000I1838478J-1838478D01*
G01*
X145731522Y-156143478D02*
G75*
G03X150170000Y-154305000I1838478J1838478D01*
G01*
X145720000Y-145520000D02*
X145720000Y-149120000D01*
X145731522Y-145481522D02*
G75*
G02X150170000Y-147320000I1838478J-1838478D01*
G01*
X145731522Y-149158478D02*
G75*
G03X150170000Y-147320000I1838478J1838478D01*
G01*
X164425000Y-81155000D02*
X164425000Y-84755000D01*
X164436522Y-81116522D02*
G75*
G02X168875000Y-82955000I1838478J-1838478D01*
G01*
X164436522Y-84793478D02*
G75*
G03X168875000Y-82955000I1838478J1838478D01*
G01*
X164425000Y-74805000D02*
X164425000Y-78405000D01*
X164436522Y-74766522D02*
G75*
G02X168875000Y-76605000I1838478J-1838478D01*
G01*
X164436522Y-78443478D02*
G75*
G03X168875000Y-76605000I1838478J1838478D01*
G01*
X164425000Y-95375000D02*
X164425000Y-98975000D01*
X164436522Y-95336522D02*
G75*
G02X168875000Y-97175000I1838478J-1838478D01*
G01*
X164436522Y-99013478D02*
G75*
G03X168875000Y-97175000I1838478J1838478D01*
G01*
X164425000Y-89025000D02*
X164425000Y-92625000D01*
X164436522Y-88986522D02*
G75*
G02X168875000Y-90825000I1838478J-1838478D01*
G01*
X164436522Y-92663478D02*
G75*
G03X168875000Y-90825000I1838478J1838478D01*
G01*
X165060000Y-109845000D02*
X165060000Y-113445000D01*
X165071522Y-109806522D02*
G75*
G02X169510000Y-111645000I1838478J-1838478D01*
G01*
X165071522Y-113483478D02*
G75*
G03X169510000Y-111645000I1838478J1838478D01*
G01*
X165060000Y-103495000D02*
X165060000Y-107095000D01*
X165071522Y-103456522D02*
G75*
G02X169510000Y-105295000I1838478J-1838478D01*
G01*
X165071522Y-107133478D02*
G75*
G03X169510000Y-105295000I1838478J1838478D01*
G01*
X165060000Y-124065000D02*
X165060000Y-127665000D01*
X165071522Y-124026522D02*
G75*
G02X169510000Y-125865000I1838478J-1838478D01*
G01*
X165071522Y-127703478D02*
G75*
G03X169510000Y-125865000I1838478J1838478D01*
G01*
X165060000Y-117715000D02*
X165060000Y-121315000D01*
X165071522Y-117676522D02*
G75*
G02X169510000Y-119515000I1838478J-1838478D01*
G01*
X165071522Y-121353478D02*
G75*
G03X169510000Y-119515000I1838478J1838478D01*
G01*
X164425000Y-137400000D02*
X164425000Y-141000000D01*
X164436522Y-137361522D02*
G75*
G02X168875000Y-139200000I1838478J-1838478D01*
G01*
X164436522Y-141038478D02*
G75*
G03X168875000Y-139200000I1838478J1838478D01*
G01*
X164425000Y-131050000D02*
X164425000Y-134650000D01*
X164436522Y-131011522D02*
G75*
G02X168875000Y-132850000I1838478J-1838478D01*
G01*
X164436522Y-134688478D02*
G75*
G03X168875000Y-132850000I1838478J1838478D01*
G01*
X164425000Y-152255000D02*
X164425000Y-155855000D01*
X164436522Y-152216522D02*
G75*
G02X168875000Y-154055000I1838478J-1838478D01*
G01*
X164436522Y-155893478D02*
G75*
G03X168875000Y-154055000I1838478J1838478D01*
G01*
X164425000Y-145270000D02*
X164425000Y-148870000D01*
X164436522Y-145231522D02*
G75*
G02X168875000Y-147070000I1838478J-1838478D01*
G01*
X164436522Y-148908478D02*
G75*
G03X168875000Y-147070000I1838478J1838478D01*
G01*
X183245000Y-81405000D02*
X183245000Y-85005000D01*
X183256522Y-81366522D02*
G75*
G02X187695000Y-83205000I1838478J-1838478D01*
G01*
X183256522Y-85043478D02*
G75*
G03X187695000Y-83205000I1838478J1838478D01*
G01*
X183245000Y-95625000D02*
X183245000Y-99225000D01*
X183256522Y-95586522D02*
G75*
G02X187695000Y-97425000I1838478J-1838478D01*
G01*
X183256522Y-99263478D02*
G75*
G03X187695000Y-97425000I1838478J1838478D01*
G01*
X183245000Y-89275000D02*
X183245000Y-92875000D01*
X183256522Y-89236522D02*
G75*
G02X187695000Y-91075000I1838478J-1838478D01*
G01*
X183256522Y-92913478D02*
G75*
G03X187695000Y-91075000I1838478J1838478D01*
G01*
X183245000Y-109845000D02*
X183245000Y-113445000D01*
X183256522Y-109806522D02*
G75*
G02X187695000Y-111645000I1838478J-1838478D01*
G01*
X183256522Y-113483478D02*
G75*
G03X187695000Y-111645000I1838478J1838478D01*
G01*
X183245000Y-103495000D02*
X183245000Y-107095000D01*
X183256522Y-103456522D02*
G75*
G02X187695000Y-105295000I1838478J-1838478D01*
G01*
X183256522Y-107133478D02*
G75*
G03X187695000Y-105295000I1838478J1838478D01*
G01*
X183245000Y-124065000D02*
X183245000Y-127665000D01*
X183256522Y-124026522D02*
G75*
G02X187695000Y-125865000I1838478J-1838478D01*
G01*
X183256522Y-127703478D02*
G75*
G03X187695000Y-125865000I1838478J1838478D01*
G01*
X183245000Y-117715000D02*
X183245000Y-121315000D01*
X183256522Y-117676522D02*
G75*
G02X187695000Y-119515000I1838478J-1838478D01*
G01*
X183256522Y-121353478D02*
G75*
G03X187695000Y-119515000I1838478J1838478D01*
G01*
X183245000Y-137650000D02*
X183245000Y-141250000D01*
X183256522Y-137611522D02*
G75*
G02X187695000Y-139450000I1838478J-1838478D01*
G01*
X183256522Y-141288478D02*
G75*
G03X187695000Y-139450000I1838478J1838478D01*
G01*
X183245000Y-131300000D02*
X183245000Y-134900000D01*
X183256522Y-131261522D02*
G75*
G02X187695000Y-133100000I1838478J-1838478D01*
G01*
X183256522Y-134938478D02*
G75*
G03X187695000Y-133100000I1838478J1838478D01*
G01*
X183245000Y-151870000D02*
X183245000Y-155470000D01*
X183256522Y-151831522D02*
G75*
G02X187695000Y-153670000I1838478J-1838478D01*
G01*
X183256522Y-155508478D02*
G75*
G03X187695000Y-153670000I1838478J1838478D01*
G01*
X183245000Y-145520000D02*
X183245000Y-149120000D01*
X183256522Y-145481522D02*
G75*
G02X187695000Y-147320000I1838478J-1838478D01*
G01*
X183256522Y-149158478D02*
G75*
G03X187695000Y-147320000I1838478J1838478D01*
G01*
X145720000Y-89275000D02*
X145720000Y-92875000D01*
X145731522Y-89236522D02*
G75*
G02X150170000Y-91075000I1838478J-1838478D01*
G01*
X145731522Y-92913478D02*
G75*
G03X150170000Y-91075000I1838478J1838478D01*
G01*
X145720000Y-81405000D02*
X145720000Y-85005000D01*
X145731522Y-81366522D02*
G75*
G02X150170000Y-83205000I1838478J-1838478D01*
G01*
X145731522Y-85043478D02*
G75*
G03X150170000Y-83205000I1838478J1838478D01*
G01*
X145720000Y-75055000D02*
X145720000Y-78655000D01*
X145731522Y-75016522D02*
G75*
G02X150170000Y-76855000I1838478J-1838478D01*
G01*
X145731522Y-78693478D02*
G75*
G03X150170000Y-76855000I1838478J1838478D01*
G01*
X135470000Y-79050000D02*
X135470000Y-78720000D01*
X135470000Y-78720000D02*
X141890000Y-78720000D01*
X141890000Y-78720000D02*
X141890000Y-79050000D01*
X135470000Y-81010000D02*
X135470000Y-81340000D01*
X135470000Y-81340000D02*
X141890000Y-81340000D01*
X141890000Y-81340000D02*
X141890000Y-81010000D01*
X197200000Y-79200000D02*
X191250000Y-79200000D01*
X191250000Y-79200000D02*
X191250000Y-96800000D01*
X191250000Y-96800000D02*
X197200000Y-96800000D01*
X197200000Y-96800000D02*
X197200000Y-79200000D01*
X197200000Y-82500000D02*
X196450000Y-82500000D01*
X196450000Y-82500000D02*
X196450000Y-93500000D01*
X196450000Y-93500000D02*
X197200000Y-93500000D01*
X197200000Y-93500000D02*
X197200000Y-82500000D01*
X197200000Y-79200000D02*
X196450000Y-79200000D01*
X196450000Y-79200000D02*
X196450000Y-81000000D01*
X196450000Y-81000000D02*
X197200000Y-81000000D01*
X197200000Y-81000000D02*
X197200000Y-79200000D01*
X197200000Y-95000000D02*
X196450000Y-95000000D01*
X196450000Y-95000000D02*
X196450000Y-96800000D01*
X196450000Y-96800000D02*
X197200000Y-96800000D01*
X197200000Y-96800000D02*
X197200000Y-95000000D01*
X194950000Y-79200000D02*
X194950000Y-79950000D01*
X194950000Y-79950000D02*
X192000000Y-79950000D01*
X192000000Y-79950000D02*
X192000000Y-88000000D01*
X194950000Y-96800000D02*
X194950000Y-96050000D01*
X194950000Y-96050000D02*
X192000000Y-96050000D01*
X192000000Y-96050000D02*
X192000000Y-88000000D01*
X197500000Y-81400000D02*
X197500000Y-78900000D01*
X197500000Y-78900000D02*
X195000000Y-78900000D01*
X197200000Y-100700000D02*
X191250000Y-100700000D01*
X191250000Y-100700000D02*
X191250000Y-118300000D01*
X191250000Y-118300000D02*
X197200000Y-118300000D01*
X197200000Y-118300000D02*
X197200000Y-100700000D01*
X197200000Y-104000000D02*
X196450000Y-104000000D01*
X196450000Y-104000000D02*
X196450000Y-115000000D01*
X196450000Y-115000000D02*
X197200000Y-115000000D01*
X197200000Y-115000000D02*
X197200000Y-104000000D01*
X197200000Y-100700000D02*
X196450000Y-100700000D01*
X196450000Y-100700000D02*
X196450000Y-102500000D01*
X196450000Y-102500000D02*
X197200000Y-102500000D01*
X197200000Y-102500000D02*
X197200000Y-100700000D01*
X197200000Y-116500000D02*
X196450000Y-116500000D01*
X196450000Y-116500000D02*
X196450000Y-118300000D01*
X196450000Y-118300000D02*
X197200000Y-118300000D01*
X197200000Y-118300000D02*
X197200000Y-116500000D01*
X194950000Y-100700000D02*
X194950000Y-101450000D01*
X194950000Y-101450000D02*
X192000000Y-101450000D01*
X192000000Y-101450000D02*
X192000000Y-109500000D01*
X194950000Y-118300000D02*
X194950000Y-117550000D01*
X194950000Y-117550000D02*
X192000000Y-117550000D01*
X192000000Y-117550000D02*
X192000000Y-109500000D01*
X197500000Y-102900000D02*
X197500000Y-100400000D01*
X197500000Y-100400000D02*
X195000000Y-100400000D01*
X197200000Y-121950000D02*
X191250000Y-121950000D01*
X191250000Y-121950000D02*
X191250000Y-139550000D01*
X191250000Y-139550000D02*
X197200000Y-139550000D01*
X197200000Y-139550000D02*
X197200000Y-121950000D01*
X197200000Y-125250000D02*
X196450000Y-125250000D01*
X196450000Y-125250000D02*
X196450000Y-136250000D01*
X196450000Y-136250000D02*
X197200000Y-136250000D01*
X197200000Y-136250000D02*
X197200000Y-125250000D01*
X197200000Y-121950000D02*
X196450000Y-121950000D01*
X196450000Y-121950000D02*
X196450000Y-123750000D01*
X196450000Y-123750000D02*
X197200000Y-123750000D01*
X197200000Y-123750000D02*
X197200000Y-121950000D01*
X197200000Y-137750000D02*
X196450000Y-137750000D01*
X196450000Y-137750000D02*
X196450000Y-139550000D01*
X196450000Y-139550000D02*
X197200000Y-139550000D01*
X197200000Y-139550000D02*
X197200000Y-137750000D01*
X194950000Y-121950000D02*
X194950000Y-122700000D01*
X194950000Y-122700000D02*
X192000000Y-122700000D01*
X192000000Y-122700000D02*
X192000000Y-130750000D01*
X194950000Y-139550000D02*
X194950000Y-138800000D01*
X194950000Y-138800000D02*
X192000000Y-138800000D01*
X192000000Y-138800000D02*
X192000000Y-130750000D01*
X197500000Y-124150000D02*
X197500000Y-121650000D01*
X197500000Y-121650000D02*
X195000000Y-121650000D01*
D13*
X190166667Y-71952381D02*
X190166667Y-70952381D01*
X190500001Y-71666667D01*
X190833334Y-70952381D01*
X190833334Y-71952381D01*
X191309524Y-71952381D02*
X191309524Y-70952381D01*
X191309524Y-71428571D02*
X191880953Y-71428571D01*
X191880953Y-71952381D02*
X191880953Y-70952381D01*
X192309524Y-71047619D02*
X192357143Y-71000000D01*
X192452381Y-70952381D01*
X192690477Y-70952381D01*
X192785715Y-71000000D01*
X192833334Y-71047619D01*
X192880953Y-71142857D01*
X192880953Y-71238095D01*
X192833334Y-71380952D01*
X192261905Y-71952381D01*
X192880953Y-71952381D01*
X195166667Y-150202381D02*
X195166667Y-149202381D01*
X195500001Y-149916667D01*
X195833334Y-149202381D01*
X195833334Y-150202381D01*
X196309524Y-150202381D02*
X196309524Y-149202381D01*
X196309524Y-149678571D02*
X196880953Y-149678571D01*
X196880953Y-150202381D02*
X196880953Y-149202381D01*
X197261905Y-149202381D02*
X197880953Y-149202381D01*
X197547619Y-149583333D01*
X197690477Y-149583333D01*
X197785715Y-149630952D01*
X197833334Y-149678571D01*
X197880953Y-149773810D01*
X197880953Y-150011905D01*
X197833334Y-150107143D01*
X197785715Y-150154762D01*
X197690477Y-150202381D01*
X197404762Y-150202381D01*
X197309524Y-150154762D01*
X197261905Y-150107143D01*
X113166667Y-150202381D02*
X113166667Y-149202381D01*
X113500001Y-149916667D01*
X113833334Y-149202381D01*
X113833334Y-150202381D01*
X114309524Y-150202381D02*
X114309524Y-149202381D01*
X114309524Y-149678571D02*
X114880953Y-149678571D01*
X114880953Y-150202381D02*
X114880953Y-149202381D01*
X115785715Y-149535714D02*
X115785715Y-150202381D01*
X115547619Y-149154762D02*
X115309524Y-149869048D01*
X115928572Y-149869048D01*
X188107381Y-78950238D02*
X188107381Y-78378809D01*
X189107381Y-78664524D02*
X188107381Y-78664524D01*
X189107381Y-77521666D02*
X189107381Y-78093095D01*
X189107381Y-77807381D02*
X188107381Y-77807381D01*
X188250238Y-77902619D01*
X188345476Y-77997857D01*
X188393095Y-78093095D01*
X188107381Y-77188333D02*
X188107381Y-76569285D01*
X188488333Y-76902619D01*
X188488333Y-76759761D01*
X188535952Y-76664523D01*
X188583571Y-76616904D01*
X188678810Y-76569285D01*
X188916905Y-76569285D01*
X189012143Y-76616904D01*
X189059762Y-76664523D01*
X189107381Y-76759761D01*
X189107381Y-77045476D01*
X189059762Y-77140714D01*
X189012143Y-77188333D01*
X189202619Y-76378809D02*
X189202619Y-75616904D01*
X188202619Y-75426428D02*
X188155000Y-75378809D01*
X188107381Y-75283571D01*
X188107381Y-75045475D01*
X188155000Y-74950237D01*
X188202619Y-74902618D01*
X188297857Y-74854999D01*
X188393095Y-74854999D01*
X188535952Y-74902618D01*
X189107381Y-75474047D01*
X189107381Y-74854999D01*
X137656191Y-83022381D02*
X137322857Y-82546190D01*
X137084762Y-83022381D02*
X137084762Y-82022381D01*
X137465715Y-82022381D01*
X137560953Y-82070000D01*
X137608572Y-82117619D01*
X137656191Y-82212857D01*
X137656191Y-82355714D01*
X137608572Y-82450952D01*
X137560953Y-82498571D01*
X137465715Y-82546190D01*
X137084762Y-82546190D01*
X138608572Y-83022381D02*
X138037143Y-83022381D01*
X138322857Y-83022381D02*
X138322857Y-82022381D01*
X138227619Y-82165238D01*
X138132381Y-82260476D01*
X138037143Y-82308095D01*
X138799048Y-83117619D02*
X139560953Y-83117619D01*
X140322858Y-83022381D02*
X139751429Y-83022381D01*
X140037143Y-83022381D02*
X140037143Y-82022381D01*
X139941905Y-82165238D01*
X139846667Y-82260476D01*
X139751429Y-82308095D01*
X137656191Y-74132381D02*
X137322857Y-73656190D01*
X137084762Y-74132381D02*
X137084762Y-73132381D01*
X137465715Y-73132381D01*
X137560953Y-73180000D01*
X137608572Y-73227619D01*
X137656191Y-73322857D01*
X137656191Y-73465714D01*
X137608572Y-73560952D01*
X137560953Y-73608571D01*
X137465715Y-73656190D01*
X137084762Y-73656190D01*
X138608572Y-74132381D02*
X138037143Y-74132381D01*
X138322857Y-74132381D02*
X138322857Y-73132381D01*
X138227619Y-73275238D01*
X138132381Y-73370476D01*
X138037143Y-73418095D01*
X138799048Y-74227619D02*
X139560953Y-74227619D01*
X139703810Y-73132381D02*
X140322858Y-73132381D01*
X139989524Y-73513333D01*
X140132382Y-73513333D01*
X140227620Y-73560952D01*
X140275239Y-73608571D01*
X140322858Y-73703810D01*
X140322858Y-73941905D01*
X140275239Y-74037143D01*
X140227620Y-74084762D01*
X140132382Y-74132381D01*
X139846667Y-74132381D01*
X139751429Y-74084762D01*
X139703810Y-74037143D01*
X137656191Y-92797381D02*
X137322857Y-92321190D01*
X137084762Y-92797381D02*
X137084762Y-91797381D01*
X137465715Y-91797381D01*
X137560953Y-91845000D01*
X137608572Y-91892619D01*
X137656191Y-91987857D01*
X137656191Y-92130714D01*
X137608572Y-92225952D01*
X137560953Y-92273571D01*
X137465715Y-92321190D01*
X137084762Y-92321190D01*
X138037143Y-91892619D02*
X138084762Y-91845000D01*
X138180000Y-91797381D01*
X138418096Y-91797381D01*
X138513334Y-91845000D01*
X138560953Y-91892619D01*
X138608572Y-91987857D01*
X138608572Y-92083095D01*
X138560953Y-92225952D01*
X137989524Y-92797381D01*
X138608572Y-92797381D01*
X138799048Y-92892619D02*
X139560953Y-92892619D01*
X139751429Y-91892619D02*
X139799048Y-91845000D01*
X139894286Y-91797381D01*
X140132382Y-91797381D01*
X140227620Y-91845000D01*
X140275239Y-91892619D01*
X140322858Y-91987857D01*
X140322858Y-92083095D01*
X140275239Y-92225952D01*
X139703810Y-92797381D01*
X140322858Y-92797381D01*
X137656191Y-88352381D02*
X137322857Y-87876190D01*
X137084762Y-88352381D02*
X137084762Y-87352381D01*
X137465715Y-87352381D01*
X137560953Y-87400000D01*
X137608572Y-87447619D01*
X137656191Y-87542857D01*
X137656191Y-87685714D01*
X137608572Y-87780952D01*
X137560953Y-87828571D01*
X137465715Y-87876190D01*
X137084762Y-87876190D01*
X138037143Y-87447619D02*
X138084762Y-87400000D01*
X138180000Y-87352381D01*
X138418096Y-87352381D01*
X138513334Y-87400000D01*
X138560953Y-87447619D01*
X138608572Y-87542857D01*
X138608572Y-87638095D01*
X138560953Y-87780952D01*
X137989524Y-88352381D01*
X138608572Y-88352381D01*
X138799048Y-88447619D02*
X139560953Y-88447619D01*
X139703810Y-87352381D02*
X140322858Y-87352381D01*
X139989524Y-87733333D01*
X140132382Y-87733333D01*
X140227620Y-87780952D01*
X140275239Y-87828571D01*
X140322858Y-87923810D01*
X140322858Y-88161905D01*
X140275239Y-88257143D01*
X140227620Y-88304762D01*
X140132382Y-88352381D01*
X139846667Y-88352381D01*
X139751429Y-88304762D01*
X139703810Y-88257143D01*
X137656191Y-107017381D02*
X137322857Y-106541190D01*
X137084762Y-107017381D02*
X137084762Y-106017381D01*
X137465715Y-106017381D01*
X137560953Y-106065000D01*
X137608572Y-106112619D01*
X137656191Y-106207857D01*
X137656191Y-106350714D01*
X137608572Y-106445952D01*
X137560953Y-106493571D01*
X137465715Y-106541190D01*
X137084762Y-106541190D01*
X137989524Y-106017381D02*
X138608572Y-106017381D01*
X138275238Y-106398333D01*
X138418096Y-106398333D01*
X138513334Y-106445952D01*
X138560953Y-106493571D01*
X138608572Y-106588810D01*
X138608572Y-106826905D01*
X138560953Y-106922143D01*
X138513334Y-106969762D01*
X138418096Y-107017381D01*
X138132381Y-107017381D01*
X138037143Y-106969762D01*
X137989524Y-106922143D01*
X138799048Y-107112619D02*
X139560953Y-107112619D01*
X139751429Y-106112619D02*
X139799048Y-106065000D01*
X139894286Y-106017381D01*
X140132382Y-106017381D01*
X140227620Y-106065000D01*
X140275239Y-106112619D01*
X140322858Y-106207857D01*
X140322858Y-106303095D01*
X140275239Y-106445952D01*
X139703810Y-107017381D01*
X140322858Y-107017381D01*
X137656191Y-102572381D02*
X137322857Y-102096190D01*
X137084762Y-102572381D02*
X137084762Y-101572381D01*
X137465715Y-101572381D01*
X137560953Y-101620000D01*
X137608572Y-101667619D01*
X137656191Y-101762857D01*
X137656191Y-101905714D01*
X137608572Y-102000952D01*
X137560953Y-102048571D01*
X137465715Y-102096190D01*
X137084762Y-102096190D01*
X137989524Y-101572381D02*
X138608572Y-101572381D01*
X138275238Y-101953333D01*
X138418096Y-101953333D01*
X138513334Y-102000952D01*
X138560953Y-102048571D01*
X138608572Y-102143810D01*
X138608572Y-102381905D01*
X138560953Y-102477143D01*
X138513334Y-102524762D01*
X138418096Y-102572381D01*
X138132381Y-102572381D01*
X138037143Y-102524762D01*
X137989524Y-102477143D01*
X138799048Y-102667619D02*
X139560953Y-102667619D01*
X139703810Y-101572381D02*
X140322858Y-101572381D01*
X139989524Y-101953333D01*
X140132382Y-101953333D01*
X140227620Y-102000952D01*
X140275239Y-102048571D01*
X140322858Y-102143810D01*
X140322858Y-102381905D01*
X140275239Y-102477143D01*
X140227620Y-102524762D01*
X140132382Y-102572381D01*
X139846667Y-102572381D01*
X139751429Y-102524762D01*
X139703810Y-102477143D01*
X137656191Y-121237381D02*
X137322857Y-120761190D01*
X137084762Y-121237381D02*
X137084762Y-120237381D01*
X137465715Y-120237381D01*
X137560953Y-120285000D01*
X137608572Y-120332619D01*
X137656191Y-120427857D01*
X137656191Y-120570714D01*
X137608572Y-120665952D01*
X137560953Y-120713571D01*
X137465715Y-120761190D01*
X137084762Y-120761190D01*
X138513334Y-120570714D02*
X138513334Y-121237381D01*
X138275238Y-120189762D02*
X138037143Y-120904048D01*
X138656191Y-120904048D01*
X138799048Y-121332619D02*
X139560953Y-121332619D01*
X139751429Y-120332619D02*
X139799048Y-120285000D01*
X139894286Y-120237381D01*
X140132382Y-120237381D01*
X140227620Y-120285000D01*
X140275239Y-120332619D01*
X140322858Y-120427857D01*
X140322858Y-120523095D01*
X140275239Y-120665952D01*
X139703810Y-121237381D01*
X140322858Y-121237381D01*
X137656191Y-116792381D02*
X137322857Y-116316190D01*
X137084762Y-116792381D02*
X137084762Y-115792381D01*
X137465715Y-115792381D01*
X137560953Y-115840000D01*
X137608572Y-115887619D01*
X137656191Y-115982857D01*
X137656191Y-116125714D01*
X137608572Y-116220952D01*
X137560953Y-116268571D01*
X137465715Y-116316190D01*
X137084762Y-116316190D01*
X138513334Y-116125714D02*
X138513334Y-116792381D01*
X138275238Y-115744762D02*
X138037143Y-116459048D01*
X138656191Y-116459048D01*
X138799048Y-116887619D02*
X139560953Y-116887619D01*
X139703810Y-115792381D02*
X140322858Y-115792381D01*
X139989524Y-116173333D01*
X140132382Y-116173333D01*
X140227620Y-116220952D01*
X140275239Y-116268571D01*
X140322858Y-116363810D01*
X140322858Y-116601905D01*
X140275239Y-116697143D01*
X140227620Y-116744762D01*
X140132382Y-116792381D01*
X139846667Y-116792381D01*
X139751429Y-116744762D01*
X139703810Y-116697143D01*
X156361191Y-96992381D02*
X156027857Y-96516190D01*
X155789762Y-96992381D02*
X155789762Y-95992381D01*
X156170715Y-95992381D01*
X156265953Y-96040000D01*
X156313572Y-96087619D01*
X156361191Y-96182857D01*
X156361191Y-96325714D01*
X156313572Y-96420952D01*
X156265953Y-96468571D01*
X156170715Y-96516190D01*
X155789762Y-96516190D01*
X156932619Y-96420952D02*
X156837381Y-96373333D01*
X156789762Y-96325714D01*
X156742143Y-96230476D01*
X156742143Y-96182857D01*
X156789762Y-96087619D01*
X156837381Y-96040000D01*
X156932619Y-95992381D01*
X157123096Y-95992381D01*
X157218334Y-96040000D01*
X157265953Y-96087619D01*
X157313572Y-96182857D01*
X157313572Y-96230476D01*
X157265953Y-96325714D01*
X157218334Y-96373333D01*
X157123096Y-96420952D01*
X156932619Y-96420952D01*
X156837381Y-96468571D01*
X156789762Y-96516190D01*
X156742143Y-96611429D01*
X156742143Y-96801905D01*
X156789762Y-96897143D01*
X156837381Y-96944762D01*
X156932619Y-96992381D01*
X157123096Y-96992381D01*
X157218334Y-96944762D01*
X157265953Y-96897143D01*
X157313572Y-96801905D01*
X157313572Y-96611429D01*
X157265953Y-96516190D01*
X157218334Y-96468571D01*
X157123096Y-96420952D01*
X157504048Y-97087619D02*
X158265953Y-97087619D01*
X159027858Y-96992381D02*
X158456429Y-96992381D01*
X158742143Y-96992381D02*
X158742143Y-95992381D01*
X158646905Y-96135238D01*
X158551667Y-96230476D01*
X158456429Y-96278095D01*
X156361191Y-92547381D02*
X156027857Y-92071190D01*
X155789762Y-92547381D02*
X155789762Y-91547381D01*
X156170715Y-91547381D01*
X156265953Y-91595000D01*
X156313572Y-91642619D01*
X156361191Y-91737857D01*
X156361191Y-91880714D01*
X156313572Y-91975952D01*
X156265953Y-92023571D01*
X156170715Y-92071190D01*
X155789762Y-92071190D01*
X156932619Y-91975952D02*
X156837381Y-91928333D01*
X156789762Y-91880714D01*
X156742143Y-91785476D01*
X156742143Y-91737857D01*
X156789762Y-91642619D01*
X156837381Y-91595000D01*
X156932619Y-91547381D01*
X157123096Y-91547381D01*
X157218334Y-91595000D01*
X157265953Y-91642619D01*
X157313572Y-91737857D01*
X157313572Y-91785476D01*
X157265953Y-91880714D01*
X157218334Y-91928333D01*
X157123096Y-91975952D01*
X156932619Y-91975952D01*
X156837381Y-92023571D01*
X156789762Y-92071190D01*
X156742143Y-92166429D01*
X156742143Y-92356905D01*
X156789762Y-92452143D01*
X156837381Y-92499762D01*
X156932619Y-92547381D01*
X157123096Y-92547381D01*
X157218334Y-92499762D01*
X157265953Y-92452143D01*
X157313572Y-92356905D01*
X157313572Y-92166429D01*
X157265953Y-92071190D01*
X157218334Y-92023571D01*
X157123096Y-91975952D01*
X157504048Y-92642619D02*
X158265953Y-92642619D01*
X158456429Y-91642619D02*
X158504048Y-91595000D01*
X158599286Y-91547381D01*
X158837382Y-91547381D01*
X158932620Y-91595000D01*
X158980239Y-91642619D01*
X159027858Y-91737857D01*
X159027858Y-91833095D01*
X158980239Y-91975952D01*
X158408810Y-92547381D01*
X159027858Y-92547381D01*
X156361191Y-88102381D02*
X156027857Y-87626190D01*
X155789762Y-88102381D02*
X155789762Y-87102381D01*
X156170715Y-87102381D01*
X156265953Y-87150000D01*
X156313572Y-87197619D01*
X156361191Y-87292857D01*
X156361191Y-87435714D01*
X156313572Y-87530952D01*
X156265953Y-87578571D01*
X156170715Y-87626190D01*
X155789762Y-87626190D01*
X156932619Y-87530952D02*
X156837381Y-87483333D01*
X156789762Y-87435714D01*
X156742143Y-87340476D01*
X156742143Y-87292857D01*
X156789762Y-87197619D01*
X156837381Y-87150000D01*
X156932619Y-87102381D01*
X157123096Y-87102381D01*
X157218334Y-87150000D01*
X157265953Y-87197619D01*
X157313572Y-87292857D01*
X157313572Y-87340476D01*
X157265953Y-87435714D01*
X157218334Y-87483333D01*
X157123096Y-87530952D01*
X156932619Y-87530952D01*
X156837381Y-87578571D01*
X156789762Y-87626190D01*
X156742143Y-87721429D01*
X156742143Y-87911905D01*
X156789762Y-88007143D01*
X156837381Y-88054762D01*
X156932619Y-88102381D01*
X157123096Y-88102381D01*
X157218334Y-88054762D01*
X157265953Y-88007143D01*
X157313572Y-87911905D01*
X157313572Y-87721429D01*
X157265953Y-87626190D01*
X157218334Y-87578571D01*
X157123096Y-87530952D01*
X157504048Y-88197619D02*
X158265953Y-88197619D01*
X158408810Y-87102381D02*
X159027858Y-87102381D01*
X158694524Y-87483333D01*
X158837382Y-87483333D01*
X158932620Y-87530952D01*
X158980239Y-87578571D01*
X159027858Y-87673810D01*
X159027858Y-87911905D01*
X158980239Y-88007143D01*
X158932620Y-88054762D01*
X158837382Y-88102381D01*
X158551667Y-88102381D01*
X158456429Y-88054762D01*
X158408810Y-88007143D01*
X156361191Y-111212381D02*
X156027857Y-110736190D01*
X155789762Y-111212381D02*
X155789762Y-110212381D01*
X156170715Y-110212381D01*
X156265953Y-110260000D01*
X156313572Y-110307619D01*
X156361191Y-110402857D01*
X156361191Y-110545714D01*
X156313572Y-110640952D01*
X156265953Y-110688571D01*
X156170715Y-110736190D01*
X155789762Y-110736190D01*
X156837381Y-111212381D02*
X157027857Y-111212381D01*
X157123096Y-111164762D01*
X157170715Y-111117143D01*
X157265953Y-110974286D01*
X157313572Y-110783810D01*
X157313572Y-110402857D01*
X157265953Y-110307619D01*
X157218334Y-110260000D01*
X157123096Y-110212381D01*
X156932619Y-110212381D01*
X156837381Y-110260000D01*
X156789762Y-110307619D01*
X156742143Y-110402857D01*
X156742143Y-110640952D01*
X156789762Y-110736190D01*
X156837381Y-110783810D01*
X156932619Y-110831429D01*
X157123096Y-110831429D01*
X157218334Y-110783810D01*
X157265953Y-110736190D01*
X157313572Y-110640952D01*
X157504048Y-111307619D02*
X158265953Y-111307619D01*
X159027858Y-111212381D02*
X158456429Y-111212381D01*
X158742143Y-111212381D02*
X158742143Y-110212381D01*
X158646905Y-110355238D01*
X158551667Y-110450476D01*
X158456429Y-110498095D01*
X156361191Y-106767381D02*
X156027857Y-106291190D01*
X155789762Y-106767381D02*
X155789762Y-105767381D01*
X156170715Y-105767381D01*
X156265953Y-105815000D01*
X156313572Y-105862619D01*
X156361191Y-105957857D01*
X156361191Y-106100714D01*
X156313572Y-106195952D01*
X156265953Y-106243571D01*
X156170715Y-106291190D01*
X155789762Y-106291190D01*
X156837381Y-106767381D02*
X157027857Y-106767381D01*
X157123096Y-106719762D01*
X157170715Y-106672143D01*
X157265953Y-106529286D01*
X157313572Y-106338810D01*
X157313572Y-105957857D01*
X157265953Y-105862619D01*
X157218334Y-105815000D01*
X157123096Y-105767381D01*
X156932619Y-105767381D01*
X156837381Y-105815000D01*
X156789762Y-105862619D01*
X156742143Y-105957857D01*
X156742143Y-106195952D01*
X156789762Y-106291190D01*
X156837381Y-106338810D01*
X156932619Y-106386429D01*
X157123096Y-106386429D01*
X157218334Y-106338810D01*
X157265953Y-106291190D01*
X157313572Y-106195952D01*
X157504048Y-106862619D02*
X158265953Y-106862619D01*
X158456429Y-105862619D02*
X158504048Y-105815000D01*
X158599286Y-105767381D01*
X158837382Y-105767381D01*
X158932620Y-105815000D01*
X158980239Y-105862619D01*
X159027858Y-105957857D01*
X159027858Y-106053095D01*
X158980239Y-106195952D01*
X158408810Y-106767381D01*
X159027858Y-106767381D01*
X156361191Y-102322381D02*
X156027857Y-101846190D01*
X155789762Y-102322381D02*
X155789762Y-101322381D01*
X156170715Y-101322381D01*
X156265953Y-101370000D01*
X156313572Y-101417619D01*
X156361191Y-101512857D01*
X156361191Y-101655714D01*
X156313572Y-101750952D01*
X156265953Y-101798571D01*
X156170715Y-101846190D01*
X155789762Y-101846190D01*
X156837381Y-102322381D02*
X157027857Y-102322381D01*
X157123096Y-102274762D01*
X157170715Y-102227143D01*
X157265953Y-102084286D01*
X157313572Y-101893810D01*
X157313572Y-101512857D01*
X157265953Y-101417619D01*
X157218334Y-101370000D01*
X157123096Y-101322381D01*
X156932619Y-101322381D01*
X156837381Y-101370000D01*
X156789762Y-101417619D01*
X156742143Y-101512857D01*
X156742143Y-101750952D01*
X156789762Y-101846190D01*
X156837381Y-101893810D01*
X156932619Y-101941429D01*
X157123096Y-101941429D01*
X157218334Y-101893810D01*
X157265953Y-101846190D01*
X157313572Y-101750952D01*
X157504048Y-102417619D02*
X158265953Y-102417619D01*
X158408810Y-101322381D02*
X159027858Y-101322381D01*
X158694524Y-101703333D01*
X158837382Y-101703333D01*
X158932620Y-101750952D01*
X158980239Y-101798571D01*
X159027858Y-101893810D01*
X159027858Y-102131905D01*
X158980239Y-102227143D01*
X158932620Y-102274762D01*
X158837382Y-102322381D01*
X158551667Y-102322381D01*
X158456429Y-102274762D01*
X158408810Y-102227143D01*
X155885000Y-125432381D02*
X155551666Y-124956190D01*
X155313571Y-125432381D02*
X155313571Y-124432381D01*
X155694524Y-124432381D01*
X155789762Y-124480000D01*
X155837381Y-124527619D01*
X155885000Y-124622857D01*
X155885000Y-124765714D01*
X155837381Y-124860952D01*
X155789762Y-124908571D01*
X155694524Y-124956190D01*
X155313571Y-124956190D01*
X156837381Y-125432381D02*
X156265952Y-125432381D01*
X156551666Y-125432381D02*
X156551666Y-124432381D01*
X156456428Y-124575238D01*
X156361190Y-124670476D01*
X156265952Y-124718095D01*
X157456428Y-124432381D02*
X157551667Y-124432381D01*
X157646905Y-124480000D01*
X157694524Y-124527619D01*
X157742143Y-124622857D01*
X157789762Y-124813333D01*
X157789762Y-125051429D01*
X157742143Y-125241905D01*
X157694524Y-125337143D01*
X157646905Y-125384762D01*
X157551667Y-125432381D01*
X157456428Y-125432381D01*
X157361190Y-125384762D01*
X157313571Y-125337143D01*
X157265952Y-125241905D01*
X157218333Y-125051429D01*
X157218333Y-124813333D01*
X157265952Y-124622857D01*
X157313571Y-124527619D01*
X157361190Y-124480000D01*
X157456428Y-124432381D01*
X157980238Y-125527619D02*
X158742143Y-125527619D01*
X159504048Y-125432381D02*
X158932619Y-125432381D01*
X159218333Y-125432381D02*
X159218333Y-124432381D01*
X159123095Y-124575238D01*
X159027857Y-124670476D01*
X158932619Y-124718095D01*
X155885000Y-120987381D02*
X155551666Y-120511190D01*
X155313571Y-120987381D02*
X155313571Y-119987381D01*
X155694524Y-119987381D01*
X155789762Y-120035000D01*
X155837381Y-120082619D01*
X155885000Y-120177857D01*
X155885000Y-120320714D01*
X155837381Y-120415952D01*
X155789762Y-120463571D01*
X155694524Y-120511190D01*
X155313571Y-120511190D01*
X156837381Y-120987381D02*
X156265952Y-120987381D01*
X156551666Y-120987381D02*
X156551666Y-119987381D01*
X156456428Y-120130238D01*
X156361190Y-120225476D01*
X156265952Y-120273095D01*
X157456428Y-119987381D02*
X157551667Y-119987381D01*
X157646905Y-120035000D01*
X157694524Y-120082619D01*
X157742143Y-120177857D01*
X157789762Y-120368333D01*
X157789762Y-120606429D01*
X157742143Y-120796905D01*
X157694524Y-120892143D01*
X157646905Y-120939762D01*
X157551667Y-120987381D01*
X157456428Y-120987381D01*
X157361190Y-120939762D01*
X157313571Y-120892143D01*
X157265952Y-120796905D01*
X157218333Y-120606429D01*
X157218333Y-120368333D01*
X157265952Y-120177857D01*
X157313571Y-120082619D01*
X157361190Y-120035000D01*
X157456428Y-119987381D01*
X157980238Y-121082619D02*
X158742143Y-121082619D01*
X158932619Y-120082619D02*
X158980238Y-120035000D01*
X159075476Y-119987381D01*
X159313572Y-119987381D01*
X159408810Y-120035000D01*
X159456429Y-120082619D01*
X159504048Y-120177857D01*
X159504048Y-120273095D01*
X159456429Y-120415952D01*
X158885000Y-120987381D01*
X159504048Y-120987381D01*
X155885000Y-116542381D02*
X155551666Y-116066190D01*
X155313571Y-116542381D02*
X155313571Y-115542381D01*
X155694524Y-115542381D01*
X155789762Y-115590000D01*
X155837381Y-115637619D01*
X155885000Y-115732857D01*
X155885000Y-115875714D01*
X155837381Y-115970952D01*
X155789762Y-116018571D01*
X155694524Y-116066190D01*
X155313571Y-116066190D01*
X156837381Y-116542381D02*
X156265952Y-116542381D01*
X156551666Y-116542381D02*
X156551666Y-115542381D01*
X156456428Y-115685238D01*
X156361190Y-115780476D01*
X156265952Y-115828095D01*
X157456428Y-115542381D02*
X157551667Y-115542381D01*
X157646905Y-115590000D01*
X157694524Y-115637619D01*
X157742143Y-115732857D01*
X157789762Y-115923333D01*
X157789762Y-116161429D01*
X157742143Y-116351905D01*
X157694524Y-116447143D01*
X157646905Y-116494762D01*
X157551667Y-116542381D01*
X157456428Y-116542381D01*
X157361190Y-116494762D01*
X157313571Y-116447143D01*
X157265952Y-116351905D01*
X157218333Y-116161429D01*
X157218333Y-115923333D01*
X157265952Y-115732857D01*
X157313571Y-115637619D01*
X157361190Y-115590000D01*
X157456428Y-115542381D01*
X157980238Y-116637619D02*
X158742143Y-116637619D01*
X158885000Y-115542381D02*
X159504048Y-115542381D01*
X159170714Y-115923333D01*
X159313572Y-115923333D01*
X159408810Y-115970952D01*
X159456429Y-116018571D01*
X159504048Y-116113810D01*
X159504048Y-116351905D01*
X159456429Y-116447143D01*
X159408810Y-116494762D01*
X159313572Y-116542381D01*
X159027857Y-116542381D01*
X158932619Y-116494762D01*
X158885000Y-116447143D01*
X156520000Y-139017381D02*
X156186666Y-138541190D01*
X155948571Y-139017381D02*
X155948571Y-138017381D01*
X156329524Y-138017381D01*
X156424762Y-138065000D01*
X156472381Y-138112619D01*
X156520000Y-138207857D01*
X156520000Y-138350714D01*
X156472381Y-138445952D01*
X156424762Y-138493571D01*
X156329524Y-138541190D01*
X155948571Y-138541190D01*
X157472381Y-139017381D02*
X156900952Y-139017381D01*
X157186666Y-139017381D02*
X157186666Y-138017381D01*
X157091428Y-138160238D01*
X156996190Y-138255476D01*
X156900952Y-138303095D01*
X158424762Y-139017381D02*
X157853333Y-139017381D01*
X158139047Y-139017381D02*
X158139047Y-138017381D01*
X158043809Y-138160238D01*
X157948571Y-138255476D01*
X157853333Y-138303095D01*
X158615238Y-139112619D02*
X159377143Y-139112619D01*
X160139048Y-139017381D02*
X159567619Y-139017381D01*
X159853333Y-139017381D02*
X159853333Y-138017381D01*
X159758095Y-138160238D01*
X159662857Y-138255476D01*
X159567619Y-138303095D01*
X155885000Y-130127381D02*
X155551666Y-129651190D01*
X155313571Y-130127381D02*
X155313571Y-129127381D01*
X155694524Y-129127381D01*
X155789762Y-129175000D01*
X155837381Y-129222619D01*
X155885000Y-129317857D01*
X155885000Y-129460714D01*
X155837381Y-129555952D01*
X155789762Y-129603571D01*
X155694524Y-129651190D01*
X155313571Y-129651190D01*
X156837381Y-130127381D02*
X156265952Y-130127381D01*
X156551666Y-130127381D02*
X156551666Y-129127381D01*
X156456428Y-129270238D01*
X156361190Y-129365476D01*
X156265952Y-129413095D01*
X157789762Y-130127381D02*
X157218333Y-130127381D01*
X157504047Y-130127381D02*
X157504047Y-129127381D01*
X157408809Y-129270238D01*
X157313571Y-129365476D01*
X157218333Y-129413095D01*
X157980238Y-130222619D02*
X158742143Y-130222619D01*
X158885000Y-129127381D02*
X159504048Y-129127381D01*
X159170714Y-129508333D01*
X159313572Y-129508333D01*
X159408810Y-129555952D01*
X159456429Y-129603571D01*
X159504048Y-129698810D01*
X159504048Y-129936905D01*
X159456429Y-130032143D01*
X159408810Y-130079762D01*
X159313572Y-130127381D01*
X159027857Y-130127381D01*
X158932619Y-130079762D01*
X158885000Y-130032143D01*
X121158095Y-144867381D02*
X121158095Y-145676905D01*
X121205714Y-145772143D01*
X121253333Y-145819762D01*
X121348571Y-145867381D01*
X121539048Y-145867381D01*
X121634286Y-145819762D01*
X121681905Y-145772143D01*
X121729524Y-145676905D01*
X121729524Y-144867381D01*
X122158095Y-144962619D02*
X122205714Y-144915000D01*
X122300952Y-144867381D01*
X122539048Y-144867381D01*
X122634286Y-144915000D01*
X122681905Y-144962619D01*
X122729524Y-145057857D01*
X122729524Y-145153095D01*
X122681905Y-145295952D01*
X122110476Y-145867381D01*
X122729524Y-145867381D01*
X137656191Y-96837381D02*
X137322857Y-96361190D01*
X137084762Y-96837381D02*
X137084762Y-95837381D01*
X137465715Y-95837381D01*
X137560953Y-95885000D01*
X137608572Y-95932619D01*
X137656191Y-96027857D01*
X137656191Y-96170714D01*
X137608572Y-96265952D01*
X137560953Y-96313571D01*
X137465715Y-96361190D01*
X137084762Y-96361190D01*
X138037143Y-95932619D02*
X138084762Y-95885000D01*
X138180000Y-95837381D01*
X138418096Y-95837381D01*
X138513334Y-95885000D01*
X138560953Y-95932619D01*
X138608572Y-96027857D01*
X138608572Y-96123095D01*
X138560953Y-96265952D01*
X137989524Y-96837381D01*
X138608572Y-96837381D01*
X138799048Y-96932619D02*
X139560953Y-96932619D01*
X140322858Y-96837381D02*
X139751429Y-96837381D01*
X140037143Y-96837381D02*
X140037143Y-95837381D01*
X139941905Y-95980238D01*
X139846667Y-96075476D01*
X139751429Y-96123095D01*
X137656191Y-111462381D02*
X137322857Y-110986190D01*
X137084762Y-111462381D02*
X137084762Y-110462381D01*
X137465715Y-110462381D01*
X137560953Y-110510000D01*
X137608572Y-110557619D01*
X137656191Y-110652857D01*
X137656191Y-110795714D01*
X137608572Y-110890952D01*
X137560953Y-110938571D01*
X137465715Y-110986190D01*
X137084762Y-110986190D01*
X137989524Y-110462381D02*
X138608572Y-110462381D01*
X138275238Y-110843333D01*
X138418096Y-110843333D01*
X138513334Y-110890952D01*
X138560953Y-110938571D01*
X138608572Y-111033810D01*
X138608572Y-111271905D01*
X138560953Y-111367143D01*
X138513334Y-111414762D01*
X138418096Y-111462381D01*
X138132381Y-111462381D01*
X138037143Y-111414762D01*
X137989524Y-111367143D01*
X138799048Y-111557619D02*
X139560953Y-111557619D01*
X140322858Y-111462381D02*
X139751429Y-111462381D01*
X140037143Y-111462381D02*
X140037143Y-110462381D01*
X139941905Y-110605238D01*
X139846667Y-110700476D01*
X139751429Y-110748095D01*
X137656191Y-125682381D02*
X137322857Y-125206190D01*
X137084762Y-125682381D02*
X137084762Y-124682381D01*
X137465715Y-124682381D01*
X137560953Y-124730000D01*
X137608572Y-124777619D01*
X137656191Y-124872857D01*
X137656191Y-125015714D01*
X137608572Y-125110952D01*
X137560953Y-125158571D01*
X137465715Y-125206190D01*
X137084762Y-125206190D01*
X138513334Y-125015714D02*
X138513334Y-125682381D01*
X138275238Y-124634762D02*
X138037143Y-125349048D01*
X138656191Y-125349048D01*
X138799048Y-125777619D02*
X139560953Y-125777619D01*
X140322858Y-125682381D02*
X139751429Y-125682381D01*
X140037143Y-125682381D02*
X140037143Y-124682381D01*
X139941905Y-124825238D01*
X139846667Y-124920476D01*
X139751429Y-124968095D01*
X137656191Y-139267381D02*
X137322857Y-138791190D01*
X137084762Y-139267381D02*
X137084762Y-138267381D01*
X137465715Y-138267381D01*
X137560953Y-138315000D01*
X137608572Y-138362619D01*
X137656191Y-138457857D01*
X137656191Y-138600714D01*
X137608572Y-138695952D01*
X137560953Y-138743571D01*
X137465715Y-138791190D01*
X137084762Y-138791190D01*
X138560953Y-138267381D02*
X138084762Y-138267381D01*
X138037143Y-138743571D01*
X138084762Y-138695952D01*
X138180000Y-138648333D01*
X138418096Y-138648333D01*
X138513334Y-138695952D01*
X138560953Y-138743571D01*
X138608572Y-138838810D01*
X138608572Y-139076905D01*
X138560953Y-139172143D01*
X138513334Y-139219762D01*
X138418096Y-139267381D01*
X138180000Y-139267381D01*
X138084762Y-139219762D01*
X138037143Y-139172143D01*
X138799048Y-139362619D02*
X139560953Y-139362619D01*
X140322858Y-139267381D02*
X139751429Y-139267381D01*
X140037143Y-139267381D02*
X140037143Y-138267381D01*
X139941905Y-138410238D01*
X139846667Y-138505476D01*
X139751429Y-138553095D01*
X137656191Y-134417381D02*
X137322857Y-133941190D01*
X137084762Y-134417381D02*
X137084762Y-133417381D01*
X137465715Y-133417381D01*
X137560953Y-133465000D01*
X137608572Y-133512619D01*
X137656191Y-133607857D01*
X137656191Y-133750714D01*
X137608572Y-133845952D01*
X137560953Y-133893571D01*
X137465715Y-133941190D01*
X137084762Y-133941190D01*
X138560953Y-133417381D02*
X138084762Y-133417381D01*
X138037143Y-133893571D01*
X138084762Y-133845952D01*
X138180000Y-133798333D01*
X138418096Y-133798333D01*
X138513334Y-133845952D01*
X138560953Y-133893571D01*
X138608572Y-133988810D01*
X138608572Y-134226905D01*
X138560953Y-134322143D01*
X138513334Y-134369762D01*
X138418096Y-134417381D01*
X138180000Y-134417381D01*
X138084762Y-134369762D01*
X138037143Y-134322143D01*
X138799048Y-134512619D02*
X139560953Y-134512619D01*
X139751429Y-133512619D02*
X139799048Y-133465000D01*
X139894286Y-133417381D01*
X140132382Y-133417381D01*
X140227620Y-133465000D01*
X140275239Y-133512619D01*
X140322858Y-133607857D01*
X140322858Y-133703095D01*
X140275239Y-133845952D01*
X139703810Y-134417381D01*
X140322858Y-134417381D01*
X137656191Y-130377381D02*
X137322857Y-129901190D01*
X137084762Y-130377381D02*
X137084762Y-129377381D01*
X137465715Y-129377381D01*
X137560953Y-129425000D01*
X137608572Y-129472619D01*
X137656191Y-129567857D01*
X137656191Y-129710714D01*
X137608572Y-129805952D01*
X137560953Y-129853571D01*
X137465715Y-129901190D01*
X137084762Y-129901190D01*
X138560953Y-129377381D02*
X138084762Y-129377381D01*
X138037143Y-129853571D01*
X138084762Y-129805952D01*
X138180000Y-129758333D01*
X138418096Y-129758333D01*
X138513334Y-129805952D01*
X138560953Y-129853571D01*
X138608572Y-129948810D01*
X138608572Y-130186905D01*
X138560953Y-130282143D01*
X138513334Y-130329762D01*
X138418096Y-130377381D01*
X138180000Y-130377381D01*
X138084762Y-130329762D01*
X138037143Y-130282143D01*
X138799048Y-130472619D02*
X139560953Y-130472619D01*
X139703810Y-129377381D02*
X140322858Y-129377381D01*
X139989524Y-129758333D01*
X140132382Y-129758333D01*
X140227620Y-129805952D01*
X140275239Y-129853571D01*
X140322858Y-129948810D01*
X140322858Y-130186905D01*
X140275239Y-130282143D01*
X140227620Y-130329762D01*
X140132382Y-130377381D01*
X139846667Y-130377381D01*
X139751429Y-130329762D01*
X139703810Y-130282143D01*
X137656191Y-154122381D02*
X137322857Y-153646190D01*
X137084762Y-154122381D02*
X137084762Y-153122381D01*
X137465715Y-153122381D01*
X137560953Y-153170000D01*
X137608572Y-153217619D01*
X137656191Y-153312857D01*
X137656191Y-153455714D01*
X137608572Y-153550952D01*
X137560953Y-153598571D01*
X137465715Y-153646190D01*
X137084762Y-153646190D01*
X138513334Y-153122381D02*
X138322857Y-153122381D01*
X138227619Y-153170000D01*
X138180000Y-153217619D01*
X138084762Y-153360476D01*
X138037143Y-153550952D01*
X138037143Y-153931905D01*
X138084762Y-154027143D01*
X138132381Y-154074762D01*
X138227619Y-154122381D01*
X138418096Y-154122381D01*
X138513334Y-154074762D01*
X138560953Y-154027143D01*
X138608572Y-153931905D01*
X138608572Y-153693810D01*
X138560953Y-153598571D01*
X138513334Y-153550952D01*
X138418096Y-153503333D01*
X138227619Y-153503333D01*
X138132381Y-153550952D01*
X138084762Y-153598571D01*
X138037143Y-153693810D01*
X138799048Y-154217619D02*
X139560953Y-154217619D01*
X140322858Y-154122381D02*
X139751429Y-154122381D01*
X140037143Y-154122381D02*
X140037143Y-153122381D01*
X139941905Y-153265238D01*
X139846667Y-153360476D01*
X139751429Y-153408095D01*
X137656191Y-149042381D02*
X137322857Y-148566190D01*
X137084762Y-149042381D02*
X137084762Y-148042381D01*
X137465715Y-148042381D01*
X137560953Y-148090000D01*
X137608572Y-148137619D01*
X137656191Y-148232857D01*
X137656191Y-148375714D01*
X137608572Y-148470952D01*
X137560953Y-148518571D01*
X137465715Y-148566190D01*
X137084762Y-148566190D01*
X138513334Y-148042381D02*
X138322857Y-148042381D01*
X138227619Y-148090000D01*
X138180000Y-148137619D01*
X138084762Y-148280476D01*
X138037143Y-148470952D01*
X138037143Y-148851905D01*
X138084762Y-148947143D01*
X138132381Y-148994762D01*
X138227619Y-149042381D01*
X138418096Y-149042381D01*
X138513334Y-148994762D01*
X138560953Y-148947143D01*
X138608572Y-148851905D01*
X138608572Y-148613810D01*
X138560953Y-148518571D01*
X138513334Y-148470952D01*
X138418096Y-148423333D01*
X138227619Y-148423333D01*
X138132381Y-148470952D01*
X138084762Y-148518571D01*
X138037143Y-148613810D01*
X138799048Y-149137619D02*
X139560953Y-149137619D01*
X139751429Y-148137619D02*
X139799048Y-148090000D01*
X139894286Y-148042381D01*
X140132382Y-148042381D01*
X140227620Y-148090000D01*
X140275239Y-148137619D01*
X140322858Y-148232857D01*
X140322858Y-148328095D01*
X140275239Y-148470952D01*
X139703810Y-149042381D01*
X140322858Y-149042381D01*
X137656191Y-144597381D02*
X137322857Y-144121190D01*
X137084762Y-144597381D02*
X137084762Y-143597381D01*
X137465715Y-143597381D01*
X137560953Y-143645000D01*
X137608572Y-143692619D01*
X137656191Y-143787857D01*
X137656191Y-143930714D01*
X137608572Y-144025952D01*
X137560953Y-144073571D01*
X137465715Y-144121190D01*
X137084762Y-144121190D01*
X138513334Y-143597381D02*
X138322857Y-143597381D01*
X138227619Y-143645000D01*
X138180000Y-143692619D01*
X138084762Y-143835476D01*
X138037143Y-144025952D01*
X138037143Y-144406905D01*
X138084762Y-144502143D01*
X138132381Y-144549762D01*
X138227619Y-144597381D01*
X138418096Y-144597381D01*
X138513334Y-144549762D01*
X138560953Y-144502143D01*
X138608572Y-144406905D01*
X138608572Y-144168810D01*
X138560953Y-144073571D01*
X138513334Y-144025952D01*
X138418096Y-143978333D01*
X138227619Y-143978333D01*
X138132381Y-144025952D01*
X138084762Y-144073571D01*
X138037143Y-144168810D01*
X138799048Y-144692619D02*
X139560953Y-144692619D01*
X139703810Y-143597381D02*
X140322858Y-143597381D01*
X139989524Y-143978333D01*
X140132382Y-143978333D01*
X140227620Y-144025952D01*
X140275239Y-144073571D01*
X140322858Y-144168810D01*
X140322858Y-144406905D01*
X140275239Y-144502143D01*
X140227620Y-144549762D01*
X140132382Y-144597381D01*
X139846667Y-144597381D01*
X139751429Y-144549762D01*
X139703810Y-144502143D01*
X156361191Y-82772381D02*
X156027857Y-82296190D01*
X155789762Y-82772381D02*
X155789762Y-81772381D01*
X156170715Y-81772381D01*
X156265953Y-81820000D01*
X156313572Y-81867619D01*
X156361191Y-81962857D01*
X156361191Y-82105714D01*
X156313572Y-82200952D01*
X156265953Y-82248571D01*
X156170715Y-82296190D01*
X155789762Y-82296190D01*
X156694524Y-81772381D02*
X157361191Y-81772381D01*
X156932619Y-82772381D01*
X157504048Y-82867619D02*
X158265953Y-82867619D01*
X159027858Y-82772381D02*
X158456429Y-82772381D01*
X158742143Y-82772381D02*
X158742143Y-81772381D01*
X158646905Y-81915238D01*
X158551667Y-82010476D01*
X158456429Y-82058095D01*
X156361191Y-78327381D02*
X156027857Y-77851190D01*
X155789762Y-78327381D02*
X155789762Y-77327381D01*
X156170715Y-77327381D01*
X156265953Y-77375000D01*
X156313572Y-77422619D01*
X156361191Y-77517857D01*
X156361191Y-77660714D01*
X156313572Y-77755952D01*
X156265953Y-77803571D01*
X156170715Y-77851190D01*
X155789762Y-77851190D01*
X156694524Y-77327381D02*
X157361191Y-77327381D01*
X156932619Y-78327381D01*
X157504048Y-78422619D02*
X158265953Y-78422619D01*
X158456429Y-77422619D02*
X158504048Y-77375000D01*
X158599286Y-77327381D01*
X158837382Y-77327381D01*
X158932620Y-77375000D01*
X158980239Y-77422619D01*
X159027858Y-77517857D01*
X159027858Y-77613095D01*
X158980239Y-77755952D01*
X158408810Y-78327381D01*
X159027858Y-78327381D01*
X156361191Y-73882381D02*
X156027857Y-73406190D01*
X155789762Y-73882381D02*
X155789762Y-72882381D01*
X156170715Y-72882381D01*
X156265953Y-72930000D01*
X156313572Y-72977619D01*
X156361191Y-73072857D01*
X156361191Y-73215714D01*
X156313572Y-73310952D01*
X156265953Y-73358571D01*
X156170715Y-73406190D01*
X155789762Y-73406190D01*
X156694524Y-72882381D02*
X157361191Y-72882381D01*
X156932619Y-73882381D01*
X157504048Y-73977619D02*
X158265953Y-73977619D01*
X158408810Y-72882381D02*
X159027858Y-72882381D01*
X158694524Y-73263333D01*
X158837382Y-73263333D01*
X158932620Y-73310952D01*
X158980239Y-73358571D01*
X159027858Y-73453810D01*
X159027858Y-73691905D01*
X158980239Y-73787143D01*
X158932620Y-73834762D01*
X158837382Y-73882381D01*
X158551667Y-73882381D01*
X158456429Y-73834762D01*
X158408810Y-73787143D01*
X155885000Y-134572381D02*
X155551666Y-134096190D01*
X155313571Y-134572381D02*
X155313571Y-133572381D01*
X155694524Y-133572381D01*
X155789762Y-133620000D01*
X155837381Y-133667619D01*
X155885000Y-133762857D01*
X155885000Y-133905714D01*
X155837381Y-134000952D01*
X155789762Y-134048571D01*
X155694524Y-134096190D01*
X155313571Y-134096190D01*
X156837381Y-134572381D02*
X156265952Y-134572381D01*
X156551666Y-134572381D02*
X156551666Y-133572381D01*
X156456428Y-133715238D01*
X156361190Y-133810476D01*
X156265952Y-133858095D01*
X157789762Y-134572381D02*
X157218333Y-134572381D01*
X157504047Y-134572381D02*
X157504047Y-133572381D01*
X157408809Y-133715238D01*
X157313571Y-133810476D01*
X157218333Y-133858095D01*
X157980238Y-134667619D02*
X158742143Y-134667619D01*
X158932619Y-133667619D02*
X158980238Y-133620000D01*
X159075476Y-133572381D01*
X159313572Y-133572381D01*
X159408810Y-133620000D01*
X159456429Y-133667619D01*
X159504048Y-133762857D01*
X159504048Y-133858095D01*
X159456429Y-134000952D01*
X158885000Y-134572381D01*
X159504048Y-134572381D01*
X155885000Y-153872381D02*
X155551666Y-153396190D01*
X155313571Y-153872381D02*
X155313571Y-152872381D01*
X155694524Y-152872381D01*
X155789762Y-152920000D01*
X155837381Y-152967619D01*
X155885000Y-153062857D01*
X155885000Y-153205714D01*
X155837381Y-153300952D01*
X155789762Y-153348571D01*
X155694524Y-153396190D01*
X155313571Y-153396190D01*
X156837381Y-153872381D02*
X156265952Y-153872381D01*
X156551666Y-153872381D02*
X156551666Y-152872381D01*
X156456428Y-153015238D01*
X156361190Y-153110476D01*
X156265952Y-153158095D01*
X157218333Y-152967619D02*
X157265952Y-152920000D01*
X157361190Y-152872381D01*
X157599286Y-152872381D01*
X157694524Y-152920000D01*
X157742143Y-152967619D01*
X157789762Y-153062857D01*
X157789762Y-153158095D01*
X157742143Y-153300952D01*
X157170714Y-153872381D01*
X157789762Y-153872381D01*
X157980238Y-153967619D02*
X158742143Y-153967619D01*
X159504048Y-153872381D02*
X158932619Y-153872381D01*
X159218333Y-153872381D02*
X159218333Y-152872381D01*
X159123095Y-153015238D01*
X159027857Y-153110476D01*
X158932619Y-153158095D01*
X155885000Y-148792381D02*
X155551666Y-148316190D01*
X155313571Y-148792381D02*
X155313571Y-147792381D01*
X155694524Y-147792381D01*
X155789762Y-147840000D01*
X155837381Y-147887619D01*
X155885000Y-147982857D01*
X155885000Y-148125714D01*
X155837381Y-148220952D01*
X155789762Y-148268571D01*
X155694524Y-148316190D01*
X155313571Y-148316190D01*
X156837381Y-148792381D02*
X156265952Y-148792381D01*
X156551666Y-148792381D02*
X156551666Y-147792381D01*
X156456428Y-147935238D01*
X156361190Y-148030476D01*
X156265952Y-148078095D01*
X157218333Y-147887619D02*
X157265952Y-147840000D01*
X157361190Y-147792381D01*
X157599286Y-147792381D01*
X157694524Y-147840000D01*
X157742143Y-147887619D01*
X157789762Y-147982857D01*
X157789762Y-148078095D01*
X157742143Y-148220952D01*
X157170714Y-148792381D01*
X157789762Y-148792381D01*
X157980238Y-148887619D02*
X158742143Y-148887619D01*
X158932619Y-147887619D02*
X158980238Y-147840000D01*
X159075476Y-147792381D01*
X159313572Y-147792381D01*
X159408810Y-147840000D01*
X159456429Y-147887619D01*
X159504048Y-147982857D01*
X159504048Y-148078095D01*
X159456429Y-148220952D01*
X158885000Y-148792381D01*
X159504048Y-148792381D01*
X155885000Y-144347381D02*
X155551666Y-143871190D01*
X155313571Y-144347381D02*
X155313571Y-143347381D01*
X155694524Y-143347381D01*
X155789762Y-143395000D01*
X155837381Y-143442619D01*
X155885000Y-143537857D01*
X155885000Y-143680714D01*
X155837381Y-143775952D01*
X155789762Y-143823571D01*
X155694524Y-143871190D01*
X155313571Y-143871190D01*
X156837381Y-144347381D02*
X156265952Y-144347381D01*
X156551666Y-144347381D02*
X156551666Y-143347381D01*
X156456428Y-143490238D01*
X156361190Y-143585476D01*
X156265952Y-143633095D01*
X157218333Y-143442619D02*
X157265952Y-143395000D01*
X157361190Y-143347381D01*
X157599286Y-143347381D01*
X157694524Y-143395000D01*
X157742143Y-143442619D01*
X157789762Y-143537857D01*
X157789762Y-143633095D01*
X157742143Y-143775952D01*
X157170714Y-144347381D01*
X157789762Y-144347381D01*
X157980238Y-144442619D02*
X158742143Y-144442619D01*
X158885000Y-143347381D02*
X159504048Y-143347381D01*
X159170714Y-143728333D01*
X159313572Y-143728333D01*
X159408810Y-143775952D01*
X159456429Y-143823571D01*
X159504048Y-143918810D01*
X159504048Y-144156905D01*
X159456429Y-144252143D01*
X159408810Y-144299762D01*
X159313572Y-144347381D01*
X159027857Y-144347381D01*
X158932619Y-144299762D01*
X158885000Y-144252143D01*
X174705000Y-83022381D02*
X174371666Y-82546190D01*
X174133571Y-83022381D02*
X174133571Y-82022381D01*
X174514524Y-82022381D01*
X174609762Y-82070000D01*
X174657381Y-82117619D01*
X174705000Y-82212857D01*
X174705000Y-82355714D01*
X174657381Y-82450952D01*
X174609762Y-82498571D01*
X174514524Y-82546190D01*
X174133571Y-82546190D01*
X175657381Y-83022381D02*
X175085952Y-83022381D01*
X175371666Y-83022381D02*
X175371666Y-82022381D01*
X175276428Y-82165238D01*
X175181190Y-82260476D01*
X175085952Y-82308095D01*
X175990714Y-82022381D02*
X176609762Y-82022381D01*
X176276428Y-82403333D01*
X176419286Y-82403333D01*
X176514524Y-82450952D01*
X176562143Y-82498571D01*
X176609762Y-82593810D01*
X176609762Y-82831905D01*
X176562143Y-82927143D01*
X176514524Y-82974762D01*
X176419286Y-83022381D01*
X176133571Y-83022381D01*
X176038333Y-82974762D01*
X175990714Y-82927143D01*
X176800238Y-83117619D02*
X177562143Y-83117619D01*
X178324048Y-83022381D02*
X177752619Y-83022381D01*
X178038333Y-83022381D02*
X178038333Y-82022381D01*
X177943095Y-82165238D01*
X177847857Y-82260476D01*
X177752619Y-82308095D01*
X174705000Y-78577381D02*
X174371666Y-78101190D01*
X174133571Y-78577381D02*
X174133571Y-77577381D01*
X174514524Y-77577381D01*
X174609762Y-77625000D01*
X174657381Y-77672619D01*
X174705000Y-77767857D01*
X174705000Y-77910714D01*
X174657381Y-78005952D01*
X174609762Y-78053571D01*
X174514524Y-78101190D01*
X174133571Y-78101190D01*
X175657381Y-78577381D02*
X175085952Y-78577381D01*
X175371666Y-78577381D02*
X175371666Y-77577381D01*
X175276428Y-77720238D01*
X175181190Y-77815476D01*
X175085952Y-77863095D01*
X175990714Y-77577381D02*
X176609762Y-77577381D01*
X176276428Y-77958333D01*
X176419286Y-77958333D01*
X176514524Y-78005952D01*
X176562143Y-78053571D01*
X176609762Y-78148810D01*
X176609762Y-78386905D01*
X176562143Y-78482143D01*
X176514524Y-78529762D01*
X176419286Y-78577381D01*
X176133571Y-78577381D01*
X176038333Y-78529762D01*
X175990714Y-78482143D01*
X176800238Y-78672619D02*
X177562143Y-78672619D01*
X177752619Y-77672619D02*
X177800238Y-77625000D01*
X177895476Y-77577381D01*
X178133572Y-77577381D01*
X178228810Y-77625000D01*
X178276429Y-77672619D01*
X178324048Y-77767857D01*
X178324048Y-77863095D01*
X178276429Y-78005952D01*
X177705000Y-78577381D01*
X178324048Y-78577381D01*
X174705000Y-73727381D02*
X174371666Y-73251190D01*
X174133571Y-73727381D02*
X174133571Y-72727381D01*
X174514524Y-72727381D01*
X174609762Y-72775000D01*
X174657381Y-72822619D01*
X174705000Y-72917857D01*
X174705000Y-73060714D01*
X174657381Y-73155952D01*
X174609762Y-73203571D01*
X174514524Y-73251190D01*
X174133571Y-73251190D01*
X175657381Y-73727381D02*
X175085952Y-73727381D01*
X175371666Y-73727381D02*
X175371666Y-72727381D01*
X175276428Y-72870238D01*
X175181190Y-72965476D01*
X175085952Y-73013095D01*
X175990714Y-72727381D02*
X176609762Y-72727381D01*
X176276428Y-73108333D01*
X176419286Y-73108333D01*
X176514524Y-73155952D01*
X176562143Y-73203571D01*
X176609762Y-73298810D01*
X176609762Y-73536905D01*
X176562143Y-73632143D01*
X176514524Y-73679762D01*
X176419286Y-73727381D01*
X176133571Y-73727381D01*
X176038333Y-73679762D01*
X175990714Y-73632143D01*
X176800238Y-73822619D02*
X177562143Y-73822619D01*
X177705000Y-72727381D02*
X178324048Y-72727381D01*
X177990714Y-73108333D01*
X178133572Y-73108333D01*
X178228810Y-73155952D01*
X178276429Y-73203571D01*
X178324048Y-73298810D01*
X178324048Y-73536905D01*
X178276429Y-73632143D01*
X178228810Y-73679762D01*
X178133572Y-73727381D01*
X177847857Y-73727381D01*
X177752619Y-73679762D01*
X177705000Y-73632143D01*
X116018334Y-97782143D02*
X115970715Y-97829762D01*
X115827858Y-97877381D01*
X115732620Y-97877381D01*
X115589762Y-97829762D01*
X115494524Y-97734524D01*
X115446905Y-97639286D01*
X115399286Y-97448810D01*
X115399286Y-97305952D01*
X115446905Y-97115476D01*
X115494524Y-97020238D01*
X115589762Y-96925000D01*
X115732620Y-96877381D01*
X115827858Y-96877381D01*
X115970715Y-96925000D01*
X116018334Y-96972619D01*
X116970715Y-97877381D02*
X116399286Y-97877381D01*
X116685000Y-97877381D02*
X116685000Y-96877381D01*
X116589762Y-97020238D01*
X116494524Y-97115476D01*
X116399286Y-97163095D01*
X127488334Y-107402143D02*
X127440715Y-107449762D01*
X127297858Y-107497381D01*
X127202620Y-107497381D01*
X127059762Y-107449762D01*
X126964524Y-107354524D01*
X126916905Y-107259286D01*
X126869286Y-107068810D01*
X126869286Y-106925952D01*
X126916905Y-106735476D01*
X126964524Y-106640238D01*
X127059762Y-106545000D01*
X127202620Y-106497381D01*
X127297858Y-106497381D01*
X127440715Y-106545000D01*
X127488334Y-106592619D01*
X127869286Y-106592619D02*
X127916905Y-106545000D01*
X128012143Y-106497381D01*
X128250239Y-106497381D01*
X128345477Y-106545000D01*
X128393096Y-106592619D01*
X128440715Y-106687857D01*
X128440715Y-106783095D01*
X128393096Y-106925952D01*
X127821667Y-107497381D01*
X128440715Y-107497381D01*
X124997143Y-93531666D02*
X125044762Y-93579285D01*
X125092381Y-93722142D01*
X125092381Y-93817380D01*
X125044762Y-93960238D01*
X124949524Y-94055476D01*
X124854286Y-94103095D01*
X124663810Y-94150714D01*
X124520952Y-94150714D01*
X124330476Y-94103095D01*
X124235238Y-94055476D01*
X124140000Y-93960238D01*
X124092381Y-93817380D01*
X124092381Y-93722142D01*
X124140000Y-93579285D01*
X124187619Y-93531666D01*
X124092381Y-93198333D02*
X124092381Y-92579285D01*
X124473333Y-92912619D01*
X124473333Y-92769761D01*
X124520952Y-92674523D01*
X124568571Y-92626904D01*
X124663810Y-92579285D01*
X124901905Y-92579285D01*
X124997143Y-92626904D01*
X125044762Y-92674523D01*
X125092381Y-92769761D01*
X125092381Y-93055476D01*
X125044762Y-93150714D01*
X124997143Y-93198333D01*
X111522381Y-85443333D02*
X112236667Y-85443333D01*
X112379524Y-85490953D01*
X112474762Y-85586191D01*
X112522381Y-85729048D01*
X112522381Y-85824286D01*
X112522381Y-84443333D02*
X112522381Y-85014762D01*
X112522381Y-84729048D02*
X111522381Y-84729048D01*
X111665238Y-84824286D01*
X111760476Y-84919524D01*
X111808095Y-85014762D01*
X116713095Y-89812381D02*
X116713095Y-90621905D01*
X116760714Y-90717143D01*
X116808333Y-90764762D01*
X116903571Y-90812381D01*
X117094048Y-90812381D01*
X117189286Y-90764762D01*
X117236905Y-90717143D01*
X117284524Y-90621905D01*
X117284524Y-89812381D01*
X118284524Y-90812381D02*
X117713095Y-90812381D01*
X117998809Y-90812381D02*
X117998809Y-89812381D01*
X117903571Y-89955238D01*
X117808333Y-90050476D01*
X117713095Y-90098095D01*
X116952381Y-79083333D02*
X117666667Y-79083333D01*
X117809524Y-79130953D01*
X117904762Y-79226191D01*
X117952381Y-79369048D01*
X117952381Y-79464286D01*
X116952381Y-78702381D02*
X116952381Y-78083333D01*
X117333333Y-78416667D01*
X117333333Y-78273809D01*
X117380952Y-78178571D01*
X117428571Y-78130952D01*
X117523810Y-78083333D01*
X117761905Y-78083333D01*
X117857143Y-78130952D01*
X117904762Y-78178571D01*
X117952381Y-78273809D01*
X117952381Y-78559524D01*
X117904762Y-78654762D01*
X117857143Y-78702381D01*
X125202381Y-79083333D02*
X125916667Y-79083333D01*
X126059524Y-79130953D01*
X126154762Y-79226191D01*
X126202381Y-79369048D01*
X126202381Y-79464286D01*
X125535714Y-78178571D02*
X126202381Y-78178571D01*
X125154762Y-78416667D02*
X125869048Y-78654762D01*
X125869048Y-78035714D01*
X126198334Y-82367381D02*
X125865000Y-81891190D01*
X125626905Y-82367381D02*
X125626905Y-81367381D01*
X126007858Y-81367381D01*
X126103096Y-81415000D01*
X126150715Y-81462619D01*
X126198334Y-81557857D01*
X126198334Y-81700714D01*
X126150715Y-81795952D01*
X126103096Y-81843571D01*
X126007858Y-81891190D01*
X125626905Y-81891190D01*
X127150715Y-82367381D02*
X126579286Y-82367381D01*
X126865000Y-82367381D02*
X126865000Y-81367381D01*
X126769762Y-81510238D01*
X126674524Y-81605476D01*
X126579286Y-81653095D01*
X126198334Y-86812381D02*
X125865000Y-86336190D01*
X125626905Y-86812381D02*
X125626905Y-85812381D01*
X126007858Y-85812381D01*
X126103096Y-85860000D01*
X126150715Y-85907619D01*
X126198334Y-86002857D01*
X126198334Y-86145714D01*
X126150715Y-86240952D01*
X126103096Y-86288571D01*
X126007858Y-86336190D01*
X125626905Y-86336190D01*
X126579286Y-85907619D02*
X126626905Y-85860000D01*
X126722143Y-85812381D01*
X126960239Y-85812381D01*
X127055477Y-85860000D01*
X127103096Y-85907619D01*
X127150715Y-86002857D01*
X127150715Y-86098095D01*
X127103096Y-86240952D01*
X126531667Y-86812381D01*
X127150715Y-86812381D01*
X174705000Y-97242381D02*
X174371666Y-96766190D01*
X174133571Y-97242381D02*
X174133571Y-96242381D01*
X174514524Y-96242381D01*
X174609762Y-96290000D01*
X174657381Y-96337619D01*
X174705000Y-96432857D01*
X174705000Y-96575714D01*
X174657381Y-96670952D01*
X174609762Y-96718571D01*
X174514524Y-96766190D01*
X174133571Y-96766190D01*
X175657381Y-97242381D02*
X175085952Y-97242381D01*
X175371666Y-97242381D02*
X175371666Y-96242381D01*
X175276428Y-96385238D01*
X175181190Y-96480476D01*
X175085952Y-96528095D01*
X176514524Y-96575714D02*
X176514524Y-97242381D01*
X176276428Y-96194762D02*
X176038333Y-96909048D01*
X176657381Y-96909048D01*
X176800238Y-97337619D02*
X177562143Y-97337619D01*
X178324048Y-97242381D02*
X177752619Y-97242381D01*
X178038333Y-97242381D02*
X178038333Y-96242381D01*
X177943095Y-96385238D01*
X177847857Y-96480476D01*
X177752619Y-96528095D01*
X174705000Y-92797381D02*
X174371666Y-92321190D01*
X174133571Y-92797381D02*
X174133571Y-91797381D01*
X174514524Y-91797381D01*
X174609762Y-91845000D01*
X174657381Y-91892619D01*
X174705000Y-91987857D01*
X174705000Y-92130714D01*
X174657381Y-92225952D01*
X174609762Y-92273571D01*
X174514524Y-92321190D01*
X174133571Y-92321190D01*
X175657381Y-92797381D02*
X175085952Y-92797381D01*
X175371666Y-92797381D02*
X175371666Y-91797381D01*
X175276428Y-91940238D01*
X175181190Y-92035476D01*
X175085952Y-92083095D01*
X176514524Y-92130714D02*
X176514524Y-92797381D01*
X176276428Y-91749762D02*
X176038333Y-92464048D01*
X176657381Y-92464048D01*
X176800238Y-92892619D02*
X177562143Y-92892619D01*
X177752619Y-91892619D02*
X177800238Y-91845000D01*
X177895476Y-91797381D01*
X178133572Y-91797381D01*
X178228810Y-91845000D01*
X178276429Y-91892619D01*
X178324048Y-91987857D01*
X178324048Y-92083095D01*
X178276429Y-92225952D01*
X177705000Y-92797381D01*
X178324048Y-92797381D01*
X174705000Y-88352381D02*
X174371666Y-87876190D01*
X174133571Y-88352381D02*
X174133571Y-87352381D01*
X174514524Y-87352381D01*
X174609762Y-87400000D01*
X174657381Y-87447619D01*
X174705000Y-87542857D01*
X174705000Y-87685714D01*
X174657381Y-87780952D01*
X174609762Y-87828571D01*
X174514524Y-87876190D01*
X174133571Y-87876190D01*
X175657381Y-88352381D02*
X175085952Y-88352381D01*
X175371666Y-88352381D02*
X175371666Y-87352381D01*
X175276428Y-87495238D01*
X175181190Y-87590476D01*
X175085952Y-87638095D01*
X176514524Y-87685714D02*
X176514524Y-88352381D01*
X176276428Y-87304762D02*
X176038333Y-88019048D01*
X176657381Y-88019048D01*
X176800238Y-88447619D02*
X177562143Y-88447619D01*
X177705000Y-87352381D02*
X178324048Y-87352381D01*
X177990714Y-87733333D01*
X178133572Y-87733333D01*
X178228810Y-87780952D01*
X178276429Y-87828571D01*
X178324048Y-87923810D01*
X178324048Y-88161905D01*
X178276429Y-88257143D01*
X178228810Y-88304762D01*
X178133572Y-88352381D01*
X177847857Y-88352381D01*
X177752619Y-88304762D01*
X177705000Y-88257143D01*
X174705000Y-111462381D02*
X174371666Y-110986190D01*
X174133571Y-111462381D02*
X174133571Y-110462381D01*
X174514524Y-110462381D01*
X174609762Y-110510000D01*
X174657381Y-110557619D01*
X174705000Y-110652857D01*
X174705000Y-110795714D01*
X174657381Y-110890952D01*
X174609762Y-110938571D01*
X174514524Y-110986190D01*
X174133571Y-110986190D01*
X175657381Y-111462381D02*
X175085952Y-111462381D01*
X175371666Y-111462381D02*
X175371666Y-110462381D01*
X175276428Y-110605238D01*
X175181190Y-110700476D01*
X175085952Y-110748095D01*
X176562143Y-110462381D02*
X176085952Y-110462381D01*
X176038333Y-110938571D01*
X176085952Y-110890952D01*
X176181190Y-110843333D01*
X176419286Y-110843333D01*
X176514524Y-110890952D01*
X176562143Y-110938571D01*
X176609762Y-111033810D01*
X176609762Y-111271905D01*
X176562143Y-111367143D01*
X176514524Y-111414762D01*
X176419286Y-111462381D01*
X176181190Y-111462381D01*
X176085952Y-111414762D01*
X176038333Y-111367143D01*
X176800238Y-111557619D02*
X177562143Y-111557619D01*
X178324048Y-111462381D02*
X177752619Y-111462381D01*
X178038333Y-111462381D02*
X178038333Y-110462381D01*
X177943095Y-110605238D01*
X177847857Y-110700476D01*
X177752619Y-110748095D01*
X174705000Y-107017381D02*
X174371666Y-106541190D01*
X174133571Y-107017381D02*
X174133571Y-106017381D01*
X174514524Y-106017381D01*
X174609762Y-106065000D01*
X174657381Y-106112619D01*
X174705000Y-106207857D01*
X174705000Y-106350714D01*
X174657381Y-106445952D01*
X174609762Y-106493571D01*
X174514524Y-106541190D01*
X174133571Y-106541190D01*
X175657381Y-107017381D02*
X175085952Y-107017381D01*
X175371666Y-107017381D02*
X175371666Y-106017381D01*
X175276428Y-106160238D01*
X175181190Y-106255476D01*
X175085952Y-106303095D01*
X176562143Y-106017381D02*
X176085952Y-106017381D01*
X176038333Y-106493571D01*
X176085952Y-106445952D01*
X176181190Y-106398333D01*
X176419286Y-106398333D01*
X176514524Y-106445952D01*
X176562143Y-106493571D01*
X176609762Y-106588810D01*
X176609762Y-106826905D01*
X176562143Y-106922143D01*
X176514524Y-106969762D01*
X176419286Y-107017381D01*
X176181190Y-107017381D01*
X176085952Y-106969762D01*
X176038333Y-106922143D01*
X176800238Y-107112619D02*
X177562143Y-107112619D01*
X177752619Y-106112619D02*
X177800238Y-106065000D01*
X177895476Y-106017381D01*
X178133572Y-106017381D01*
X178228810Y-106065000D01*
X178276429Y-106112619D01*
X178324048Y-106207857D01*
X178324048Y-106303095D01*
X178276429Y-106445952D01*
X177705000Y-107017381D01*
X178324048Y-107017381D01*
X174705000Y-102572381D02*
X174371666Y-102096190D01*
X174133571Y-102572381D02*
X174133571Y-101572381D01*
X174514524Y-101572381D01*
X174609762Y-101620000D01*
X174657381Y-101667619D01*
X174705000Y-101762857D01*
X174705000Y-101905714D01*
X174657381Y-102000952D01*
X174609762Y-102048571D01*
X174514524Y-102096190D01*
X174133571Y-102096190D01*
X175657381Y-102572381D02*
X175085952Y-102572381D01*
X175371666Y-102572381D02*
X175371666Y-101572381D01*
X175276428Y-101715238D01*
X175181190Y-101810476D01*
X175085952Y-101858095D01*
X176562143Y-101572381D02*
X176085952Y-101572381D01*
X176038333Y-102048571D01*
X176085952Y-102000952D01*
X176181190Y-101953333D01*
X176419286Y-101953333D01*
X176514524Y-102000952D01*
X176562143Y-102048571D01*
X176609762Y-102143810D01*
X176609762Y-102381905D01*
X176562143Y-102477143D01*
X176514524Y-102524762D01*
X176419286Y-102572381D01*
X176181190Y-102572381D01*
X176085952Y-102524762D01*
X176038333Y-102477143D01*
X176800238Y-102667619D02*
X177562143Y-102667619D01*
X177705000Y-101572381D02*
X178324048Y-101572381D01*
X177990714Y-101953333D01*
X178133572Y-101953333D01*
X178228810Y-102000952D01*
X178276429Y-102048571D01*
X178324048Y-102143810D01*
X178324048Y-102381905D01*
X178276429Y-102477143D01*
X178228810Y-102524762D01*
X178133572Y-102572381D01*
X177847857Y-102572381D01*
X177752619Y-102524762D01*
X177705000Y-102477143D01*
X174705000Y-125682381D02*
X174371666Y-125206190D01*
X174133571Y-125682381D02*
X174133571Y-124682381D01*
X174514524Y-124682381D01*
X174609762Y-124730000D01*
X174657381Y-124777619D01*
X174705000Y-124872857D01*
X174705000Y-125015714D01*
X174657381Y-125110952D01*
X174609762Y-125158571D01*
X174514524Y-125206190D01*
X174133571Y-125206190D01*
X175657381Y-125682381D02*
X175085952Y-125682381D01*
X175371666Y-125682381D02*
X175371666Y-124682381D01*
X175276428Y-124825238D01*
X175181190Y-124920476D01*
X175085952Y-124968095D01*
X176514524Y-124682381D02*
X176324047Y-124682381D01*
X176228809Y-124730000D01*
X176181190Y-124777619D01*
X176085952Y-124920476D01*
X176038333Y-125110952D01*
X176038333Y-125491905D01*
X176085952Y-125587143D01*
X176133571Y-125634762D01*
X176228809Y-125682381D01*
X176419286Y-125682381D01*
X176514524Y-125634762D01*
X176562143Y-125587143D01*
X176609762Y-125491905D01*
X176609762Y-125253810D01*
X176562143Y-125158571D01*
X176514524Y-125110952D01*
X176419286Y-125063333D01*
X176228809Y-125063333D01*
X176133571Y-125110952D01*
X176085952Y-125158571D01*
X176038333Y-125253810D01*
X176800238Y-125777619D02*
X177562143Y-125777619D01*
X178324048Y-125682381D02*
X177752619Y-125682381D01*
X178038333Y-125682381D02*
X178038333Y-124682381D01*
X177943095Y-124825238D01*
X177847857Y-124920476D01*
X177752619Y-124968095D01*
X174705000Y-121237381D02*
X174371666Y-120761190D01*
X174133571Y-121237381D02*
X174133571Y-120237381D01*
X174514524Y-120237381D01*
X174609762Y-120285000D01*
X174657381Y-120332619D01*
X174705000Y-120427857D01*
X174705000Y-120570714D01*
X174657381Y-120665952D01*
X174609762Y-120713571D01*
X174514524Y-120761190D01*
X174133571Y-120761190D01*
X175657381Y-121237381D02*
X175085952Y-121237381D01*
X175371666Y-121237381D02*
X175371666Y-120237381D01*
X175276428Y-120380238D01*
X175181190Y-120475476D01*
X175085952Y-120523095D01*
X176514524Y-120237381D02*
X176324047Y-120237381D01*
X176228809Y-120285000D01*
X176181190Y-120332619D01*
X176085952Y-120475476D01*
X176038333Y-120665952D01*
X176038333Y-121046905D01*
X176085952Y-121142143D01*
X176133571Y-121189762D01*
X176228809Y-121237381D01*
X176419286Y-121237381D01*
X176514524Y-121189762D01*
X176562143Y-121142143D01*
X176609762Y-121046905D01*
X176609762Y-120808810D01*
X176562143Y-120713571D01*
X176514524Y-120665952D01*
X176419286Y-120618333D01*
X176228809Y-120618333D01*
X176133571Y-120665952D01*
X176085952Y-120713571D01*
X176038333Y-120808810D01*
X176800238Y-121332619D02*
X177562143Y-121332619D01*
X177752619Y-120332619D02*
X177800238Y-120285000D01*
X177895476Y-120237381D01*
X178133572Y-120237381D01*
X178228810Y-120285000D01*
X178276429Y-120332619D01*
X178324048Y-120427857D01*
X178324048Y-120523095D01*
X178276429Y-120665952D01*
X177705000Y-121237381D01*
X178324048Y-121237381D01*
X174705000Y-116792381D02*
X174371666Y-116316190D01*
X174133571Y-116792381D02*
X174133571Y-115792381D01*
X174514524Y-115792381D01*
X174609762Y-115840000D01*
X174657381Y-115887619D01*
X174705000Y-115982857D01*
X174705000Y-116125714D01*
X174657381Y-116220952D01*
X174609762Y-116268571D01*
X174514524Y-116316190D01*
X174133571Y-116316190D01*
X175657381Y-116792381D02*
X175085952Y-116792381D01*
X175371666Y-116792381D02*
X175371666Y-115792381D01*
X175276428Y-115935238D01*
X175181190Y-116030476D01*
X175085952Y-116078095D01*
X176514524Y-115792381D02*
X176324047Y-115792381D01*
X176228809Y-115840000D01*
X176181190Y-115887619D01*
X176085952Y-116030476D01*
X176038333Y-116220952D01*
X176038333Y-116601905D01*
X176085952Y-116697143D01*
X176133571Y-116744762D01*
X176228809Y-116792381D01*
X176419286Y-116792381D01*
X176514524Y-116744762D01*
X176562143Y-116697143D01*
X176609762Y-116601905D01*
X176609762Y-116363810D01*
X176562143Y-116268571D01*
X176514524Y-116220952D01*
X176419286Y-116173333D01*
X176228809Y-116173333D01*
X176133571Y-116220952D01*
X176085952Y-116268571D01*
X176038333Y-116363810D01*
X176800238Y-116887619D02*
X177562143Y-116887619D01*
X177705000Y-115792381D02*
X178324048Y-115792381D01*
X177990714Y-116173333D01*
X178133572Y-116173333D01*
X178228810Y-116220952D01*
X178276429Y-116268571D01*
X178324048Y-116363810D01*
X178324048Y-116601905D01*
X178276429Y-116697143D01*
X178228810Y-116744762D01*
X178133572Y-116792381D01*
X177847857Y-116792381D01*
X177752619Y-116744762D01*
X177705000Y-116697143D01*
X174705000Y-139267381D02*
X174371666Y-138791190D01*
X174133571Y-139267381D02*
X174133571Y-138267381D01*
X174514524Y-138267381D01*
X174609762Y-138315000D01*
X174657381Y-138362619D01*
X174705000Y-138457857D01*
X174705000Y-138600714D01*
X174657381Y-138695952D01*
X174609762Y-138743571D01*
X174514524Y-138791190D01*
X174133571Y-138791190D01*
X175657381Y-139267381D02*
X175085952Y-139267381D01*
X175371666Y-139267381D02*
X175371666Y-138267381D01*
X175276428Y-138410238D01*
X175181190Y-138505476D01*
X175085952Y-138553095D01*
X175990714Y-138267381D02*
X176657381Y-138267381D01*
X176228809Y-139267381D01*
X176800238Y-139362619D02*
X177562143Y-139362619D01*
X178324048Y-139267381D02*
X177752619Y-139267381D01*
X178038333Y-139267381D02*
X178038333Y-138267381D01*
X177943095Y-138410238D01*
X177847857Y-138505476D01*
X177752619Y-138553095D01*
X174705000Y-134822381D02*
X174371666Y-134346190D01*
X174133571Y-134822381D02*
X174133571Y-133822381D01*
X174514524Y-133822381D01*
X174609762Y-133870000D01*
X174657381Y-133917619D01*
X174705000Y-134012857D01*
X174705000Y-134155714D01*
X174657381Y-134250952D01*
X174609762Y-134298571D01*
X174514524Y-134346190D01*
X174133571Y-134346190D01*
X175657381Y-134822381D02*
X175085952Y-134822381D01*
X175371666Y-134822381D02*
X175371666Y-133822381D01*
X175276428Y-133965238D01*
X175181190Y-134060476D01*
X175085952Y-134108095D01*
X175990714Y-133822381D02*
X176657381Y-133822381D01*
X176228809Y-134822381D01*
X176800238Y-134917619D02*
X177562143Y-134917619D01*
X177752619Y-133917619D02*
X177800238Y-133870000D01*
X177895476Y-133822381D01*
X178133572Y-133822381D01*
X178228810Y-133870000D01*
X178276429Y-133917619D01*
X178324048Y-134012857D01*
X178324048Y-134108095D01*
X178276429Y-134250952D01*
X177705000Y-134822381D01*
X178324048Y-134822381D01*
X174705000Y-130377381D02*
X174371666Y-129901190D01*
X174133571Y-130377381D02*
X174133571Y-129377381D01*
X174514524Y-129377381D01*
X174609762Y-129425000D01*
X174657381Y-129472619D01*
X174705000Y-129567857D01*
X174705000Y-129710714D01*
X174657381Y-129805952D01*
X174609762Y-129853571D01*
X174514524Y-129901190D01*
X174133571Y-129901190D01*
X175657381Y-130377381D02*
X175085952Y-130377381D01*
X175371666Y-130377381D02*
X175371666Y-129377381D01*
X175276428Y-129520238D01*
X175181190Y-129615476D01*
X175085952Y-129663095D01*
X175990714Y-129377381D02*
X176657381Y-129377381D01*
X176228809Y-130377381D01*
X176800238Y-130472619D02*
X177562143Y-130472619D01*
X177705000Y-129377381D02*
X178324048Y-129377381D01*
X177990714Y-129758333D01*
X178133572Y-129758333D01*
X178228810Y-129805952D01*
X178276429Y-129853571D01*
X178324048Y-129948810D01*
X178324048Y-130186905D01*
X178276429Y-130282143D01*
X178228810Y-130329762D01*
X178133572Y-130377381D01*
X177847857Y-130377381D01*
X177752619Y-130329762D01*
X177705000Y-130282143D01*
X174705000Y-153487381D02*
X174371666Y-153011190D01*
X174133571Y-153487381D02*
X174133571Y-152487381D01*
X174514524Y-152487381D01*
X174609762Y-152535000D01*
X174657381Y-152582619D01*
X174705000Y-152677857D01*
X174705000Y-152820714D01*
X174657381Y-152915952D01*
X174609762Y-152963571D01*
X174514524Y-153011190D01*
X174133571Y-153011190D01*
X175657381Y-153487381D02*
X175085952Y-153487381D01*
X175371666Y-153487381D02*
X175371666Y-152487381D01*
X175276428Y-152630238D01*
X175181190Y-152725476D01*
X175085952Y-152773095D01*
X176228809Y-152915952D02*
X176133571Y-152868333D01*
X176085952Y-152820714D01*
X176038333Y-152725476D01*
X176038333Y-152677857D01*
X176085952Y-152582619D01*
X176133571Y-152535000D01*
X176228809Y-152487381D01*
X176419286Y-152487381D01*
X176514524Y-152535000D01*
X176562143Y-152582619D01*
X176609762Y-152677857D01*
X176609762Y-152725476D01*
X176562143Y-152820714D01*
X176514524Y-152868333D01*
X176419286Y-152915952D01*
X176228809Y-152915952D01*
X176133571Y-152963571D01*
X176085952Y-153011190D01*
X176038333Y-153106429D01*
X176038333Y-153296905D01*
X176085952Y-153392143D01*
X176133571Y-153439762D01*
X176228809Y-153487381D01*
X176419286Y-153487381D01*
X176514524Y-153439762D01*
X176562143Y-153392143D01*
X176609762Y-153296905D01*
X176609762Y-153106429D01*
X176562143Y-153011190D01*
X176514524Y-152963571D01*
X176419286Y-152915952D01*
X176800238Y-153582619D02*
X177562143Y-153582619D01*
X178324048Y-153487381D02*
X177752619Y-153487381D01*
X178038333Y-153487381D02*
X178038333Y-152487381D01*
X177943095Y-152630238D01*
X177847857Y-152725476D01*
X177752619Y-152773095D01*
X174705000Y-149042381D02*
X174371666Y-148566190D01*
X174133571Y-149042381D02*
X174133571Y-148042381D01*
X174514524Y-148042381D01*
X174609762Y-148090000D01*
X174657381Y-148137619D01*
X174705000Y-148232857D01*
X174705000Y-148375714D01*
X174657381Y-148470952D01*
X174609762Y-148518571D01*
X174514524Y-148566190D01*
X174133571Y-148566190D01*
X175657381Y-149042381D02*
X175085952Y-149042381D01*
X175371666Y-149042381D02*
X175371666Y-148042381D01*
X175276428Y-148185238D01*
X175181190Y-148280476D01*
X175085952Y-148328095D01*
X176228809Y-148470952D02*
X176133571Y-148423333D01*
X176085952Y-148375714D01*
X176038333Y-148280476D01*
X176038333Y-148232857D01*
X176085952Y-148137619D01*
X176133571Y-148090000D01*
X176228809Y-148042381D01*
X176419286Y-148042381D01*
X176514524Y-148090000D01*
X176562143Y-148137619D01*
X176609762Y-148232857D01*
X176609762Y-148280476D01*
X176562143Y-148375714D01*
X176514524Y-148423333D01*
X176419286Y-148470952D01*
X176228809Y-148470952D01*
X176133571Y-148518571D01*
X176085952Y-148566190D01*
X176038333Y-148661429D01*
X176038333Y-148851905D01*
X176085952Y-148947143D01*
X176133571Y-148994762D01*
X176228809Y-149042381D01*
X176419286Y-149042381D01*
X176514524Y-148994762D01*
X176562143Y-148947143D01*
X176609762Y-148851905D01*
X176609762Y-148661429D01*
X176562143Y-148566190D01*
X176514524Y-148518571D01*
X176419286Y-148470952D01*
X176800238Y-149137619D02*
X177562143Y-149137619D01*
X177752619Y-148137619D02*
X177800238Y-148090000D01*
X177895476Y-148042381D01*
X178133572Y-148042381D01*
X178228810Y-148090000D01*
X178276429Y-148137619D01*
X178324048Y-148232857D01*
X178324048Y-148328095D01*
X178276429Y-148470952D01*
X177705000Y-149042381D01*
X178324048Y-149042381D01*
X174705000Y-144597381D02*
X174371666Y-144121190D01*
X174133571Y-144597381D02*
X174133571Y-143597381D01*
X174514524Y-143597381D01*
X174609762Y-143645000D01*
X174657381Y-143692619D01*
X174705000Y-143787857D01*
X174705000Y-143930714D01*
X174657381Y-144025952D01*
X174609762Y-144073571D01*
X174514524Y-144121190D01*
X174133571Y-144121190D01*
X175657381Y-144597381D02*
X175085952Y-144597381D01*
X175371666Y-144597381D02*
X175371666Y-143597381D01*
X175276428Y-143740238D01*
X175181190Y-143835476D01*
X175085952Y-143883095D01*
X176228809Y-144025952D02*
X176133571Y-143978333D01*
X176085952Y-143930714D01*
X176038333Y-143835476D01*
X176038333Y-143787857D01*
X176085952Y-143692619D01*
X176133571Y-143645000D01*
X176228809Y-143597381D01*
X176419286Y-143597381D01*
X176514524Y-143645000D01*
X176562143Y-143692619D01*
X176609762Y-143787857D01*
X176609762Y-143835476D01*
X176562143Y-143930714D01*
X176514524Y-143978333D01*
X176419286Y-144025952D01*
X176228809Y-144025952D01*
X176133571Y-144073571D01*
X176085952Y-144121190D01*
X176038333Y-144216429D01*
X176038333Y-144406905D01*
X176085952Y-144502143D01*
X176133571Y-144549762D01*
X176228809Y-144597381D01*
X176419286Y-144597381D01*
X176514524Y-144549762D01*
X176562143Y-144502143D01*
X176609762Y-144406905D01*
X176609762Y-144216429D01*
X176562143Y-144121190D01*
X176514524Y-144073571D01*
X176419286Y-144025952D01*
X176800238Y-144692619D02*
X177562143Y-144692619D01*
X177705000Y-143597381D02*
X178324048Y-143597381D01*
X177990714Y-143978333D01*
X178133572Y-143978333D01*
X178228810Y-144025952D01*
X178276429Y-144073571D01*
X178324048Y-144168810D01*
X178324048Y-144406905D01*
X178276429Y-144502143D01*
X178228810Y-144549762D01*
X178133572Y-144597381D01*
X177847857Y-144597381D01*
X177752619Y-144549762D01*
X177705000Y-144502143D01*
X150582381Y-99044048D02*
X150582381Y-98472619D01*
X151582381Y-98758334D02*
X150582381Y-98758334D01*
X150677619Y-98186905D02*
X150630000Y-98139286D01*
X150582381Y-98044048D01*
X150582381Y-97805952D01*
X150630000Y-97710714D01*
X150677619Y-97663095D01*
X150772857Y-97615476D01*
X150868095Y-97615476D01*
X151010952Y-97663095D01*
X151582381Y-98234524D01*
X151582381Y-97615476D01*
X151677619Y-97425000D02*
X151677619Y-96663095D01*
X151582381Y-95901190D02*
X151582381Y-96472619D01*
X151582381Y-96186905D02*
X150582381Y-96186905D01*
X150725238Y-96282143D01*
X150820476Y-96377381D01*
X150868095Y-96472619D01*
X150582381Y-113264048D02*
X150582381Y-112692619D01*
X151582381Y-112978334D02*
X150582381Y-112978334D01*
X150582381Y-112454524D02*
X150582381Y-111835476D01*
X150963333Y-112168810D01*
X150963333Y-112025952D01*
X151010952Y-111930714D01*
X151058571Y-111883095D01*
X151153810Y-111835476D01*
X151391905Y-111835476D01*
X151487143Y-111883095D01*
X151534762Y-111930714D01*
X151582381Y-112025952D01*
X151582381Y-112311667D01*
X151534762Y-112406905D01*
X151487143Y-112454524D01*
X151677619Y-111645000D02*
X151677619Y-110883095D01*
X151582381Y-110121190D02*
X151582381Y-110692619D01*
X151582381Y-110406905D02*
X150582381Y-110406905D01*
X150725238Y-110502143D01*
X150820476Y-110597381D01*
X150868095Y-110692619D01*
X150582381Y-106914048D02*
X150582381Y-106342619D01*
X151582381Y-106628334D02*
X150582381Y-106628334D01*
X150582381Y-106104524D02*
X150582381Y-105485476D01*
X150963333Y-105818810D01*
X150963333Y-105675952D01*
X151010952Y-105580714D01*
X151058571Y-105533095D01*
X151153810Y-105485476D01*
X151391905Y-105485476D01*
X151487143Y-105533095D01*
X151534762Y-105580714D01*
X151582381Y-105675952D01*
X151582381Y-105961667D01*
X151534762Y-106056905D01*
X151487143Y-106104524D01*
X151677619Y-105295000D02*
X151677619Y-104533095D01*
X150677619Y-104342619D02*
X150630000Y-104295000D01*
X150582381Y-104199762D01*
X150582381Y-103961666D01*
X150630000Y-103866428D01*
X150677619Y-103818809D01*
X150772857Y-103771190D01*
X150868095Y-103771190D01*
X151010952Y-103818809D01*
X151582381Y-104390238D01*
X151582381Y-103771190D01*
X150582381Y-127484048D02*
X150582381Y-126912619D01*
X151582381Y-127198334D02*
X150582381Y-127198334D01*
X150915714Y-126150714D02*
X151582381Y-126150714D01*
X150534762Y-126388810D02*
X151249048Y-126626905D01*
X151249048Y-126007857D01*
X151677619Y-125865000D02*
X151677619Y-125103095D01*
X151582381Y-124341190D02*
X151582381Y-124912619D01*
X151582381Y-124626905D02*
X150582381Y-124626905D01*
X150725238Y-124722143D01*
X150820476Y-124817381D01*
X150868095Y-124912619D01*
X150582381Y-121134048D02*
X150582381Y-120562619D01*
X151582381Y-120848334D02*
X150582381Y-120848334D01*
X150915714Y-119800714D02*
X151582381Y-119800714D01*
X150534762Y-120038810D02*
X151249048Y-120276905D01*
X151249048Y-119657857D01*
X151677619Y-119515000D02*
X151677619Y-118753095D01*
X150677619Y-118562619D02*
X150630000Y-118515000D01*
X150582381Y-118419762D01*
X150582381Y-118181666D01*
X150630000Y-118086428D01*
X150677619Y-118038809D01*
X150772857Y-117991190D01*
X150868095Y-117991190D01*
X151010952Y-118038809D01*
X151582381Y-118610238D01*
X151582381Y-117991190D01*
X150582381Y-141069048D02*
X150582381Y-140497619D01*
X151582381Y-140783334D02*
X150582381Y-140783334D01*
X150582381Y-139688095D02*
X150582381Y-140164286D01*
X151058571Y-140211905D01*
X151010952Y-140164286D01*
X150963333Y-140069048D01*
X150963333Y-139830952D01*
X151010952Y-139735714D01*
X151058571Y-139688095D01*
X151153810Y-139640476D01*
X151391905Y-139640476D01*
X151487143Y-139688095D01*
X151534762Y-139735714D01*
X151582381Y-139830952D01*
X151582381Y-140069048D01*
X151534762Y-140164286D01*
X151487143Y-140211905D01*
X151677619Y-139450000D02*
X151677619Y-138688095D01*
X151582381Y-137926190D02*
X151582381Y-138497619D01*
X151582381Y-138211905D02*
X150582381Y-138211905D01*
X150725238Y-138307143D01*
X150820476Y-138402381D01*
X150868095Y-138497619D01*
X150582381Y-134719048D02*
X150582381Y-134147619D01*
X151582381Y-134433334D02*
X150582381Y-134433334D01*
X150582381Y-133338095D02*
X150582381Y-133814286D01*
X151058571Y-133861905D01*
X151010952Y-133814286D01*
X150963333Y-133719048D01*
X150963333Y-133480952D01*
X151010952Y-133385714D01*
X151058571Y-133338095D01*
X151153810Y-133290476D01*
X151391905Y-133290476D01*
X151487143Y-133338095D01*
X151534762Y-133385714D01*
X151582381Y-133480952D01*
X151582381Y-133719048D01*
X151534762Y-133814286D01*
X151487143Y-133861905D01*
X151677619Y-133100000D02*
X151677619Y-132338095D01*
X150677619Y-132147619D02*
X150630000Y-132100000D01*
X150582381Y-132004762D01*
X150582381Y-131766666D01*
X150630000Y-131671428D01*
X150677619Y-131623809D01*
X150772857Y-131576190D01*
X150868095Y-131576190D01*
X151010952Y-131623809D01*
X151582381Y-132195238D01*
X151582381Y-131576190D01*
X150582381Y-155924048D02*
X150582381Y-155352619D01*
X151582381Y-155638334D02*
X150582381Y-155638334D01*
X150582381Y-154590714D02*
X150582381Y-154781191D01*
X150630000Y-154876429D01*
X150677619Y-154924048D01*
X150820476Y-155019286D01*
X151010952Y-155066905D01*
X151391905Y-155066905D01*
X151487143Y-155019286D01*
X151534762Y-154971667D01*
X151582381Y-154876429D01*
X151582381Y-154685952D01*
X151534762Y-154590714D01*
X151487143Y-154543095D01*
X151391905Y-154495476D01*
X151153810Y-154495476D01*
X151058571Y-154543095D01*
X151010952Y-154590714D01*
X150963333Y-154685952D01*
X150963333Y-154876429D01*
X151010952Y-154971667D01*
X151058571Y-155019286D01*
X151153810Y-155066905D01*
X151677619Y-154305000D02*
X151677619Y-153543095D01*
X151582381Y-152781190D02*
X151582381Y-153352619D01*
X151582381Y-153066905D02*
X150582381Y-153066905D01*
X150725238Y-153162143D01*
X150820476Y-153257381D01*
X150868095Y-153352619D01*
X150582381Y-148939048D02*
X150582381Y-148367619D01*
X151582381Y-148653334D02*
X150582381Y-148653334D01*
X150582381Y-147605714D02*
X150582381Y-147796191D01*
X150630000Y-147891429D01*
X150677619Y-147939048D01*
X150820476Y-148034286D01*
X151010952Y-148081905D01*
X151391905Y-148081905D01*
X151487143Y-148034286D01*
X151534762Y-147986667D01*
X151582381Y-147891429D01*
X151582381Y-147700952D01*
X151534762Y-147605714D01*
X151487143Y-147558095D01*
X151391905Y-147510476D01*
X151153810Y-147510476D01*
X151058571Y-147558095D01*
X151010952Y-147605714D01*
X150963333Y-147700952D01*
X150963333Y-147891429D01*
X151010952Y-147986667D01*
X151058571Y-148034286D01*
X151153810Y-148081905D01*
X151677619Y-147320000D02*
X151677619Y-146558095D01*
X150677619Y-146367619D02*
X150630000Y-146320000D01*
X150582381Y-146224762D01*
X150582381Y-145986666D01*
X150630000Y-145891428D01*
X150677619Y-145843809D01*
X150772857Y-145796190D01*
X150868095Y-145796190D01*
X151010952Y-145843809D01*
X151582381Y-146415238D01*
X151582381Y-145796190D01*
X169287381Y-84574048D02*
X169287381Y-84002619D01*
X170287381Y-84288334D02*
X169287381Y-84288334D01*
X169287381Y-83764524D02*
X169287381Y-83097857D01*
X170287381Y-83526429D01*
X170382619Y-82955000D02*
X170382619Y-82193095D01*
X170287381Y-81431190D02*
X170287381Y-82002619D01*
X170287381Y-81716905D02*
X169287381Y-81716905D01*
X169430238Y-81812143D01*
X169525476Y-81907381D01*
X169573095Y-82002619D01*
X169287381Y-78224048D02*
X169287381Y-77652619D01*
X170287381Y-77938334D02*
X169287381Y-77938334D01*
X169287381Y-77414524D02*
X169287381Y-76747857D01*
X170287381Y-77176429D01*
X170382619Y-76605000D02*
X170382619Y-75843095D01*
X169382619Y-75652619D02*
X169335000Y-75605000D01*
X169287381Y-75509762D01*
X169287381Y-75271666D01*
X169335000Y-75176428D01*
X169382619Y-75128809D01*
X169477857Y-75081190D01*
X169573095Y-75081190D01*
X169715952Y-75128809D01*
X170287381Y-75700238D01*
X170287381Y-75081190D01*
X169287381Y-98794048D02*
X169287381Y-98222619D01*
X170287381Y-98508334D02*
X169287381Y-98508334D01*
X169715952Y-97746429D02*
X169668333Y-97841667D01*
X169620714Y-97889286D01*
X169525476Y-97936905D01*
X169477857Y-97936905D01*
X169382619Y-97889286D01*
X169335000Y-97841667D01*
X169287381Y-97746429D01*
X169287381Y-97555952D01*
X169335000Y-97460714D01*
X169382619Y-97413095D01*
X169477857Y-97365476D01*
X169525476Y-97365476D01*
X169620714Y-97413095D01*
X169668333Y-97460714D01*
X169715952Y-97555952D01*
X169715952Y-97746429D01*
X169763571Y-97841667D01*
X169811190Y-97889286D01*
X169906429Y-97936905D01*
X170096905Y-97936905D01*
X170192143Y-97889286D01*
X170239762Y-97841667D01*
X170287381Y-97746429D01*
X170287381Y-97555952D01*
X170239762Y-97460714D01*
X170192143Y-97413095D01*
X170096905Y-97365476D01*
X169906429Y-97365476D01*
X169811190Y-97413095D01*
X169763571Y-97460714D01*
X169715952Y-97555952D01*
X170382619Y-97175000D02*
X170382619Y-96413095D01*
X170287381Y-95651190D02*
X170287381Y-96222619D01*
X170287381Y-95936905D02*
X169287381Y-95936905D01*
X169430238Y-96032143D01*
X169525476Y-96127381D01*
X169573095Y-96222619D01*
X169287381Y-92444048D02*
X169287381Y-91872619D01*
X170287381Y-92158334D02*
X169287381Y-92158334D01*
X169715952Y-91396429D02*
X169668333Y-91491667D01*
X169620714Y-91539286D01*
X169525476Y-91586905D01*
X169477857Y-91586905D01*
X169382619Y-91539286D01*
X169335000Y-91491667D01*
X169287381Y-91396429D01*
X169287381Y-91205952D01*
X169335000Y-91110714D01*
X169382619Y-91063095D01*
X169477857Y-91015476D01*
X169525476Y-91015476D01*
X169620714Y-91063095D01*
X169668333Y-91110714D01*
X169715952Y-91205952D01*
X169715952Y-91396429D01*
X169763571Y-91491667D01*
X169811190Y-91539286D01*
X169906429Y-91586905D01*
X170096905Y-91586905D01*
X170192143Y-91539286D01*
X170239762Y-91491667D01*
X170287381Y-91396429D01*
X170287381Y-91205952D01*
X170239762Y-91110714D01*
X170192143Y-91063095D01*
X170096905Y-91015476D01*
X169906429Y-91015476D01*
X169811190Y-91063095D01*
X169763571Y-91110714D01*
X169715952Y-91205952D01*
X170382619Y-90825000D02*
X170382619Y-90063095D01*
X169382619Y-89872619D02*
X169335000Y-89825000D01*
X169287381Y-89729762D01*
X169287381Y-89491666D01*
X169335000Y-89396428D01*
X169382619Y-89348809D01*
X169477857Y-89301190D01*
X169573095Y-89301190D01*
X169715952Y-89348809D01*
X170287381Y-89920238D01*
X170287381Y-89301190D01*
X169922381Y-113264048D02*
X169922381Y-112692619D01*
X170922381Y-112978334D02*
X169922381Y-112978334D01*
X170922381Y-112311667D02*
X170922381Y-112121191D01*
X170874762Y-112025952D01*
X170827143Y-111978333D01*
X170684286Y-111883095D01*
X170493810Y-111835476D01*
X170112857Y-111835476D01*
X170017619Y-111883095D01*
X169970000Y-111930714D01*
X169922381Y-112025952D01*
X169922381Y-112216429D01*
X169970000Y-112311667D01*
X170017619Y-112359286D01*
X170112857Y-112406905D01*
X170350952Y-112406905D01*
X170446190Y-112359286D01*
X170493810Y-112311667D01*
X170541429Y-112216429D01*
X170541429Y-112025952D01*
X170493810Y-111930714D01*
X170446190Y-111883095D01*
X170350952Y-111835476D01*
X171017619Y-111645000D02*
X171017619Y-110883095D01*
X170922381Y-110121190D02*
X170922381Y-110692619D01*
X170922381Y-110406905D02*
X169922381Y-110406905D01*
X170065238Y-110502143D01*
X170160476Y-110597381D01*
X170208095Y-110692619D01*
X169922381Y-106914048D02*
X169922381Y-106342619D01*
X170922381Y-106628334D02*
X169922381Y-106628334D01*
X170922381Y-105961667D02*
X170922381Y-105771191D01*
X170874762Y-105675952D01*
X170827143Y-105628333D01*
X170684286Y-105533095D01*
X170493810Y-105485476D01*
X170112857Y-105485476D01*
X170017619Y-105533095D01*
X169970000Y-105580714D01*
X169922381Y-105675952D01*
X169922381Y-105866429D01*
X169970000Y-105961667D01*
X170017619Y-106009286D01*
X170112857Y-106056905D01*
X170350952Y-106056905D01*
X170446190Y-106009286D01*
X170493810Y-105961667D01*
X170541429Y-105866429D01*
X170541429Y-105675952D01*
X170493810Y-105580714D01*
X170446190Y-105533095D01*
X170350952Y-105485476D01*
X171017619Y-105295000D02*
X171017619Y-104533095D01*
X170017619Y-104342619D02*
X169970000Y-104295000D01*
X169922381Y-104199762D01*
X169922381Y-103961666D01*
X169970000Y-103866428D01*
X170017619Y-103818809D01*
X170112857Y-103771190D01*
X170208095Y-103771190D01*
X170350952Y-103818809D01*
X170922381Y-104390238D01*
X170922381Y-103771190D01*
X169922381Y-127960238D02*
X169922381Y-127388809D01*
X170922381Y-127674524D02*
X169922381Y-127674524D01*
X170922381Y-126531666D02*
X170922381Y-127103095D01*
X170922381Y-126817381D02*
X169922381Y-126817381D01*
X170065238Y-126912619D01*
X170160476Y-127007857D01*
X170208095Y-127103095D01*
X169922381Y-125912619D02*
X169922381Y-125817380D01*
X169970000Y-125722142D01*
X170017619Y-125674523D01*
X170112857Y-125626904D01*
X170303333Y-125579285D01*
X170541429Y-125579285D01*
X170731905Y-125626904D01*
X170827143Y-125674523D01*
X170874762Y-125722142D01*
X170922381Y-125817380D01*
X170922381Y-125912619D01*
X170874762Y-126007857D01*
X170827143Y-126055476D01*
X170731905Y-126103095D01*
X170541429Y-126150714D01*
X170303333Y-126150714D01*
X170112857Y-126103095D01*
X170017619Y-126055476D01*
X169970000Y-126007857D01*
X169922381Y-125912619D01*
X171017619Y-125388809D02*
X171017619Y-124626904D01*
X170922381Y-123864999D02*
X170922381Y-124436428D01*
X170922381Y-124150714D02*
X169922381Y-124150714D01*
X170065238Y-124245952D01*
X170160476Y-124341190D01*
X170208095Y-124436428D01*
X169922381Y-121610238D02*
X169922381Y-121038809D01*
X170922381Y-121324524D02*
X169922381Y-121324524D01*
X170922381Y-120181666D02*
X170922381Y-120753095D01*
X170922381Y-120467381D02*
X169922381Y-120467381D01*
X170065238Y-120562619D01*
X170160476Y-120657857D01*
X170208095Y-120753095D01*
X169922381Y-119562619D02*
X169922381Y-119467380D01*
X169970000Y-119372142D01*
X170017619Y-119324523D01*
X170112857Y-119276904D01*
X170303333Y-119229285D01*
X170541429Y-119229285D01*
X170731905Y-119276904D01*
X170827143Y-119324523D01*
X170874762Y-119372142D01*
X170922381Y-119467380D01*
X170922381Y-119562619D01*
X170874762Y-119657857D01*
X170827143Y-119705476D01*
X170731905Y-119753095D01*
X170541429Y-119800714D01*
X170303333Y-119800714D01*
X170112857Y-119753095D01*
X170017619Y-119705476D01*
X169970000Y-119657857D01*
X169922381Y-119562619D01*
X171017619Y-119038809D02*
X171017619Y-118276904D01*
X170017619Y-118086428D02*
X169970000Y-118038809D01*
X169922381Y-117943571D01*
X169922381Y-117705475D01*
X169970000Y-117610237D01*
X170017619Y-117562618D01*
X170112857Y-117514999D01*
X170208095Y-117514999D01*
X170350952Y-117562618D01*
X170922381Y-118134047D01*
X170922381Y-117514999D01*
X169287381Y-141295238D02*
X169287381Y-140723809D01*
X170287381Y-141009524D02*
X169287381Y-141009524D01*
X170287381Y-139866666D02*
X170287381Y-140438095D01*
X170287381Y-140152381D02*
X169287381Y-140152381D01*
X169430238Y-140247619D01*
X169525476Y-140342857D01*
X169573095Y-140438095D01*
X170287381Y-138914285D02*
X170287381Y-139485714D01*
X170287381Y-139200000D02*
X169287381Y-139200000D01*
X169430238Y-139295238D01*
X169525476Y-139390476D01*
X169573095Y-139485714D01*
X170382619Y-138723809D02*
X170382619Y-137961904D01*
X170287381Y-137199999D02*
X170287381Y-137771428D01*
X170287381Y-137485714D02*
X169287381Y-137485714D01*
X169430238Y-137580952D01*
X169525476Y-137676190D01*
X169573095Y-137771428D01*
X169287381Y-134945238D02*
X169287381Y-134373809D01*
X170287381Y-134659524D02*
X169287381Y-134659524D01*
X170287381Y-133516666D02*
X170287381Y-134088095D01*
X170287381Y-133802381D02*
X169287381Y-133802381D01*
X169430238Y-133897619D01*
X169525476Y-133992857D01*
X169573095Y-134088095D01*
X170287381Y-132564285D02*
X170287381Y-133135714D01*
X170287381Y-132850000D02*
X169287381Y-132850000D01*
X169430238Y-132945238D01*
X169525476Y-133040476D01*
X169573095Y-133135714D01*
X170382619Y-132373809D02*
X170382619Y-131611904D01*
X169382619Y-131421428D02*
X169335000Y-131373809D01*
X169287381Y-131278571D01*
X169287381Y-131040475D01*
X169335000Y-130945237D01*
X169382619Y-130897618D01*
X169477857Y-130849999D01*
X169573095Y-130849999D01*
X169715952Y-130897618D01*
X170287381Y-131469047D01*
X170287381Y-130849999D01*
X169287381Y-156150238D02*
X169287381Y-155578809D01*
X170287381Y-155864524D02*
X169287381Y-155864524D01*
X170287381Y-154721666D02*
X170287381Y-155293095D01*
X170287381Y-155007381D02*
X169287381Y-155007381D01*
X169430238Y-155102619D01*
X169525476Y-155197857D01*
X169573095Y-155293095D01*
X169382619Y-154340714D02*
X169335000Y-154293095D01*
X169287381Y-154197857D01*
X169287381Y-153959761D01*
X169335000Y-153864523D01*
X169382619Y-153816904D01*
X169477857Y-153769285D01*
X169573095Y-153769285D01*
X169715952Y-153816904D01*
X170287381Y-154388333D01*
X170287381Y-153769285D01*
X170382619Y-153578809D02*
X170382619Y-152816904D01*
X170287381Y-152054999D02*
X170287381Y-152626428D01*
X170287381Y-152340714D02*
X169287381Y-152340714D01*
X169430238Y-152435952D01*
X169525476Y-152531190D01*
X169573095Y-152626428D01*
X169287381Y-149165238D02*
X169287381Y-148593809D01*
X170287381Y-148879524D02*
X169287381Y-148879524D01*
X170287381Y-147736666D02*
X170287381Y-148308095D01*
X170287381Y-148022381D02*
X169287381Y-148022381D01*
X169430238Y-148117619D01*
X169525476Y-148212857D01*
X169573095Y-148308095D01*
X169382619Y-147355714D02*
X169335000Y-147308095D01*
X169287381Y-147212857D01*
X169287381Y-146974761D01*
X169335000Y-146879523D01*
X169382619Y-146831904D01*
X169477857Y-146784285D01*
X169573095Y-146784285D01*
X169715952Y-146831904D01*
X170287381Y-147403333D01*
X170287381Y-146784285D01*
X170382619Y-146593809D02*
X170382619Y-145831904D01*
X169382619Y-145641428D02*
X169335000Y-145593809D01*
X169287381Y-145498571D01*
X169287381Y-145260475D01*
X169335000Y-145165237D01*
X169382619Y-145117618D01*
X169477857Y-145069999D01*
X169573095Y-145069999D01*
X169715952Y-145117618D01*
X170287381Y-145689047D01*
X170287381Y-145069999D01*
X188107381Y-85300238D02*
X188107381Y-84728809D01*
X189107381Y-85014524D02*
X188107381Y-85014524D01*
X189107381Y-83871666D02*
X189107381Y-84443095D01*
X189107381Y-84157381D02*
X188107381Y-84157381D01*
X188250238Y-84252619D01*
X188345476Y-84347857D01*
X188393095Y-84443095D01*
X188107381Y-83538333D02*
X188107381Y-82919285D01*
X188488333Y-83252619D01*
X188488333Y-83109761D01*
X188535952Y-83014523D01*
X188583571Y-82966904D01*
X188678810Y-82919285D01*
X188916905Y-82919285D01*
X189012143Y-82966904D01*
X189059762Y-83014523D01*
X189107381Y-83109761D01*
X189107381Y-83395476D01*
X189059762Y-83490714D01*
X189012143Y-83538333D01*
X189202619Y-82728809D02*
X189202619Y-81966904D01*
X189107381Y-81204999D02*
X189107381Y-81776428D01*
X189107381Y-81490714D02*
X188107381Y-81490714D01*
X188250238Y-81585952D01*
X188345476Y-81681190D01*
X188393095Y-81776428D01*
X188107381Y-99520238D02*
X188107381Y-98948809D01*
X189107381Y-99234524D02*
X188107381Y-99234524D01*
X189107381Y-98091666D02*
X189107381Y-98663095D01*
X189107381Y-98377381D02*
X188107381Y-98377381D01*
X188250238Y-98472619D01*
X188345476Y-98567857D01*
X188393095Y-98663095D01*
X188440714Y-97234523D02*
X189107381Y-97234523D01*
X188059762Y-97472619D02*
X188774048Y-97710714D01*
X188774048Y-97091666D01*
X189202619Y-96948809D02*
X189202619Y-96186904D01*
X189107381Y-95424999D02*
X189107381Y-95996428D01*
X189107381Y-95710714D02*
X188107381Y-95710714D01*
X188250238Y-95805952D01*
X188345476Y-95901190D01*
X188393095Y-95996428D01*
X188107381Y-93170238D02*
X188107381Y-92598809D01*
X189107381Y-92884524D02*
X188107381Y-92884524D01*
X189107381Y-91741666D02*
X189107381Y-92313095D01*
X189107381Y-92027381D02*
X188107381Y-92027381D01*
X188250238Y-92122619D01*
X188345476Y-92217857D01*
X188393095Y-92313095D01*
X188440714Y-90884523D02*
X189107381Y-90884523D01*
X188059762Y-91122619D02*
X188774048Y-91360714D01*
X188774048Y-90741666D01*
X189202619Y-90598809D02*
X189202619Y-89836904D01*
X188202619Y-89646428D02*
X188155000Y-89598809D01*
X188107381Y-89503571D01*
X188107381Y-89265475D01*
X188155000Y-89170237D01*
X188202619Y-89122618D01*
X188297857Y-89074999D01*
X188393095Y-89074999D01*
X188535952Y-89122618D01*
X189107381Y-89694047D01*
X189107381Y-89074999D01*
X188107381Y-113740238D02*
X188107381Y-113168809D01*
X189107381Y-113454524D02*
X188107381Y-113454524D01*
X189107381Y-112311666D02*
X189107381Y-112883095D01*
X189107381Y-112597381D02*
X188107381Y-112597381D01*
X188250238Y-112692619D01*
X188345476Y-112787857D01*
X188393095Y-112883095D01*
X188107381Y-111406904D02*
X188107381Y-111883095D01*
X188583571Y-111930714D01*
X188535952Y-111883095D01*
X188488333Y-111787857D01*
X188488333Y-111549761D01*
X188535952Y-111454523D01*
X188583571Y-111406904D01*
X188678810Y-111359285D01*
X188916905Y-111359285D01*
X189012143Y-111406904D01*
X189059762Y-111454523D01*
X189107381Y-111549761D01*
X189107381Y-111787857D01*
X189059762Y-111883095D01*
X189012143Y-111930714D01*
X189202619Y-111168809D02*
X189202619Y-110406904D01*
X189107381Y-109644999D02*
X189107381Y-110216428D01*
X189107381Y-109930714D02*
X188107381Y-109930714D01*
X188250238Y-110025952D01*
X188345476Y-110121190D01*
X188393095Y-110216428D01*
X188107381Y-107390238D02*
X188107381Y-106818809D01*
X189107381Y-107104524D02*
X188107381Y-107104524D01*
X189107381Y-105961666D02*
X189107381Y-106533095D01*
X189107381Y-106247381D02*
X188107381Y-106247381D01*
X188250238Y-106342619D01*
X188345476Y-106437857D01*
X188393095Y-106533095D01*
X188107381Y-105056904D02*
X188107381Y-105533095D01*
X188583571Y-105580714D01*
X188535952Y-105533095D01*
X188488333Y-105437857D01*
X188488333Y-105199761D01*
X188535952Y-105104523D01*
X188583571Y-105056904D01*
X188678810Y-105009285D01*
X188916905Y-105009285D01*
X189012143Y-105056904D01*
X189059762Y-105104523D01*
X189107381Y-105199761D01*
X189107381Y-105437857D01*
X189059762Y-105533095D01*
X189012143Y-105580714D01*
X189202619Y-104818809D02*
X189202619Y-104056904D01*
X188202619Y-103866428D02*
X188155000Y-103818809D01*
X188107381Y-103723571D01*
X188107381Y-103485475D01*
X188155000Y-103390237D01*
X188202619Y-103342618D01*
X188297857Y-103294999D01*
X188393095Y-103294999D01*
X188535952Y-103342618D01*
X189107381Y-103914047D01*
X189107381Y-103294999D01*
X188107381Y-127960238D02*
X188107381Y-127388809D01*
X189107381Y-127674524D02*
X188107381Y-127674524D01*
X189107381Y-126531666D02*
X189107381Y-127103095D01*
X189107381Y-126817381D02*
X188107381Y-126817381D01*
X188250238Y-126912619D01*
X188345476Y-127007857D01*
X188393095Y-127103095D01*
X188107381Y-125674523D02*
X188107381Y-125865000D01*
X188155000Y-125960238D01*
X188202619Y-126007857D01*
X188345476Y-126103095D01*
X188535952Y-126150714D01*
X188916905Y-126150714D01*
X189012143Y-126103095D01*
X189059762Y-126055476D01*
X189107381Y-125960238D01*
X189107381Y-125769761D01*
X189059762Y-125674523D01*
X189012143Y-125626904D01*
X188916905Y-125579285D01*
X188678810Y-125579285D01*
X188583571Y-125626904D01*
X188535952Y-125674523D01*
X188488333Y-125769761D01*
X188488333Y-125960238D01*
X188535952Y-126055476D01*
X188583571Y-126103095D01*
X188678810Y-126150714D01*
X189202619Y-125388809D02*
X189202619Y-124626904D01*
X189107381Y-123864999D02*
X189107381Y-124436428D01*
X189107381Y-124150714D02*
X188107381Y-124150714D01*
X188250238Y-124245952D01*
X188345476Y-124341190D01*
X188393095Y-124436428D01*
X188107381Y-121610238D02*
X188107381Y-121038809D01*
X189107381Y-121324524D02*
X188107381Y-121324524D01*
X189107381Y-120181666D02*
X189107381Y-120753095D01*
X189107381Y-120467381D02*
X188107381Y-120467381D01*
X188250238Y-120562619D01*
X188345476Y-120657857D01*
X188393095Y-120753095D01*
X188107381Y-119324523D02*
X188107381Y-119515000D01*
X188155000Y-119610238D01*
X188202619Y-119657857D01*
X188345476Y-119753095D01*
X188535952Y-119800714D01*
X188916905Y-119800714D01*
X189012143Y-119753095D01*
X189059762Y-119705476D01*
X189107381Y-119610238D01*
X189107381Y-119419761D01*
X189059762Y-119324523D01*
X189012143Y-119276904D01*
X188916905Y-119229285D01*
X188678810Y-119229285D01*
X188583571Y-119276904D01*
X188535952Y-119324523D01*
X188488333Y-119419761D01*
X188488333Y-119610238D01*
X188535952Y-119705476D01*
X188583571Y-119753095D01*
X188678810Y-119800714D01*
X189202619Y-119038809D02*
X189202619Y-118276904D01*
X188202619Y-118086428D02*
X188155000Y-118038809D01*
X188107381Y-117943571D01*
X188107381Y-117705475D01*
X188155000Y-117610237D01*
X188202619Y-117562618D01*
X188297857Y-117514999D01*
X188393095Y-117514999D01*
X188535952Y-117562618D01*
X189107381Y-118134047D01*
X189107381Y-117514999D01*
X188107381Y-141545238D02*
X188107381Y-140973809D01*
X189107381Y-141259524D02*
X188107381Y-141259524D01*
X189107381Y-140116666D02*
X189107381Y-140688095D01*
X189107381Y-140402381D02*
X188107381Y-140402381D01*
X188250238Y-140497619D01*
X188345476Y-140592857D01*
X188393095Y-140688095D01*
X188107381Y-139783333D02*
X188107381Y-139116666D01*
X189107381Y-139545238D01*
X189202619Y-138973809D02*
X189202619Y-138211904D01*
X189107381Y-137449999D02*
X189107381Y-138021428D01*
X189107381Y-137735714D02*
X188107381Y-137735714D01*
X188250238Y-137830952D01*
X188345476Y-137926190D01*
X188393095Y-138021428D01*
X188107381Y-135195238D02*
X188107381Y-134623809D01*
X189107381Y-134909524D02*
X188107381Y-134909524D01*
X189107381Y-133766666D02*
X189107381Y-134338095D01*
X189107381Y-134052381D02*
X188107381Y-134052381D01*
X188250238Y-134147619D01*
X188345476Y-134242857D01*
X188393095Y-134338095D01*
X188107381Y-133433333D02*
X188107381Y-132766666D01*
X189107381Y-133195238D01*
X189202619Y-132623809D02*
X189202619Y-131861904D01*
X188202619Y-131671428D02*
X188155000Y-131623809D01*
X188107381Y-131528571D01*
X188107381Y-131290475D01*
X188155000Y-131195237D01*
X188202619Y-131147618D01*
X188297857Y-131099999D01*
X188393095Y-131099999D01*
X188535952Y-131147618D01*
X189107381Y-131719047D01*
X189107381Y-131099999D01*
X188107381Y-155765238D02*
X188107381Y-155193809D01*
X189107381Y-155479524D02*
X188107381Y-155479524D01*
X189107381Y-154336666D02*
X189107381Y-154908095D01*
X189107381Y-154622381D02*
X188107381Y-154622381D01*
X188250238Y-154717619D01*
X188345476Y-154812857D01*
X188393095Y-154908095D01*
X188535952Y-153765238D02*
X188488333Y-153860476D01*
X188440714Y-153908095D01*
X188345476Y-153955714D01*
X188297857Y-153955714D01*
X188202619Y-153908095D01*
X188155000Y-153860476D01*
X188107381Y-153765238D01*
X188107381Y-153574761D01*
X188155000Y-153479523D01*
X188202619Y-153431904D01*
X188297857Y-153384285D01*
X188345476Y-153384285D01*
X188440714Y-153431904D01*
X188488333Y-153479523D01*
X188535952Y-153574761D01*
X188535952Y-153765238D01*
X188583571Y-153860476D01*
X188631190Y-153908095D01*
X188726429Y-153955714D01*
X188916905Y-153955714D01*
X189012143Y-153908095D01*
X189059762Y-153860476D01*
X189107381Y-153765238D01*
X189107381Y-153574761D01*
X189059762Y-153479523D01*
X189012143Y-153431904D01*
X188916905Y-153384285D01*
X188726429Y-153384285D01*
X188631190Y-153431904D01*
X188583571Y-153479523D01*
X188535952Y-153574761D01*
X189202619Y-153193809D02*
X189202619Y-152431904D01*
X189107381Y-151669999D02*
X189107381Y-152241428D01*
X189107381Y-151955714D02*
X188107381Y-151955714D01*
X188250238Y-152050952D01*
X188345476Y-152146190D01*
X188393095Y-152241428D01*
X188107381Y-149415238D02*
X188107381Y-148843809D01*
X189107381Y-149129524D02*
X188107381Y-149129524D01*
X189107381Y-147986666D02*
X189107381Y-148558095D01*
X189107381Y-148272381D02*
X188107381Y-148272381D01*
X188250238Y-148367619D01*
X188345476Y-148462857D01*
X188393095Y-148558095D01*
X188535952Y-147415238D02*
X188488333Y-147510476D01*
X188440714Y-147558095D01*
X188345476Y-147605714D01*
X188297857Y-147605714D01*
X188202619Y-147558095D01*
X188155000Y-147510476D01*
X188107381Y-147415238D01*
X188107381Y-147224761D01*
X188155000Y-147129523D01*
X188202619Y-147081904D01*
X188297857Y-147034285D01*
X188345476Y-147034285D01*
X188440714Y-147081904D01*
X188488333Y-147129523D01*
X188535952Y-147224761D01*
X188535952Y-147415238D01*
X188583571Y-147510476D01*
X188631190Y-147558095D01*
X188726429Y-147605714D01*
X188916905Y-147605714D01*
X189012143Y-147558095D01*
X189059762Y-147510476D01*
X189107381Y-147415238D01*
X189107381Y-147224761D01*
X189059762Y-147129523D01*
X189012143Y-147081904D01*
X188916905Y-147034285D01*
X188726429Y-147034285D01*
X188631190Y-147081904D01*
X188583571Y-147129523D01*
X188535952Y-147224761D01*
X189202619Y-146843809D02*
X189202619Y-146081904D01*
X188202619Y-145891428D02*
X188155000Y-145843809D01*
X188107381Y-145748571D01*
X188107381Y-145510475D01*
X188155000Y-145415237D01*
X188202619Y-145367618D01*
X188297857Y-145319999D01*
X188393095Y-145319999D01*
X188535952Y-145367618D01*
X189107381Y-145939047D01*
X189107381Y-145319999D01*
X150582381Y-92694048D02*
X150582381Y-92122619D01*
X151582381Y-92408334D02*
X150582381Y-92408334D01*
X150677619Y-91836905D02*
X150630000Y-91789286D01*
X150582381Y-91694048D01*
X150582381Y-91455952D01*
X150630000Y-91360714D01*
X150677619Y-91313095D01*
X150772857Y-91265476D01*
X150868095Y-91265476D01*
X151010952Y-91313095D01*
X151582381Y-91884524D01*
X151582381Y-91265476D01*
X151677619Y-91075000D02*
X151677619Y-90313095D01*
X150677619Y-90122619D02*
X150630000Y-90075000D01*
X150582381Y-89979762D01*
X150582381Y-89741666D01*
X150630000Y-89646428D01*
X150677619Y-89598809D01*
X150772857Y-89551190D01*
X150868095Y-89551190D01*
X151010952Y-89598809D01*
X151582381Y-90170238D01*
X151582381Y-89551190D01*
X150582381Y-84824048D02*
X150582381Y-84252619D01*
X151582381Y-84538334D02*
X150582381Y-84538334D01*
X151582381Y-83395476D02*
X151582381Y-83966905D01*
X151582381Y-83681191D02*
X150582381Y-83681191D01*
X150725238Y-83776429D01*
X150820476Y-83871667D01*
X150868095Y-83966905D01*
X151677619Y-83205000D02*
X151677619Y-82443095D01*
X151582381Y-81681190D02*
X151582381Y-82252619D01*
X151582381Y-81966905D02*
X150582381Y-81966905D01*
X150725238Y-82062143D01*
X150820476Y-82157381D01*
X150868095Y-82252619D01*
X150582381Y-78474048D02*
X150582381Y-77902619D01*
X151582381Y-78188334D02*
X150582381Y-78188334D01*
X151582381Y-77045476D02*
X151582381Y-77616905D01*
X151582381Y-77331191D02*
X150582381Y-77331191D01*
X150725238Y-77426429D01*
X150820476Y-77521667D01*
X150868095Y-77616905D01*
X151677619Y-76855000D02*
X151677619Y-76093095D01*
X150677619Y-75902619D02*
X150630000Y-75855000D01*
X150582381Y-75759762D01*
X150582381Y-75521666D01*
X150630000Y-75426428D01*
X150677619Y-75378809D01*
X150772857Y-75331190D01*
X150868095Y-75331190D01*
X151010952Y-75378809D01*
X151582381Y-75950238D01*
X151582381Y-75331190D01*
X137656191Y-78577381D02*
X137322857Y-78101190D01*
X137084762Y-78577381D02*
X137084762Y-77577381D01*
X137465715Y-77577381D01*
X137560953Y-77625000D01*
X137608572Y-77672619D01*
X137656191Y-77767857D01*
X137656191Y-77910714D01*
X137608572Y-78005952D01*
X137560953Y-78053571D01*
X137465715Y-78101190D01*
X137084762Y-78101190D01*
X138608572Y-78577381D02*
X138037143Y-78577381D01*
X138322857Y-78577381D02*
X138322857Y-77577381D01*
X138227619Y-77720238D01*
X138132381Y-77815476D01*
X138037143Y-77863095D01*
X138799048Y-78672619D02*
X139560953Y-78672619D01*
X139751429Y-77672619D02*
X139799048Y-77625000D01*
X139894286Y-77577381D01*
X140132382Y-77577381D01*
X140227620Y-77625000D01*
X140275239Y-77672619D01*
X140322858Y-77767857D01*
X140322858Y-77863095D01*
X140275239Y-78005952D01*
X139703810Y-78577381D01*
X140322858Y-78577381D01*
X113166667Y-75702381D02*
X113166667Y-74702381D01*
X113500001Y-75416667D01*
X113833334Y-74702381D01*
X113833334Y-75702381D01*
X114309524Y-75702381D02*
X114309524Y-74702381D01*
X114309524Y-75178571D02*
X114880953Y-75178571D01*
X114880953Y-75702381D02*
X114880953Y-74702381D01*
X115880953Y-75702381D02*
X115309524Y-75702381D01*
X115595238Y-75702381D02*
X115595238Y-74702381D01*
X115500000Y-74845238D01*
X115404762Y-74940476D01*
X115309524Y-74988095D01*
X192452381Y-95083333D02*
X193166667Y-95083333D01*
X193309524Y-95130953D01*
X193404762Y-95226191D01*
X193452381Y-95369048D01*
X193452381Y-95464286D01*
X192547619Y-94654762D02*
X192500000Y-94607143D01*
X192452381Y-94511905D01*
X192452381Y-94273809D01*
X192500000Y-94178571D01*
X192547619Y-94130952D01*
X192642857Y-94083333D01*
X192738095Y-94083333D01*
X192880952Y-94130952D01*
X193452381Y-94702381D01*
X193452381Y-94083333D01*
X192452381Y-113333333D02*
X193166667Y-113333333D01*
X193309524Y-113380953D01*
X193404762Y-113476191D01*
X193452381Y-113619048D01*
X193452381Y-113714286D01*
X192452381Y-112380952D02*
X192452381Y-112857143D01*
X192928571Y-112904762D01*
X192880952Y-112857143D01*
X192833333Y-112761905D01*
X192833333Y-112523809D01*
X192880952Y-112428571D01*
X192928571Y-112380952D01*
X193023810Y-112333333D01*
X193261905Y-112333333D01*
X193357143Y-112380952D01*
X193404762Y-112428571D01*
X193452381Y-112523809D01*
X193452381Y-112761905D01*
X193404762Y-112857143D01*
X193357143Y-112904762D01*
X192452381Y-136833333D02*
X193166667Y-136833333D01*
X193309524Y-136880953D01*
X193404762Y-136976191D01*
X193452381Y-137119048D01*
X193452381Y-137214286D01*
X192452381Y-135928571D02*
X192452381Y-136119048D01*
X192500000Y-136214286D01*
X192547619Y-136261905D01*
X192690476Y-136357143D01*
X192880952Y-136404762D01*
X193261905Y-136404762D01*
X193357143Y-136357143D01*
X193404762Y-136309524D01*
X193452381Y-136214286D01*
X193452381Y-136023809D01*
X193404762Y-135928571D01*
X193357143Y-135880952D01*
X193261905Y-135833333D01*
X193023810Y-135833333D01*
X192928571Y-135880952D01*
X192880952Y-135928571D01*
X192833333Y-136023809D01*
X192833333Y-136214286D01*
X192880952Y-136309524D01*
X192928571Y-136357143D01*
X193023810Y-136404762D01*
M02*
